<?xml version="1.0" encoding="utf-8"?>
<COLLADA xmlns="http://www.collada.org/2005/11/COLLADASchema" version="1.4.1">
  <asset />
  <library_images>
    <image id="ObjTrafficlight_Alb">
      <init_from>ObjTrafficlight_Alb.png</init_from>
    </image>
    <image id="ObjTrafficlight_Emm.1">
      <init_from>ObjTrafficlight_Emm.1.png</init_from>
    </image>
    <image id="ObjTrafficlight_Nrm">
      <init_from>ObjTrafficlight_Nrm.png</init_from>
    </image>
    <image id="ObjTrafficlight_Spm">
      <init_from>ObjTrafficlight_Spm.png</init_from>
    </image>
  </library_images>
  <library_materials>
    <material id="ObjTrafficlight">
      <instance_effect url="#Effect_ObjTrafficlight" />
    </material>
  </library_materials>
  <library_effects>
    <effect id="Effect_ObjTrafficlight">
      <profile_COMMON>
        <newparam sid="surface_ObjTrafficlight-diffuse">
          <surface type="2D">
            <init_from>ObjTrafficlight_Alb</init_from>
            <format>A8R8G8B8</format>
          </surface>
        </newparam>
        <newparam sid="sampler_ObjTrafficlight-diffuse">
          <sampler2D>
            <source>surface_ObjTrafficlight-diffuse</source>
            <wrap_s>WRAP</wrap_s>
            <wrap_t>WRAP</wrap_t>
          </sampler2D>
        </newparam>
        <newparam sid="surface_ObjTrafficlight-emission">
          <surface type="2D">
            <init_from>ObjTrafficlight_Emm.1</init_from>
            <format>A8R8G8B8</format>
          </surface>
        </newparam>
        <newparam sid="sampler_ObjTrafficlight-emission">
          <sampler2D>
            <source>surface_ObjTrafficlight-emission</source>
            <wrap_s>WRAP</wrap_s>
            <wrap_t>WRAP</wrap_t>
          </sampler2D>
        </newparam>
        <newparam sid="surface_ObjTrafficlight-bump">
          <surface type="2D">
            <init_from>ObjTrafficlight_Nrm</init_from>
            <format>A8R8G8B8</format>
          </surface>
        </newparam>
        <newparam sid="sampler_ObjTrafficlight-bump">
          <sampler2D>
            <source>surface_ObjTrafficlight-bump</source>
            <wrap_s>WRAP</wrap_s>
            <wrap_t>WRAP</wrap_t>
          </sampler2D>
        </newparam>
        <newparam sid="surface_ObjTrafficlight-specular">
          <surface type="2D">
            <init_from>ObjTrafficlight_Spm</init_from>
            <format>A8R8G8B8</format>
          </surface>
        </newparam>
        <newparam sid="sampler_ObjTrafficlight-specular">
          <sampler2D>
            <source>surface_ObjTrafficlight-specular</source>
            <wrap_s>WRAP</wrap_s>
            <wrap_t>WRAP</wrap_t>
          </sampler2D>
        </newparam>
        <technique sid="common">
          <phong>
            <diffuse>
              <texture texture="sampler_ObjTrafficlight-diffuse" texcoord="CHANNEL0" />
            </diffuse>
            <emission>
              <texture texture="sampler_ObjTrafficlight-emission" texcoord="CHANNEL0" />
            </emission>
            <bump>
              <texture texture="sampler_ObjTrafficlight-bump" texcoord="CHANNEL0" />
            </bump>
            <specular>
              <texture texture="sampler_ObjTrafficlight-specular" texcoord="CHANNEL0" />
            </specular>
          </phong>
        </technique>
      </profile_COMMON>
    </effect>
  </library_effects>
  <library_geometries>
    <geometry id="Trafficlight4__ObjTrafficlight-mesh" name="Trafficlight4__ObjTrafficlight">
      <mesh>
        <source id="Trafficlight4__ObjTrafficlight-position">
          <float_array id="Trafficlight4__ObjTrafficlight-position-array" count="930">0.685832 100.4281 -269.9733 0.6858318 102.2582 -271.8034 0.6858315 97.92814 -274.3034 0.6858315 102.9281 -274.3034 0.6858309 102.2582 -276.8034 0.685831 100.4281 -278.6335 0.6858305 97.92814 -279.3034 0.685831 95.42814 -278.6335 0.6858309 93.59804 -276.8034 0.6858315 92.92814 -274.3034 0.6858318 93.59804 -271.8034 0.685832 95.42814 -269.9733 0.685832 97.92814 -269.3034 0.6858284 100.4281 -291.6335 0.6858292 97.92814 -287.3034 0.6858289 102.2582 -289.8034 0.6858292 102.9281 -287.3034 0.6858293 102.2582 -284.8034 0.6858298 100.4281 -282.9733 0.6858302 97.92814 -282.3034 0.6858298 95.42814 -282.9733 0.6858293 93.59804 -284.8034 0.6858292 92.92814 -287.3034 0.6858289 93.59804 -289.8034 0.6858284 95.42814 -291.6335 0.6858282 97.92814 -292.3034 -38.41417 326.5062 -497.5733 -38.41417 328.3363 -499.4034 -38.41417 324.0062 -501.9034 -38.41417 329.0062 -501.9034 -38.41417 328.3363 -504.4034 -38.41417 326.5062 -506.2336 -38.41417 324.0062 -506.9034 -38.41417 321.5062 -506.2336 -38.41417 319.6761 -504.4034 -38.41417 319.0062 -501.9034 -38.41417 319.6761 -499.4034 -38.41417 321.5062 -497.5733 -38.41417 324.0062 -496.9034 -38.41417 326.5062 -519.2335 -38.41417 324.0062 -514.9034 -38.41417 328.3363 -517.4034 -38.41417 329.0062 -514.9034 -38.41417 328.3363 -512.4034 -38.41417 326.5062 -510.5733 -38.41417 324.0062 -509.9034 -38.41417 321.5062 -510.5733 -38.41417 319.6761 -512.4034 -38.41417 319.0062 -514.9034 -38.41417 319.6761 -517.4034 -38.41417 321.5062 -519.2335 -38.41417 324.0062 -519.9034 -0.685833 100.4281 269.9733 -0.6858327 102.2582 271.8034 -0.6858321 97.92814 274.3034 -0.6858321 102.9281 274.3034 -0.6858312 102.2582 276.8034 -0.6858312 100.4281 278.6335 -0.6858307 97.92814 279.3034 -0.6858312 95.42814 278.6335 -0.6858312 93.59804 276.8034 -0.6858321 92.92814 274.3034 -0.6858327 93.59804 271.8034 -0.685833 95.42814 269.9733 -0.685833 97.92814 269.3034 -0.6858275 100.4281 291.6335 -0.6858286 97.92814 287.3034 -0.685828 102.2582 289.8034 -0.6858286 102.9281 287.3034 -0.685829 102.2582 284.8034 -0.6858295 100.4281 282.9733 -0.6858301 97.92814 282.3034 -0.6858295 95.42814 282.9733 -0.685829 93.59804 284.8034 -0.6858286 92.92814 287.3034 -0.685828 93.59804 289.8034 -0.6858275 95.42814 291.6335 -0.6858273 97.92814 292.3034 38.41417 326.5061 497.5733 38.41417 328.3362 499.4034 38.41417 324.0061 501.9034 38.41417 329.0061 501.9034 38.41417 328.3362 504.4034 38.41417 326.5061 506.2336 38.41417 324.0061 506.9034 38.41417 321.5061 506.2336 38.41417 319.676 504.4034 38.41417 319.0061 501.9034 38.41417 319.676 499.4034 38.41417 321.5061 497.5733 38.41417 324.0061 496.9034 38.41417 326.5061 519.2335 38.41417 324.0061 514.9034 38.41417 328.3362 517.4034 38.41417 329.0061 514.9034 38.41417 328.3362 512.4034 38.41417 326.5061 510.5733 38.41417 324.0061 509.9034 38.41417 321.5061 510.5733 38.41417 319.676 512.4034 38.41417 319.0061 514.9034 38.41417 319.676 517.4034 38.41417 321.5061 519.2335 38.41417 324.0061 519.9034 0.685832 100.4281 -269.9733 0.6858318 102.2582 -271.8034 0.6858315 97.92814 -274.3034 0.6858315 102.9281 -274.3034 0.6858309 102.2582 -276.8034 0.685831 100.4281 -278.6335 0.6858305 97.92814 -279.3034 0.685831 95.42814 -278.6335 0.6858309 93.59804 -276.8034 0.6858315 92.92814 -274.3034 0.6858318 93.59804 -271.8034 0.685832 95.42814 -269.9733 0.685832 97.92814 -269.3034 0.6858284 100.4281 -291.6335 0.6858292 97.92814 -287.3034 0.6858289 102.2582 -289.8034 0.6858292 102.9281 -287.3034 0.6858293 102.2582 -284.8034 0.6858298 100.4281 -282.9733 0.6858302 97.92814 -282.3034 0.6858298 95.42814 -282.9733 0.6858293 93.59804 -284.8034 0.6858292 92.92814 -287.3034 0.6858289 93.59804 -289.8034 0.6858284 95.42814 -291.6335 0.6858282 97.92814 -292.3034 -38.41417 326.5062 -497.5733 -38.41417 328.3363 -499.4034 -38.41417 324.0062 -501.9034 -38.41417 329.0062 -501.9034 -38.41417 328.3363 -504.4034 -38.41417 326.5062 -506.2336 -38.41417 324.0062 -506.9034 -38.41417 321.5062 -506.2336 -38.41417 319.6761 -504.4034 -38.41417 319.0062 -501.9034 -38.41417 319.6761 -499.4034 -38.41417 321.5062 -497.5733 -38.41417 324.0062 -496.9034 -38.41417 326.5062 -519.2335 -38.41417 324.0062 -514.9034 -38.41417 328.3363 -517.4034 -38.41417 329.0062 -514.9034 -38.41417 328.3363 -512.4034 -38.41417 326.5062 -510.5733 -38.41417 324.0062 -509.9034 -38.41417 321.5062 -510.5733 -38.41417 319.6761 -512.4034 -38.41417 319.0062 -514.9034 -38.41417 319.6761 -517.4034 -38.41417 321.5062 -519.2335 -38.41417 324.0062 -519.9034 -0.685833 100.4281 269.9733 -0.6858327 102.2582 271.8034 -0.6858321 97.92814 274.3034 -0.6858321 102.9281 274.3034 -0.6858312 102.2582 276.8034 -0.6858312 100.4281 278.6335 -0.6858307 97.92814 279.3034 -0.6858312 95.42814 278.6335 -0.6858312 93.59804 276.8034 -0.6858321 92.92814 274.3034 -0.6858327 93.59804 271.8034 -0.685833 95.42814 269.9733 -0.685833 97.92814 269.3034 -0.6858275 100.4281 291.6335 -0.6858286 97.92814 287.3034 -0.685828 102.2582 289.8034 -0.6858286 102.9281 287.3034 -0.685829 102.2582 284.8034 -0.6858295 100.4281 282.9733 -0.6858301 97.92814 282.3034 -0.6858295 95.42814 282.9733 -0.685829 93.59804 284.8034 -0.6858286 92.92814 287.3034 -0.685828 93.59804 289.8034 -0.6858275 95.42814 291.6335 -0.6858273 97.92814 292.3034 38.41417 326.5061 497.5733 38.41417 328.3362 499.4034 38.41417 324.0061 501.9034 38.41417 329.0061 501.9034 38.41417 328.3362 504.4034 38.41417 326.5061 506.2336 38.41417 324.0061 506.9034 38.41417 321.5061 506.2336 38.41417 319.676 504.4034 38.41417 319.0061 501.9034 38.41417 319.676 499.4034 38.41417 321.5061 497.5733 38.41417 324.0061 496.9034 38.41417 326.5061 519.2335 38.41417 328.3362 517.4034 38.41417 329.0061 514.9034 38.41417 328.3362 512.4034 38.41417 326.5061 510.5733 38.41417 324.0061 509.9034 38.41417 321.5061 510.5733 38.41417 319.676 512.4034 38.41417 319.0061 514.9034 38.41417 319.676 517.4034 38.41417 321.5061 519.2335 38.41417 324.0061 519.9034 0.685832 100.4281 -269.9733 0.6858318 102.2582 -271.8034 0.6858315 97.92814 -274.3034 0.6858315 102.9281 -274.3034 0.6858309 102.2582 -276.8034 0.685831 100.4281 -278.6335 0.6858305 97.92814 -279.3034 0.685831 95.42814 -278.6335 0.6858309 93.59804 -276.8034 0.6858315 92.92814 -274.3034 0.6858318 93.59804 -271.8034 0.685832 95.42814 -269.9733 0.685832 97.92814 -269.3034 0.6858284 100.4281 -291.6335 0.6858292 97.92814 -287.3034 0.6858289 102.2582 -289.8034 0.6858292 102.9281 -287.3034 0.6858293 102.2582 -284.8034 0.6858298 100.4281 -282.9733 0.6858302 97.92814 -282.3034 0.6858298 95.42814 -282.9733 0.6858293 93.59804 -284.8034 0.6858292 92.92814 -287.3034 0.6858289 93.59804 -289.8034 0.6858284 95.42814 -291.6335 0.6858282 97.92814 -292.3034 -38.41417 326.5062 -497.5733 -38.41417 328.3363 -499.4034 -38.41417 324.0062 -501.9034 -38.41417 329.0062 -501.9034 -38.41417 328.3363 -504.4034 -38.41417 326.5062 -506.2336 -38.41417 324.0062 -506.9034 -38.41417 321.5062 -506.2336 -38.41417 319.6761 -504.4034 -38.41417 319.0062 -501.9034 -38.41417 319.6761 -499.4034 -38.41417 321.5062 -497.5733 -38.41417 324.0062 -496.9034 -38.41417 326.5062 -519.2335 -38.41417 324.0062 -514.9034 -38.41417 328.3363 -517.4034 -38.41417 329.0062 -514.9034 -38.41417 328.3363 -512.4034 -38.41417 326.5062 -510.5733 -38.41417 324.0062 -509.9034 -38.41417 321.5062 -510.5733 -38.41417 319.6761 -512.4034 -38.41417 319.0062 -514.9034 -38.41417 319.6761 -517.4034 -38.41417 321.5062 -519.2335 -38.41417 324.0062 -519.9034 -0.685833 100.4281 269.9733 -0.6858327 102.2582 271.8034 -0.6858321 97.92814 274.3034 -0.6858321 102.9281 274.3034 -0.6858312 102.2582 276.8034 -0.6858312 100.4281 278.6335 -0.6858307 97.92814 279.3034 -0.6858312 95.42814 278.6335 -0.6858312 93.59804 276.8034 -0.6858321 92.92814 274.3034 -0.6858327 93.59804 271.8034 -0.685833 95.42814 269.9733 -0.685833 97.92814 269.3034 -0.6858275 100.4281 291.6335 -0.6858286 97.92814 287.3034 -0.685828 102.2582 289.8034 -0.6858286 102.9281 287.3034 -0.685829 102.2582 284.8034 -0.6858295 100.4281 282.9733 -0.6858301 97.92814 282.3034 -0.6858295 95.42814 282.9733 -0.685829 93.59804 284.8034 -0.6858286 92.92814 287.3034 -0.685828 93.59804 289.8034 -0.6858275 95.42814 291.6335 -0.6858273 97.92814 292.3034 38.41417 326.5061 497.5733 38.41417 328.3362 499.4034 38.41417 324.0061 501.9034 38.41417 329.0061 501.9034 38.41417 328.3362 504.4034 38.41417 326.5061 506.2336 38.41417 324.0061 506.9034 38.41417 321.5061 506.2336 38.41417 319.676 504.4034 38.41417 319.0061 501.9034 38.41417 319.676 499.4034 38.41417 321.5061 497.5733 38.41417 324.0061 496.9034 38.41417 326.5061 519.2335 38.41417 328.3362 517.4034 38.41417 329.0061 514.9034 38.41417 328.3362 512.4034 38.41417 326.5061 510.5733 38.41417 324.0061 509.9034 38.41417 321.5061 510.5733 38.41417 319.676 512.4034 38.41417 319.0061 514.9034 38.41417 319.676 517.4034 38.41417 321.5061 519.2335 38.41417 324.0061 519.9034</float_array>
          <technique_common>
            <accessor source="#Trafficlight4__ObjTrafficlight-position-array" count="310" stride="3">
              <param name="X" type="float" />
              <param name="Y" type="float" />
              <param name="Z" type="float" />
            </accessor>
          </technique_common>
        </source>
        <source id="Trafficlight4__ObjTrafficlight-normal">
          <float_array id="Trafficlight4__ObjTrafficlight-normal-array" count="930">-1 0 0 -1 0 0 -1 0 0 -1 0 0 -1 0 0 -1 0 0 -1 0 0 -1 0 0 -1 0 0 -1 0 0 -1 0 0 -1 0 0 -1 0 0 -1 0 0 -1 0 0 -1 0 0 -1 0 0 -1 0 0 -1 0 0 -1 0 0 -1 0 0 -1 0 0 -1 0 0 -1 0 0 -1 0 0 -1 0 0 -1 0 0 -1 0 0 -1 0 0 -1 0 0 -1 0 0 -1 0 0 -1 0 0 -1 0 0 -1 0 0 -1 0 0 -1 0 0 -1 0 0 -1 0 0 -1 0 0 -1 0 0 -1 0 0 -1 0 0 -1 0 0 -1 0 0 -1 0 0 -1 0 0 -1 0 0 -1 0 0 -1 0 0 -1 0 0 -1 0 0 1 0 0 1 0 0 1 0 0 1 0 0 1 0 0 1 0 0 1 0 0 1 0 0 1 0 0 1 0 0 1 0 0 1 0 0 1 0 0 1 0 0 1 0 0 1 0 0 1 0 0 1 0 0 1 0 0 1 0 0 1 0 0 1 0 0 1 0 0 1 0 0 1 0 0 1 0 0 1 0 0 1 0 0 1 0 0 1 0 0 1 0 0 1 0 0 1 0 0 1 0 0 1 0 0 1 0 0 1 0 0 1 0 0 1 0 0 1 0 0 1 0 0 1 0 0 1 0 0 1 0 0 1 0 0 1 0 0 1 0 0 1 0 0 1 0 0 1 0 0 1 0 0 1 0 0 -1 0 0 -1 0 0 -1 0 0 -1 0 0 -1 0 0 -1 0 0 -1 0 0 -1 0 0 -1 0 0 -1 0 0 -1 0 0 -1 0 0 -1 0 0 -1 0 0 -1 0 0 -1 0 0 -1 0 0 -1 0 0 -1 0 0 -1 0 0 -1 0 0 -1 0 0 -1 0 0 -1 0 0 -1 0 0 -1 0 0 -1 0 0 -1 0 0 -1 0 0 -1 0 0 -1 0 0 -1 0 0 -1 0 0 -1 0 0 -1 0 0 -1 0 0 -1 0 0 -1 0 0 -1 0 0 -1 0 0 -1 0 0 -1 0 0 -1 0 0 -1 0 0 -1 0 0 -1 0 0 -1 0 0 -1 0 0 -1 0 0 -1 0 0 -1 0 0 -1 0 0 1 0 0 1 0 0 1 0 0 1 0 0 1 0 0 1 0 0 1 0 0 1 0 0 1 0 0 1 0 0 1 0 0 1 0 0 1 0 0 1 0 0 1 0 0 1 0 0 1 0 0 1 0 0 1 0 0 1 0 0 1 0 0 1 0 0 1 0 0 1 0 0 1 0 0 1 0 0 1 0 0 1 0 0 1 0 0 1 0 0 1 0 0 1 0 0 1 0 0 1 0 0 1 0 0 1 0 0 1 0 0 1 0 0 1 0 0 1 0 0 1 0 0 1 0 0 1 0 0 1 0 0 1 0 0 1 0 0 1 0 0 1 0 0 1 0 0 1 0 0 1 0 0 -1 0 0 -1 0 0 -1 0 0 -1 0 0 -1 0 0 -1 0 0 -1 0 0 -1 0 0 -1 0 0 -1 0 0 -1 0 0 -1 0 0 -1 0 0 -1 0 0 -1 0 0 -1 0 0 -1 0 0 -1 0 0 -1 0 0 -1 0 0 -1 0 0 -1 0 0 -1 0 0 -1 0 0 -1 0 0 -1 0 0 -1 0 0 -1 0 0 -1 0 0 -1 0 0 -1 0 0 -1 0 0 -1 0 0 -1 0 0 -1 0 0 -1 0 0 -1 0 0 -1 0 0 -1 0 0 -1 0 0 -1 0 0 -1 0 0 -1 0 0 -1 0 0 -1 0 0 -1 0 0 -1 0 0 -1 0 0 -1 0 0 -1 0 0 -1 0 0 -1 0 0 1 0 0 1 0 0 1 0 0 1 0 0 1 0 0 1 0 0 1 0 0 1 0 0 1 0 0 1 0 0 1 0 0 1 0 0 1 0 0 1 0 0 1 0 0 1 0 0 1 0 0 1 0 0 1 0 0 1 0 0 1 0 0 1 0 0 1 0 0 1 0 0 1 0 0 1 0 0 1 0 0 1 0 0 1 0 0 1 0 0 1 0 0 1 0 0 1 0 0 1 0 0 1 0 0 1 0 0 1 0 0 1 0 0 1 0 0 1 0 0 1 0 0 1 0 0 1 0 0 1 0 0 1 0 0 1 0 0 1 0 0 1 0 0 1 0 0 1 0 0 1 0 0</float_array>
          <technique_common>
            <accessor source="#Trafficlight4__ObjTrafficlight-normal-array" count="310" stride="3">
              <param name="X" type="float" />
              <param name="Y" type="float" />
              <param name="Z" type="float" />
            </accessor>
          </technique_common>
        </source>
        <source id="Trafficlight4__ObjTrafficlight-texcoord">
          <float_array id="Trafficlight4__ObjTrafficlight-texcoord-array" count="620">0.3808194 0.6918135 0.3586175 0.7361715 0.3282979 0.6310521 0.3282673 0.7524529 0.2979172 0.7361104 0.2757305 0.6916915 0.2675975 0.6309911 0.275761 0.5703059 0.2979782 0.5259327 0.3283284 0.5096513 0.3586633 0.526009 0.3808499 0.5704128 0.3889982 0.6311132 0.1063859 0.6922713 0.1589838 0.6315252 0.1286641 0.7367666 0.1590295 0.7528344 0.1893492 0.7367055 0.2116121 0.6921645 0.2196231 0.6314489 0.2115816 0.570779 0.1892882 0.5262684 0.1589532 0.5102159 0.128603 0.5263294 0.1063706 0.570901 0.09832913 0.6316015 0.3808194 0.6918135 0.3586175 0.7361715 0.3282979 0.6310521 0.3282673 0.7524529 0.2979172 0.7361104 0.2757305 0.6916915 0.2675975 0.6309911 0.275761 0.5703059 0.2979782 0.5259327 0.3283284 0.5096513 0.3586633 0.526009 0.3808499 0.5704128 0.3889982 0.6311132 0.1063859 0.6922713 0.1589838 0.6315252 0.1286641 0.7367666 0.1590295 0.7528344 0.1893492 0.7367055 0.2116121 0.6921645 0.2196231 0.6314489 0.2115816 0.570779 0.1892882 0.5262684 0.1589532 0.5102159 0.128603 0.5263294 0.1063706 0.570901 0.09832913 0.6316015 0.3808194 0.6918135 0.3586175 0.7361715 0.3282979 0.6310521 0.3282673 0.7524529 0.2979172 0.7361104 0.2757305 0.6916915 0.2675975 0.6309911 0.275761 0.5703059 0.2979782 0.5259327 0.3283284 0.5096513 0.3586633 0.526009 0.3808499 0.5704128 0.3889982 0.6311132 0.1063859 0.6922713 0.1589838 0.6315252 0.1286641 0.7367666 0.1590295 0.7528344 0.1893492 0.7367055 0.2116121 0.6921645 0.2196231 0.6314489 0.2115816 0.570779 0.1892882 0.5262684 0.1589532 0.5102159 0.128603 0.5263294 0.1063706 0.570901 0.09832913 0.6316015 0.3808194 0.6918135 0.3586175 0.7361715 0.3282979 0.6310521 0.3282673 0.7524529 0.2979172 0.7361104 0.2757305 0.6916915 0.2675975 0.6309911 0.275761 0.5703059 0.2979782 0.5259327 0.3283284 0.5096513 0.3586633 0.526009 0.3808499 0.5704128 0.3889982 0.6311132 0.1063859 0.6922713 0.1589838 0.6315252 0.1286641 0.7367666 0.1590295 0.7528344 0.1893492 0.7367055 0.2116121 0.6921645 0.2196231 0.6314489 0.2115816 0.570779 0.1892882 0.5262684 0.1589532 0.5102159 0.128603 0.5263294 0.1063706 0.570901 0.09832913 0.6316015 0.3808194 0.6918135 0.3586175 0.7361715 0.3282979 0.6310521 0.3282673 0.7524529 0.2979172 0.7361104 0.2757305 0.6916915 0.2675975 0.6309911 0.275761 0.5703059 0.2979782 0.5259327 0.3283284 0.5096513 0.3586633 0.526009 0.3808499 0.5704128 0.3889982 0.6311132 0.1063859 0.6922713 0.1589838 0.6315252 0.1286641 0.7367666 0.1590295 0.7528344 0.1893492 0.7367055 0.2116121 0.6921645 0.2196231 0.6314489 0.2115816 0.570779 0.1892882 0.5262684 0.1589532 0.5102159 0.128603 0.5263294 0.1063706 0.570901 0.09832913 0.6316015 0.3808194 0.6918135 0.3586175 0.7361715 0.3282979 0.6310521 0.3282673 0.7524529 0.2979172 0.7361104 0.2757305 0.6916915 0.2675975 0.6309911 0.275761 0.5703059 0.2979782 0.5259327 0.3283284 0.5096513 0.3586633 0.526009 0.3808499 0.5704128 0.3889982 0.6311132 0.1063859 0.6922713 0.1589838 0.6315252 0.1286641 0.7367666 0.1590295 0.7528344 0.1893492 0.7367055 0.2116121 0.6921645 0.2196231 0.6314489 0.2115816 0.570779 0.1892882 0.5262684 0.1589532 0.5102159 0.128603 0.5263294 0.1063706 0.570901 0.09832913 0.6316015 0.3808194 0.6918135 0.3586175 0.7361715 0.3282979 0.6310521 0.3282673 0.7524529 0.2979172 0.7361104 0.2757305 0.6916915 0.2675975 0.6309911 0.275761 0.5703059 0.2979782 0.5259327 0.3283284 0.5096513 0.3586633 0.526009 0.3808499 0.5704128 0.3889982 0.6311132 0.1063859 0.6922713 0.1589838 0.6315252 0.1286641 0.7367666 0.1590295 0.7528344 0.1893492 0.7367055 0.2116121 0.6921645 0.2196231 0.6314489 0.2115816 0.570779 0.1892882 0.5262684 0.1589532 0.5102159 0.128603 0.5263294 0.1063706 0.570901 0.09832913 0.6316015 0.3808194 0.6918135 0.3586175 0.7361715 0.3282979 0.6310521 0.3282673 0.7524529 0.2979172 0.7361104 0.2757305 0.6916915 0.2675975 0.6309911 0.275761 0.5703059 0.2979782 0.5259327 0.3283284 0.5096513 0.3586633 0.526009 0.3808499 0.5704128 0.3889982 0.6311132 0.1063859 0.6922713 0.1286641 0.7367666 0.1590295 0.7528344 0.1893492 0.7367055 0.2116121 0.6921645 0.2196231 0.6314489 0.2115816 0.570779 0.1892882 0.5262684 0.1589532 0.5102159 0.128603 0.5263294 0.1063706 0.570901 0.09832913 0.6316015 0.3808194 0.6918135 0.3586175 0.7361715 0.3282979 0.6310521 0.3282673 0.7524529 0.2979172 0.7361104 0.2757305 0.6916915 0.2675975 0.6309911 0.275761 0.5703059 0.2979782 0.5259327 0.3283284 0.5096513 0.3586633 0.526009 0.3808499 0.5704128 0.3889982 0.6311132 0.1063859 0.6922713 0.1589838 0.6315252 0.1286641 0.7367666 0.1590295 0.7528344 0.1893492 0.7367055 0.2116121 0.6921645 0.2196231 0.6314489 0.2115816 0.570779 0.1892882 0.5262684 0.1589532 0.5102159 0.128603 0.5263294 0.1063706 0.570901 0.09832913 0.6316015 0.3808194 0.6918135 0.3586175 0.7361715 0.3282979 0.6310521 0.3282673 0.7524529 0.2979172 0.7361104 0.2757305 0.6916915 0.2675975 0.6309911 0.275761 0.5703059 0.2979782 0.5259327 0.3283284 0.5096513 0.3586633 0.526009 0.3808499 0.5704128 0.3889982 0.6311132 0.1063859 0.6922713 0.1589838 0.6315252 0.1286641 0.7367666 0.1590295 0.7528344 0.1893492 0.7367055 0.2116121 0.6921645 0.2196231 0.6314489 0.2115816 0.570779 0.1892882 0.5262684 0.1589532 0.5102159 0.128603 0.5263294 0.1063706 0.570901 0.09832913 0.6316015 0.3808194 0.6918135 0.3586175 0.7361715 0.3282979 0.6310521 0.3282673 0.7524529 0.2979172 0.7361104 0.2757305 0.6916915 0.2675975 0.6309911 0.275761 0.5703059 0.2979782 0.5259327 0.3283284 0.5096513 0.3586633 0.526009 0.3808499 0.5704128 0.3889982 0.6311132 0.1063859 0.6922713 0.1589838 0.6315252 0.1286641 0.7367666 0.1590295 0.7528344 0.1893492 0.7367055 0.2116121 0.6921645 0.2196231 0.6314489 0.2115816 0.570779 0.1892882 0.5262684 0.1589532 0.5102159 0.128603 0.5263294 0.1063706 0.570901 0.09832913 0.6316015 0.3808194 0.6918135 0.3586175 0.7361715 0.3282979 0.6310521 0.3282673 0.7524529 0.2979172 0.7361104 0.2757305 0.6916915 0.2675975 0.6309911 0.275761 0.5703059 0.2979782 0.5259327 0.3283284 0.5096513 0.3586633 0.526009 0.3808499 0.5704128 0.3889982 0.6311132 0.1063859 0.6922713 0.1286641 0.7367666 0.1590295 0.7528344 0.1893492 0.7367055 0.2116121 0.6921645 0.2196231 0.6314489 0.2115816 0.570779 0.1892882 0.5262684 0.1589532 0.5102159 0.128603 0.5263294 0.1063706 0.570901 0.09832913 0.6316015</float_array>
          <technique_common>
            <accessor source="#Trafficlight4__ObjTrafficlight-texcoord-array" count="310" stride="2">
              <param name="S" type="float" />
              <param name="T" type="float" />
            </accessor>
          </technique_common>
        </source>
        <vertices id="Trafficlight4__ObjTrafficlight-vertex">
          <input semantic="POSITION" source="#Trafficlight4__ObjTrafficlight-position" />
        </vertices>
        <triangles material="ObjTrafficlight" count="96">
          <input semantic="VERTEX" source="#Trafficlight4__ObjTrafficlight-vertex" offset="0" />
          <input semantic="NORMAL" source="#Trafficlight4__ObjTrafficlight-normal" offset="1" />
          <input semantic="TEXCOORD" source="#Trafficlight4__ObjTrafficlight-texcoord" offset="2" set="0" />
          <p>15 15 15 14 14 14 16 16 16 13 13 13 14 14 14 15 15 15 24 24 24 14 14 14 25 25 25 23 23 23 14 14 14 24 24 24 25 25 25 14 14 14 13 13 13 22 22 22 14 14 14 23 23 23 16 16 16 14 14 14 17 17 17 19 19 19 14 14 14 20 20 20 17 17 17 14 14 14 18 18 18 20 20 20 14 14 14 21 21 21 21 21 21 14 14 14 22 22 22 18 18 18 14 14 14 19 19 19 4 4 4 5 5 5 2 2 2 5 5 5 6 6 6 2 2 2 6 6 6 7 7 7 2 2 2 3 3 3 4 4 4 2 2 2 8 8 8 9 9 9 2 2 2 7 7 7 8 8 8 2 2 2 1 1 1 3 3 3 2 2 2 0 0 0 1 1 1 2 2 2 9 9 9 10 10 10 2 2 2 10 10 10 11 11 11 2 2 2 11 11 11 12 12 12 2 2 2 12 12 12 0 0 0 2 2 2 61 61 61 62 62 62 54 54 54 62 62 62 63 63 63 54 54 54 52 52 52 53 53 53 54 54 54 64 64 64 52 52 52 54 54 54 63 63 63 64 64 64 54 54 54 53 53 53 55 55 55 54 54 54 55 55 55 56 56 56 54 54 54 60 60 60 61 61 61 54 54 54 56 56 56 57 57 57 54 54 54 57 57 57 58 58 58 54 54 54 58 58 58 59 59 59 54 54 54 59 59 59 60 60 60 54 54 54 68 68 68 66 66 66 69 69 69 69 69 69 66 66 66 70 70 70 70 70 70 66 66 66 71 71 71 71 71 71 66 66 66 72 72 72 73 73 73 66 66 66 74 74 74 72 72 72 66 66 66 73 73 73 65 65 65 66 66 66 67 67 67 74 74 74 66 66 66 75 75 75 77 77 77 66 66 66 65 65 65 75 75 75 66 66 66 76 76 76 67 67 67 66 66 66 68 68 68 76 76 76 66 66 66 77 77 77 48 48 48 40 40 40 49 49 49 41 41 41 40 40 40 42 42 42 39 39 39 40 40 40 41 41 41 50 50 50 40 40 40 51 51 51 49 49 49 40 40 40 50 50 50 51 51 51 40 40 40 39 39 39 47 47 47 40 40 40 48 48 48 45 45 45 40 40 40 46 46 46 43 43 43 40 40 40 44 44 44 46 46 46 40 40 40 47 47 47 42 42 42 40 40 40 43 43 43 44 44 44 40 40 40 45 45 45 31 31 31 32 32 32 28 28 28 32 32 32 33 33 33 28 28 28 33 33 33 34 34 34 28 28 28 34 34 34 35 35 35 28 28 28 30 30 30 31 31 31 28 28 28 29 29 29 30 30 30 28 28 28 26 26 26 27 27 27 28 28 28 37 37 37 38 38 38 28 28 28 36 36 36 37 37 37 28 28 28 35 35 35 36 36 36 28 28 28 27 27 27 29 29 29 28 28 28 38 38 38 26 26 26 28 28 28 89 89 89 90 90 90 80 80 80 90 90 90 78 78 78 80 80 80 79 79 79 81 81 81 80 80 80 88 88 88 89 89 89 80 80 80 87 87 87 88 88 88 80 80 80 78 78 78 79 79 79 80 80 80 85 85 85 86 86 86 80 80 80 82 82 82 83 83 83 80 80 80 81 81 81 82 82 82 80 80 80 86 86 86 87 87 87 80 80 80 84 84 84 85 85 85 80 80 80 83 83 83 84 84 84 80 80 80 97 97 97 92 92 92 98 98 98 95 95 95 92 92 92 96 96 96 96 96 96 92 92 92 97 97 97 98 98 98 92 92 92 99 99 99 99 99 99 92 92 92 100 100 100 94 94 94 92 92 92 95 95 95 93 93 93 92 92 92 94 94 94 91 91 91 92 92 92 93 93 93 102 102 102 92 92 92 103 103 103 101 101 101 92 92 92 102 102 102 100 100 100 92 92 92 101 101 101 103 103 103 92 92 92 91 91 91 </p>
        </triangles>
      </mesh>
    </geometry>
  </library_geometries>
  <library_controllers>
    <controller id="Armature_Trafficlight4__ObjTrafficlight-mesh">
      <skin source="#Trafficlight4__ObjTrafficlight-mesh">
        <bind_shape_matrix>1 0 0 0 0 1 0 0 0 0 1 0 0 0 0 1</bind_shape_matrix>
        <source id="Trafficlight4__ObjTrafficlight-mesh-joint">
          <Name_array id="Trafficlight4__ObjTrafficlight-mesh-joint-array" count="1">Fld_Tuzura00_Trafficlight</Name_array>
          <technique_common>
            <accessor source="#Trafficlight4__ObjTrafficlight-mesh-joint-array" count="1" stride="1">
              <param name="JOINT" type="name" />
            </accessor>
          </technique_common>
        </source>
        <source id="Trafficlight4__ObjTrafficlight-mesh-inv_bind_matrix">
          <float_array id="Trafficlight4__ObjTrafficlight-mesh-inv_bind_matrix-array" count="16">1 0 0 0 0 1 0 0 0 0 1 0 0 0 0 1</float_array>
          <technique_common>
            <accessor source="#Trafficlight4__ObjTrafficlight-mesh-inv_bind_matrix-array" count="1" stride="16">
              <param name="TRANSFORM" type="float4x4" />
            </accessor>
          </technique_common>
        </source>
        <source id="Trafficlight4__ObjTrafficlight-mesh-weight">
          <float_array id="Trafficlight4__ObjTrafficlight-mesh-weight-array" count="1">1</float_array>
          <technique_common>
            <accessor source="#Trafficlight4__ObjTrafficlight-mesh-weight-array" count="1" stride="1">
              <param name="WEIGHT" type="float" />
            </accessor>
          </technique_common>
        </source>
        <joints>
          <input semantic="JOINT" source="#Trafficlight4__ObjTrafficlight-mesh-joint" />
          <input semantic="INV_BIND_MATRIX" source="#Trafficlight4__ObjTrafficlight-mesh-inv_bind_matrix" />
        </joints>
        <vertex_weights count="310">
          <input semantic="JOINT" source="#Trafficlight4__ObjTrafficlight-mesh-joint" offset="0" />
          <input semantic="WEIGHT" source="#Trafficlight4__ObjTrafficlight-mesh-weight" offset="1" />
          <vcount>1 1 1 1 1 1 1 1 1 1 1 1 1 1 1 1 1 1 1 1 1 1 1 1 1 1 1 1 1 1 1 1 1 1 1 1 1 1 1 1 1 1 1 1 1 1 1 1 1 1 1 1 1 1 1 1 1 1 1 1 1 1 1 1 1 1 1 1 1 1 1 1 1 1 1 1 1 1 1 1 1 1 1 1 1 1 1 1 1 1 1 1 1 1 1 1 1 1 1 1 1 1 1 1 1 1 1 1 1 1 1 1 1 1 1 1 1 1 1 1 1 1 1 1 1 1 1 1 1 1 1 1 1 1 1 1 1 1 1 1 1 1 1 1 1 1 1 1 1 1 1 1 1 1 1 1 1 1 1 1 1 1 1 1 1 1 1 1 1 1 1 1 1 1 1 1 1 1 1 1 1 1 1 1 1 1 1 1 1 1 1 1 1 1 1 1 1 1 1 1 1 1 1 1 1 1 1 1 1 1 1 1 1 1 1 1 1 1 1 1 1 1 1 1 1 1 1 1 1 1 1 1 1 1 1 1 1 1 1 1 1 1 1 1 1 1 1 1 1 1 1 1 1 1 1 1 1 1 1 1 1 1 1 1 1 1 1 1 1 1 1 1 1 1 1 1 1 1 1 1 1 1 1 1 1 1 1 1 1 1 1 1 1 1 1 1 1 1 1 1 1 1 1 1 1 1 1 1 1 1 </vcount>
          <v>0 0 0 0 0 0 0 0 0 0 0 0 0 0 0 0 0 0 0 0 0 0 0 0 0 0 0 0 0 0 0 0 0 0 0 0 0 0 0 0 0 0 0 0 0 0 0 0 0 0 0 0 0 0 0 0 0 0 0 0 0 0 0 0 0 0 0 0 0 0 0 0 0 0 0 0 0 0 0 0 0 0 0 0 0 0 0 0 0 0 0 0 0 0 0 0 0 0 0 0 0 0 0 0 0 0 0 0 0 0 0 0 0 0 0 0 0 0 0 0 0 0 0 0 0 0 0 0 0 0 0 0 0 0 0 0 0 0 0 0 0 0 0 0 0 0 0 0 0 0 0 0 0 0 0 0 0 0 0 0 0 0 0 0 0 0 0 0 0 0 0 0 0 0 0 0 0 0 0 0 0 0 0 0 0 0 0 0 0 0 0 0 0 0 0 0 0 0 0 0 0 0 0 0 0 0 0 0 0 0 0 0 0 0 0 0 0 0 0 0 0 0 0 0 0 0 0 0 0 0 0 0 0 0 0 0 0 0 0 0 0 0 0 0 0 0 0 0 0 0 0 0 0 0 0 0 0 0 0 0 0 0 0 0 0 0 0 0 0 0 0 0 0 0 0 0 0 0 0 0 0 0 0 0 0 0 0 0 0 0 0 0 0 0 0 0 0 0 0 0 0 0 0 0 0 0 0 0 0 0 0 0 0 0 0 0 0 0 0 0 0 0 0 0 0 0 0 0 0 0 0 0 0 0 0 0 0 0 0 0 0 0 0 0 0 0 0 0 0 0 0 0 0 0 0 0 0 0 0 0 0 0 0 0 0 0 0 0 0 0 0 0 0 0 0 0 0 0 0 0 0 0 0 0 0 0 0 0 0 0 0 0 0 0 0 0 0 0 0 0 0 0 0 0 0 0 0 0 0 0 0 0 0 0 0 0 0 0 0 0 0 0 0 0 0 0 0 0 0 0 0 0 0 0 0 0 0 0 0 0 0 0 0 0 0 0 0 0 0 0 0 0 0 0 0 0 0 0 0 0 0 0 0 0 0 0 0 0 0 0 0 0 0 0 0 0 0 0 0 0 0 0 0 0 0 0 0 0 0 0 0 0 0 0 0 0 0 0 0 0 0 0 0 0 0 0 0 0 0 0 0 0 0 0 0 0 0 0 0 0 0 0 0 0 0 0 0 0 0 0 0 0 0 0 0 0 0 0 0 0 0 0 0 0 0 0 0 0 0 0 0 0 0 0 0 0 0 0 0 0 0 0 0 0 0 0 0 0 0 0 0 0 0 0 0 0 0 0 0 0 0 0 0 0 0 0 0 0 0 0 0 0 0 0 0 0 0 0 0 0 0 0 0 0 0 0 0 0 0 0 0 0 0 0 0 0 0 0 0 0 </v>
        </vertex_weights>
      </skin>
    </controller>
  </library_controllers>
  <library_visual_scenes>
    <visual_scene id="Scene" name="Scene">
      <node id="Armature" name="Armature" type="NODE">
        <matrix sid="transform">1 0 0 0 0 1 0 0 0 0 1 0 0 0 0 1</matrix>
        <node id="Armature_Fld_Tuzura00_Trafficlight" name="Fld_Tuzura00_Trafficlight" sid="Fld_Tuzura00_Trafficlight" type="JOINT">
          <matrix sid="transform">1 0 0 0 0 1 0 0 0 0 1 0 0 0 0 1</matrix>
        </node>
      </node>
      <node id="Trafficlight4__ObjTrafficlight" name="Trafficlight4__ObjTrafficlight" type="NODE">
        <instance_controller url="#Armature_Trafficlight4__ObjTrafficlight-mesh">
          <skeleton>#Armature_Fld_Tuzura00_Trafficlight</skeleton>
          <bind_material>
            <technique_common>
              <instance_material symbol="ObjTrafficlight" target="#ObjTrafficlight" />
              <bind_vertex_input semantic="CHANNEL0" input_semantic="TEXCOORD" input_set="0" />
              <bind_vertex_input semantic="CHANNEL1" input_semantic="TEXCOORD" input_set="1" />
              <bind_vertex_input semantic="CHANNEL2" input_semantic="TEXCOORD" input_set="2" />
            </technique_common>
          </bind_material>
        </instance_controller>
      </node>
    </visual_scene>
  </library_visual_scenes>
  <scene>
    <instance_visual_scene url="#Scene" />
  </scene>
</COLLADA>