<?xml version="1.0" encoding="utf-8"?>
<COLLADA xmlns="http://www.collada.org/2005/11/COLLADASchema" version="1.4.1">
  <asset />
  <library_images>
    <image id="SeaWaterBasic_Alb">
      <init_from>SeaWaterBasic_Alb.png</init_from>
    </image>
    <image id="SeaWaterBasic_Nrm">
      <init_from>SeaWaterBasic_Nrm.png</init_from>
    </image>
  </library_images>
  <library_materials>
    <material id="SeaWaterBasic">
      <instance_effect url="#Effect_SeaWaterBasic" />
    </material>
    <material id="SeaWaterBasic_va">
      <instance_effect url="#Effect_SeaWaterBasic_va" />
    </material>
  </library_materials>
  <library_effects>
    <effect id="Effect_SeaWaterBasic">
      <profile_COMMON>
        <newparam sid="surface_SeaWaterBasic-diffuse">
          <surface type="2D">
            <init_from>SeaWaterBasic_Alb</init_from>
            <format>A8R8G8B8</format>
          </surface>
        </newparam>
        <newparam sid="sampler_SeaWaterBasic-diffuse">
          <sampler2D>
            <source>surface_SeaWaterBasic-diffuse</source>
            <wrap_s>WRAP</wrap_s>
            <wrap_t>WRAP</wrap_t>
          </sampler2D>
        </newparam>
        <newparam sid="surface_SeaWaterBasic-bump">
          <surface type="2D">
            <init_from>SeaWaterBasic_Nrm</init_from>
            <format>A8R8G8B8</format>
          </surface>
        </newparam>
        <newparam sid="sampler_SeaWaterBasic-bump">
          <sampler2D>
            <source>surface_SeaWaterBasic-bump</source>
            <wrap_s>WRAP</wrap_s>
            <wrap_t>WRAP</wrap_t>
          </sampler2D>
        </newparam>
        <technique sid="common">
          <phong>
            <diffuse>
              <texture texture="sampler_SeaWaterBasic-diffuse" texcoord="CHANNEL0" />
            </diffuse>
            <bump>
              <texture texture="sampler_SeaWaterBasic-bump" texcoord="CHANNEL0" />
            </bump>
            <emission>
              <color sid="emission">0 0 0 1</color>
            </emission>
            <specular>
              <color sid="specular">0 0 0 1</color>
            </specular>
          </phong>
        </technique>
      </profile_COMMON>
    </effect>
    <effect id="Effect_SeaWaterBasic_va">
      <profile_COMMON>
        <newparam sid="surface_SeaWaterBasic_va-diffuse">
          <surface type="2D">
            <init_from>SeaWaterBasic_Alb</init_from>
            <format>A8R8G8B8</format>
          </surface>
        </newparam>
        <newparam sid="sampler_SeaWaterBasic_va-diffuse">
          <sampler2D>
            <source>surface_SeaWaterBasic_va-diffuse</source>
            <wrap_s>WRAP</wrap_s>
            <wrap_t>WRAP</wrap_t>
          </sampler2D>
        </newparam>
        <newparam sid="surface_SeaWaterBasic_va-bump">
          <surface type="2D">
            <init_from>SeaWaterBasic_Nrm</init_from>
            <format>A8R8G8B8</format>
          </surface>
        </newparam>
        <newparam sid="sampler_SeaWaterBasic_va-bump">
          <sampler2D>
            <source>surface_SeaWaterBasic_va-bump</source>
            <wrap_s>WRAP</wrap_s>
            <wrap_t>WRAP</wrap_t>
          </sampler2D>
        </newparam>
        <technique sid="common">
          <phong>
            <diffuse>
              <texture texture="sampler_SeaWaterBasic_va-diffuse" texcoord="CHANNEL0" />
            </diffuse>
            <bump>
              <texture texture="sampler_SeaWaterBasic_va-bump" texcoord="CHANNEL0" />
            </bump>
            <emission>
              <color sid="emission">0 0 0 1</color>
            </emission>
            <specular>
              <color sid="specular">0 0 0 1</color>
            </specular>
          </phong>
        </technique>
      </profile_COMMON>
    </effect>
  </library_effects>
  <library_geometries>
    <geometry id="Sea__SeaWaterBasic-mesh" name="Sea__SeaWaterBasic">
      <mesh>
        <source id="Sea__SeaWaterBasic-position">
          <float_array id="Sea__SeaWaterBasic-position-array" count="276">-4787 -600 -5007 -2961.273 -600 -6774.422 -5072 -600 -5173 -2688.947 -600 -5877.893 -4535.42 -600 -4768.309 -5627.25 -600 -5326.76 -4344.135 -600 -6913.054 -2292.774 -600 -5120.308 -3839.42 -600 -3466.194 -2648.274 -600 -3466.194 -2706.274 -600 -1975.465 -3839.42 -600 -1975.465 -3146.255 -600 2468.787 -4260.096 -600 2425.01 -2975.244 -600 4267.201 -4059.58 -600 4627.076 -3428.868 -600 5600.361 -2591.965 -600 4979.73 -2025.252 -600 5531.617 -2614.72 -600 6413.003 -1150.383 -600 7067.961 -872.7863 -600 6010.51 373.9511 -600 7242.919 499.9218 -600 6140.646 2458.172 -600 6838.476 2146.602 -600 5841.556 4291.532 -600 6046.36 3798.697 -600 4991.292 -4344.135 -600 -6913.054 -4232.884 -600 -7732.947 -6414.376 -600 -8545.051 -8661.086 -600 -6128.899 -8046.699 -600 -4477.493 -10315.33 -600 -3175.85 -8945.328 -600 -3175.85 -4232.884 -600 -7732.947 -3420.85 -600 -10070.33 -6414.376 -600 -8545.051 -2702.743 -600 -8363.674 -1101.886 -600 -10159.68 -5627.25 -600 -5326.76 -4344.135 -600 -6913.054 -8046.699 -600 -4477.493 -2832.01 -600 -7603.373 -2702.743 -600 -8363.674 -4232.884 -600 -7732.947 -8046.699 -600 -4477.493 -10315.33 -600 -3175.85 -8945.328 -600 -3175.85 -8661.086 -600 -6128.899 -6414.376 -600 -8545.051 -4344.135 -600 -6913.054 -4232.884 -600 -7732.947 -8046.699 -600 -4477.493 -5627.25 -600 -5326.76 -6414.376 -600 -8545.051 -4344.135 -600 -6913.054 -4232.884 -600 -7732.947 -3420.85 -600 -10070.33 -2702.743 -600 -8363.674 -1101.886 -600 -10159.68 -4232.884 -600 -7732.947 -2832.01 -600 -7603.373 -2702.743 -600 -8363.674 -4344.135 -600 -6913.054 -5627.25 -600 -5326.76 -2961.273 -600 -6774.422 -5072 -600 -5173 -4787 -600 -5007 -2688.947 -600 -5877.893 -4535.42 -600 -4768.309 -2292.774 -600 -5120.308 -3839.42 -600 -3466.194 -2648.274 -600 -3466.194 -2706.274 -600 -1975.465 -3839.42 -600 -1975.465 -3146.255 -600 2468.787 -4260.096 -600 2425.01 -2975.244 -600 4267.201 -4059.58 -600 4627.076 -3428.868 -600 5600.361 -2591.965 -600 4979.73 -2025.252 -600 5531.617 -2614.72 -600 6413.003 -1150.383 -600 7067.961 -872.7863 -600 6010.51 373.9511 -600 7242.919 499.9218 -600 6140.646 2458.172 -600 6838.476 2146.602 -600 5841.556 4291.532 -600 6046.36 3798.697 -600 4991.292</float_array>
          <technique_common>
            <accessor source="#Sea__SeaWaterBasic-position-array" count="92" stride="3">
              <param name="X" type="float" />
              <param name="Y" type="float" />
              <param name="Z" type="float" />
            </accessor>
          </technique_common>
        </source>
        <source id="Sea__SeaWaterBasic-normal">
          <float_array id="Sea__SeaWaterBasic-normal-array" count="276">0 1 0 0 1 0 0 1 0 0 1 0 0 1 0 0 1 0 0 1 0 0 1 0 0 1 0 0 1 0 0 1 0 0 1 0 0 1 0 0 1 0 0 1 0 0 1 0 0 1 0 0 1 0 0 1 0 0 1 0 0 1 0 0 1 0 0 1 0 0 1 0 0 1 0 0 1 0 0 1 0 0 1 0 0 1 0 0 1 0 0 1 0 0 1 0 0 1 0 0 1 0 0 1 0 0 1 0 0 1 0 0 1 0 0 1 0 0 1 0 0 1 0 0 1 0 0 1 0 0 1 0 0 1 0 0 1 0 0 1 0 0 1 0 0 1 0 0 1 0 0 1 0 0 1 0 0 1 0 0 1 0 0 1 0 0 1 0 0 1 0 0 1 0 0 1 0 0 1 0 0 1 0 0 1 0 0 1 0 0 1 0 0 1 0 0 1 0 0 1 0 0 1 0 0 1 0 0 1 0 0 1 0 0 1 0 0 1 0 0 1 0 0 1 0 0 1 0 0 1 0 0 1 0 0 1 0 0 1 0 0 1 0 0 1 0 0 1 0 0 1 0 0 1 0 0 1 0 0 1 0 0 1 0 0 1 0 0 1 0 0 1 0 0 1 0</float_array>
          <technique_common>
            <accessor source="#Sea__SeaWaterBasic-normal-array" count="92" stride="3">
              <param name="X" type="float" />
              <param name="Y" type="float" />
              <param name="Z" type="float" />
            </accessor>
          </technique_common>
        </source>
        <source id="Sea__SeaWaterBasic-color">
          <float_array id="Sea__SeaWaterBasic-color-array" count="368">1 1 1 1 0.9372549 0.9372549 0.9372549 1 1 1 1 1 0.9058824 0.9058824 0.9058824 1 1 1 1 1 1 1 1 1 0.9647059 0.9647059 0.9647059 1 0.8745098 0.8745098 0.8745098 1 1 1 1 1 0.8117647 0.8117647 0.8117647 1 0.7490196 0.7490196 0.7490196 1 1 1 1 1 0.6627451 0.6627451 0.6627451 1 1 1 1 1 0.6901961 0.6901961 0.6901961 1 1 1 1 1 1 1 1 1 0.7647059 0.7647059 0.7647059 1 0.8431373 0.8431373 0.8431373 1 1 1 1 1 1 1 1 1 0.8823529 0.8823529 0.8823529 1 1 1 1 1 0.9215686 0.9215686 0.9215686 1 1 1 1 1 0.9607843 0.9607843 0.9607843 1 1 1 1 1 1 1 1 1 0.9647059 0.9647059 0.9647059 1 0.9568627 0.9568627 0.9568627 1 0.9882353 0.9882353 0.9882353 1 1 1 1 1 1 1 1 1 1 1 1 1 1 1 1 1 0.9568627 0.9568627 0.9568627 1 0.9647059 0.9647059 0.9647059 1 0.9882353 0.9882353 0.9882353 1 0.9490196 0.9490196 0.9490196 1 0.9647059 0.9647059 0.9647059 1 1 1 1 1 0.9647059 0.9647059 0.9647059 1 1 1 1 1 0.945098 0.945098 0.945098 1 0.9490196 0.9490196 0.9490196 1 0.9568627 0.9568627 0.9568627 1 1 1 1 1 1 1 1 1 1 1 1 1 1 1 1 1 0.9882353 0.9882353 0.9882353 1 0.9647059 0.9647059 0.9647059 1 0.9568627 0.9568627 0.9568627 1 1 1 1 1 1 1 1 1 0.9882353 0.9882353 0.9882353 1 0.9647059 0.9647059 0.9647059 1 0.9568627 0.9568627 0.9568627 1 0.9647059 0.9647059 0.9647059 1 0.9490196 0.9490196 0.9490196 1 0.9647059 0.9647059 0.9647059 1 0.9568627 0.9568627 0.9568627 1 0.945098 0.945098 0.945098 1 0.9490196 0.9490196 0.9490196 1 0.9647059 0.9647059 0.9647059 1 1 1 1 1 0.9372549 0.9372549 0.9372549 1 1 1 1 1 1 1 1 1 0.9058824 0.9058824 0.9058824 1 1 1 1 1 0.8745098 0.8745098 0.8745098 1 1 1 1 1 0.8117647 0.8117647 0.8117647 1 0.7490196 0.7490196 0.7490196 1 1 1 1 1 0.6627451 0.6627451 0.6627451 1 1 1 1 1 0.6901961 0.6901961 0.6901961 1 1 1 1 1 1 1 1 1 0.7647059 0.7647059 0.7647059 1 0.8431373 0.8431373 0.8431373 1 1 1 1 1 1 1 1 1 0.8823529 0.8823529 0.8823529 1 1 1 1 1 0.9215686 0.9215686 0.9215686 1 1 1 1 1 0.9607843 0.9607843 0.9607843 1 1 1 1 1 1 1 1 1</float_array>
          <technique_common>
            <accessor source="#Sea__SeaWaterBasic-color-array" count="92" stride="4">
              <param name="R" type="float" />
              <param name="G" type="float" />
              <param name="B" type="float" />
              <param name="A" type="float" />
            </accessor>
          </technique_common>
        </source>
        <source id="Sea__SeaWaterBasic-texcoord">
          <float_array id="Sea__SeaWaterBasic-texcoord-array" count="184">5.386719 2.916992 6.765625 1.54248 5.511719 3.134766 6.074219 1.323486 5.203125 2.722656 5.628906 3.558594 6.863281 2.598633 5.492188 1.011131 4.207031 2.185547 4.210938 1.261963 3.058594 1.287598 3.058594 2.179688 -0.4379883 1.633789 -0.4035645 2.510742 -1.853516 1.499512 -2.136719 2.352539 -2.902344 1.856445 -2.414063 1.197754 -2.847656 0.7518311 -3.541016 1.215698 -4.054688 0.06347656 -3.224609 -0.1552734 -4.195313 -1.134766 -3.328125 -1.234375 -3.876953 -2.775391 -3.091797 -2.53125 -3.253906 -4.21875 -2.421875 -3.832031 -0.465332 0.1005859 0.2337646 0.07617188 0.7099609 1.682129 -0.9511719 3.498047 -2.271484 2.876953 -3.277344 4.669922 -3.296875 3.580078 0.6757813 0.6936035 2.625 -0.0078125 1.199219 2.459961 1.213867 -0.5703125 2.978516 -1.876953 -1.144531 2.268555 -0.09283447 0.720459 -2.080078 3.773438 0.6782227 0.5439453 1.277344 0.453125 0.769043 1.632324 -2.271484 2.876953 -3.277344 4.669922 -3.296875 3.580078 -0.9511719 3.498047 0.7099609 1.682129 -0.465332 0.1005859 0.2337646 0.07617188 -2.080078 3.773438 -1.144531 2.268555 1.199219 2.459961 -0.09283447 0.720459 0.6757813 0.6936035 2.625 -0.0078125 1.213867 -0.5703125 2.978516 -1.876953 0.769043 1.632324 0.6782227 0.5439453 1.277344 0.453125 6.863281 2.598633 5.628906 3.558594 6.765625 1.54248 5.511719 3.134766 5.386719 2.916992 6.074219 1.323486 5.203125 2.722656 5.492188 1.011131 4.207031 2.185547 4.210938 1.261963 3.058594 1.287598 3.058594 2.179688 -0.4379883 1.633789 -0.4035645 2.510742 -1.853516 1.499512 -2.136719 2.352539 -2.902344 1.856445 -2.414063 1.197754 -2.847656 0.7518311 -3.541016 1.215698 -4.054688 0.06347656 -3.224609 -0.1552734 -4.195313 -1.134766 -3.328125 -1.234375 -3.876953 -2.775391 -3.091797 -2.53125 -3.253906 -4.21875 -2.421875 -3.832031</float_array>
          <technique_common>
            <accessor source="#Sea__SeaWaterBasic-texcoord-array" count="92" stride="2">
              <param name="S" type="float" />
              <param name="T" type="float" />
            </accessor>
          </technique_common>
        </source>
        <vertices id="Sea__SeaWaterBasic-vertex">
          <input semantic="POSITION" source="#Sea__SeaWaterBasic-position" />
        </vertices>
        <triangles material="SeaWaterBasic" count="36">
          <input semantic="VERTEX" source="#Sea__SeaWaterBasic-vertex" offset="0" />
          <input semantic="NORMAL" source="#Sea__SeaWaterBasic-normal" offset="1" />
          <input semantic="COLOR" source="#Sea__SeaWaterBasic-color" offset="2" set="0" />
          <input semantic="TEXCOORD" source="#Sea__SeaWaterBasic-texcoord" offset="3" set="0" />
          <p>0 0 0 0 1 1 1 1 2 2 2 2 0 0 0 0 3 3 3 3 1 1 1 1 0 0 0 0 4 4 4 4 3 3 3 3 2 2 2 2 1 1 1 1 5 5 5 5 1 1 1 1 6 6 6 6 5 5 5 5 3 3 3 3 4 4 4 4 7 7 7 7 4 4 4 4 8 8 8 8 7 7 7 7 7 7 7 7 8 8 8 8 9 9 9 9 8 8 8 8 10 10 10 10 9 9 9 9 8 8 8 8 11 11 11 11 10 10 10 10 10 10 10 10 11 11 11 11 12 12 12 12 11 11 11 11 13 13 13 13 12 12 12 12 12 12 12 12 13 13 13 13 14 14 14 14 13 13 13 13 15 15 15 15 14 14 14 14 14 14 14 14 15 15 15 15 16 16 16 16 14 14 14 14 16 16 16 16 17 17 17 17 16 16 16 16 18 18 18 18 17 17 17 17 16 16 16 16 19 19 19 19 18 18 18 18 18 18 18 18 19 19 19 19 20 20 20 20 18 18 18 18 20 20 20 20 21 21 21 21 20 20 20 20 22 22 22 22 21 21 21 21 21 21 21 21 22 22 22 22 23 23 23 23 22 22 22 22 24 24 24 24 23 23 23 23 23 23 23 23 24 24 24 24 25 25 25 25 24 24 24 24 26 26 26 26 25 25 25 25 25 25 25 25 26 26 26 26 27 27 27 27 28 28 28 28 29 29 29 29 30 30 30 30 30 30 30 30 31 31 31 31 32 32 32 32 31 31 31 31 33 33 33 33 32 32 32 32 32 32 32 32 33 33 33 33 34 34 34 34 35 35 35 35 36 36 36 36 37 37 37 37 35 35 35 35 38 38 38 38 36 36 36 36 36 36 36 36 38 38 38 38 39 39 39 39 37 37 37 37 40 40 40 40 41 41 41 41 37 37 37 37 42 42 42 42 40 40 40 40 43 43 43 43 44 44 44 44 45 45 45 45 </p>
        </triangles>
      </mesh>
    </geometry>
    <geometry id="Sea__SeaWaterBasic_va-mesh" name="Sea__SeaWaterBasic_va">
      <mesh>
        <source id="Sea__SeaWaterBasic_va-position">
          <float_array id="Sea__SeaWaterBasic_va-position-array" count="108">-11842.19 -600 -8386.886 -13903.34 -600 -4341.661 -9704.424 -600 -6833.706 -11390.24 -600 -3525.11 -8631.886 -600 -11597.19 -7078.706 -600 -9459.424 -4586.661 -600 -13658.34 -3770.11 -600 -11145.24 3565.112 -600 -11145.24 4381.663 -600 -13658.34 -102.499 -600 -11726.13 -102.4991 -600 -14368.56 -10315.33 -600 -3175.85 -8661.086 -600 -6128.899 -6414.376 -600 -8545.051 -3420.85 -600 -10070.33 2932.728 -600 -8973.136 -1101.886 -600 -10159.68 -11842.19 -600 -8386.886 -13903.34 -600 -4341.661 -9704.424 -600 -6833.706 -11390.24 -600 -3525.11 -8631.886 -600 -11597.19 -7078.706 -600 -9459.424 -4586.661 -600 -13658.34 -3770.11 -600 -11145.24 3565.112 -600 -11145.24 4381.663 -600 -13658.34 -102.499 -600 -11726.13 -102.4991 -600 -14368.56 -10315.33 -600 -3175.85 -8661.086 -600 -6128.899 -6414.376 -600 -8545.051 -3420.85 -600 -10070.33 2932.728 -600 -8973.136 -1101.886 -600 -10159.68</float_array>
          <technique_common>
            <accessor source="#Sea__SeaWaterBasic_va-position-array" count="36" stride="3">
              <param name="X" type="float" />
              <param name="Y" type="float" />
              <param name="Z" type="float" />
            </accessor>
          </technique_common>
        </source>
        <source id="Sea__SeaWaterBasic_va-normal">
          <float_array id="Sea__SeaWaterBasic_va-normal-array" count="108">0 1 0 0 1 0 0 1 0 0 1 0 0 1 0 0 1 0 0 1 0 0 1 0 0 1 0 0 1 0 0 1 0 0 1 0 0 1 0 0 1 0 0 1 0 0 1 0 0 1 0 0 1 0 0 1 0 0 1 0 0 1 0 0 1 0 0 1 0 0 1 0 0 1 0 0 1 0 0 1 0 0 1 0 0 1 0 0 1 0 0 1 0 0 1 0 0 1 0 0 1 0 0 1 0 0 1 0</float_array>
          <technique_common>
            <accessor source="#Sea__SeaWaterBasic_va-normal-array" count="36" stride="3">
              <param name="X" type="float" />
              <param name="Y" type="float" />
              <param name="Z" type="float" />
            </accessor>
          </technique_common>
        </source>
        <source id="Sea__SeaWaterBasic_va-color">
          <float_array id="Sea__SeaWaterBasic_va-color-array" count="144">1 1 1 0 1 1 1 0 1 1 1 0.7490196 1 1 1 0.7490196 0.9921569 0.9921569 0.9921569 0 0.9882353 0.9882353 0.9882353 0.7490196 0.9686275 0.9686275 0.9686275 0 0.9647059 0.9647059 0.9647059 0.7490196 0.9686275 0.9686275 0.9686275 0.7490196 0.972549 0.972549 0.972549 0 0.9686275 0.9686275 0.9686275 0.7490196 0.972549 0.972549 0.972549 0 1 1 1 1 1 1 1 1 0.9882353 0.9882353 0.9882353 1 0.9647059 0.9647059 0.9647059 1 0.9686275 0.9686275 0.9686275 0.945098 0.9647059 0.9647059 0.9647059 1 1 1 1 0 1 1 1 0 1 1 1 0.7490196 1 1 1 0.7490196 0.9921569 0.9921569 0.9921569 0 0.9882353 0.9882353 0.9882353 0.7490196 0.9686275 0.9686275 0.9686275 0 0.9647059 0.9647059 0.9647059 0.7490196 0.9686275 0.9686275 0.9686275 0.7490196 0.972549 0.972549 0.972549 0 0.9686275 0.9686275 0.9686275 0.7490196 0.972549 0.972549 0.972549 0 1 1 1 1 1 1 1 1 0.9882353 0.9882353 0.9882353 1 0.9647059 0.9647059 0.9647059 1 0.9686275 0.9686275 0.9686275 0.945098 0.9647059 0.9647059 0.9647059 1</float_array>
          <technique_common>
            <accessor source="#Sea__SeaWaterBasic_va-color-array" count="36" stride="4">
              <param name="R" type="float" />
              <param name="G" type="float" />
              <param name="B" type="float" />
              <param name="A" type="float" />
            </accessor>
          </technique_common>
        </source>
        <source id="Sea__SeaWaterBasic_va-texcoord">
          <float_array id="Sea__SeaWaterBasic_va-texcoord-array" count="72">0.8828125 6.125 -2.273438 7.554688 -0.5131836 4.294922 -3.011719 5.496094 3.308594 3.597656 1.446289 2.256836 5.046875 0.5429688 2.599609 -0.3320313 1.828125 -6.273438 3.705078 -6.851563 2.800781 -3.238281 4.980469 -3.113281 -3.277344 4.669922 -0.9511719 3.498047 0.7099609 1.682129 2.005859 -0.5615234 1.150391 -5.511719 2.328125 -2.261719 0.8828125 6.125 -2.273438 7.554688 -0.5131836 4.294922 -3.011719 5.496094 3.308594 3.597656 1.446289 2.256836 5.046875 0.5429688 2.599609 -0.3320313 1.828125 -6.273438 3.705078 -6.851563 2.800781 -3.238281 4.980469 -3.113281 -3.277344 4.669922 -0.9511719 3.498047 0.7099609 1.682129 2.005859 -0.5615234 1.150391 -5.511719 2.328125 -2.261719</float_array>
          <technique_common>
            <accessor source="#Sea__SeaWaterBasic_va-texcoord-array" count="36" stride="2">
              <param name="S" type="float" />
              <param name="T" type="float" />
            </accessor>
          </technique_common>
        </source>
        <vertices id="Sea__SeaWaterBasic_va-vertex">
          <input semantic="POSITION" source="#Sea__SeaWaterBasic_va-position" />
        </vertices>
        <triangles material="SeaWaterBasic_va" count="20">
          <input semantic="VERTEX" source="#Sea__SeaWaterBasic_va-vertex" offset="0" />
          <input semantic="NORMAL" source="#Sea__SeaWaterBasic_va-normal" offset="1" />
          <input semantic="COLOR" source="#Sea__SeaWaterBasic_va-color" offset="2" set="0" />
          <input semantic="TEXCOORD" source="#Sea__SeaWaterBasic_va-texcoord" offset="3" set="0" />
          <p>0 0 0 0 1 1 1 1 2 2 2 2 1 1 1 1 3 3 3 3 2 2 2 2 4 4 4 4 0 0 0 0 5 5 5 5 0 0 0 0 2 2 2 2 5 5 5 5 6 6 6 6 4 4 4 4 7 7 7 7 4 4 4 4 5 5 5 5 7 7 7 7 8 8 8 8 9 9 9 9 10 10 10 10 9 9 9 9 11 11 11 11 10 10 10 10 3 3 3 3 12 12 12 12 2 2 2 2 12 12 12 12 13 13 13 13 2 2 2 2 5 5 5 5 2 2 2 2 14 14 14 14 2 2 2 2 13 13 13 13 14 14 14 14 7 7 7 7 5 5 5 5 15 15 15 15 5 5 5 5 14 14 14 14 15 15 15 15 16 16 16 16 8 8 8 8 10 10 10 10 10 10 10 10 11 11 11 11 7 7 7 7 11 11 11 11 6 6 6 6 7 7 7 7 10 10 10 10 7 7 7 7 17 17 17 17 7 7 7 7 15 15 15 15 17 17 17 17 17 17 17 17 16 16 16 16 10 10 10 10 </p>
        </triangles>
      </mesh>
    </geometry>
  </library_geometries>
  <library_controllers>
    <controller id="Armature_Sea__SeaWaterBasic-mesh">
      <skin source="#Sea__SeaWaterBasic-mesh">
        <bind_shape_matrix>1 0 0 0 0 1 0 0 0 0 1 0 0 0 0 1</bind_shape_matrix>
        <source id="Sea__SeaWaterBasic-mesh-joint">
          <Name_array id="Sea__SeaWaterBasic-mesh-joint-array" count="1">Fld_Tuzura00_DV_Sea</Name_array>
          <technique_common>
            <accessor source="#Sea__SeaWaterBasic-mesh-joint-array" count="1" stride="1">
              <param name="JOINT" type="name" />
            </accessor>
          </technique_common>
        </source>
        <source id="Sea__SeaWaterBasic-mesh-inv_bind_matrix">
          <float_array id="Sea__SeaWaterBasic-mesh-inv_bind_matrix-array" count="16">1 0 0 0 0 1 0 0 0 0 1 0 0 0 0 1</float_array>
          <technique_common>
            <accessor source="#Sea__SeaWaterBasic-mesh-inv_bind_matrix-array" count="1" stride="16">
              <param name="TRANSFORM" type="float4x4" />
            </accessor>
          </technique_common>
        </source>
        <source id="Sea__SeaWaterBasic-mesh-weight">
          <float_array id="Sea__SeaWaterBasic-mesh-weight-array" count="1">1</float_array>
          <technique_common>
            <accessor source="#Sea__SeaWaterBasic-mesh-weight-array" count="1" stride="1">
              <param name="WEIGHT" type="float" />
            </accessor>
          </technique_common>
        </source>
        <joints>
          <input semantic="JOINT" source="#Sea__SeaWaterBasic-mesh-joint" />
          <input semantic="INV_BIND_MATRIX" source="#Sea__SeaWaterBasic-mesh-inv_bind_matrix" />
        </joints>
        <vertex_weights count="92">
          <input semantic="JOINT" source="#Sea__SeaWaterBasic-mesh-joint" offset="0" />
          <input semantic="WEIGHT" source="#Sea__SeaWaterBasic-mesh-weight" offset="1" />
          <vcount>1 1 1 1 1 1 1 1 1 1 1 1 1 1 1 1 1 1 1 1 1 1 1 1 1 1 1 1 1 1 1 1 1 1 1 1 1 1 1 1 1 1 1 1 1 1 1 1 1 1 1 1 1 1 1 1 1 1 1 1 1 1 1 1 1 1 1 1 1 1 1 1 1 1 1 1 1 1 1 1 1 1 1 1 1 1 1 1 1 1 1 1 </vcount>
          <v>0 0 0 0 0 0 0 0 0 0 0 0 0 0 0 0 0 0 0 0 0 0 0 0 0 0 0 0 0 0 0 0 0 0 0 0 0 0 0 0 0 0 0 0 0 0 0 0 0 0 0 0 0 0 0 0 0 0 0 0 0 0 0 0 0 0 0 0 0 0 0 0 0 0 0 0 0 0 0 0 0 0 0 0 0 0 0 0 0 0 0 0 0 0 0 0 0 0 0 0 0 0 0 0 0 0 0 0 0 0 0 0 0 0 0 0 0 0 0 0 0 0 0 0 0 0 0 0 0 0 0 0 0 0 0 0 0 0 0 0 0 0 0 0 0 0 0 0 0 0 0 0 0 0 0 0 0 0 0 0 0 0 0 0 0 0 0 0 0 0 0 0 0 0 0 0 0 0 0 0 0 0 0 0 </v>
        </vertex_weights>
      </skin>
    </controller>
    <controller id="Armature_Sea__SeaWaterBasic_va-mesh">
      <skin source="#Sea__SeaWaterBasic_va-mesh">
        <bind_shape_matrix>1 0 0 0 0 1 0 0 0 0 1 0 0 0 0 1</bind_shape_matrix>
        <source id="Sea__SeaWaterBasic_va-mesh-joint">
          <Name_array id="Sea__SeaWaterBasic_va-mesh-joint-array" count="1">Fld_Tuzura00_DV_Sea</Name_array>
          <technique_common>
            <accessor source="#Sea__SeaWaterBasic_va-mesh-joint-array" count="1" stride="1">
              <param name="JOINT" type="name" />
            </accessor>
          </technique_common>
        </source>
        <source id="Sea__SeaWaterBasic_va-mesh-inv_bind_matrix">
          <float_array id="Sea__SeaWaterBasic_va-mesh-inv_bind_matrix-array" count="16">1 0 0 0 0 1 0 0 0 0 1 0 0 0 0 1</float_array>
          <technique_common>
            <accessor source="#Sea__SeaWaterBasic_va-mesh-inv_bind_matrix-array" count="1" stride="16">
              <param name="TRANSFORM" type="float4x4" />
            </accessor>
          </technique_common>
        </source>
        <source id="Sea__SeaWaterBasic_va-mesh-weight">
          <float_array id="Sea__SeaWaterBasic_va-mesh-weight-array" count="1">1</float_array>
          <technique_common>
            <accessor source="#Sea__SeaWaterBasic_va-mesh-weight-array" count="1" stride="1">
              <param name="WEIGHT" type="float" />
            </accessor>
          </technique_common>
        </source>
        <joints>
          <input semantic="JOINT" source="#Sea__SeaWaterBasic_va-mesh-joint" />
          <input semantic="INV_BIND_MATRIX" source="#Sea__SeaWaterBasic_va-mesh-inv_bind_matrix" />
        </joints>
        <vertex_weights count="36">
          <input semantic="JOINT" source="#Sea__SeaWaterBasic_va-mesh-joint" offset="0" />
          <input semantic="WEIGHT" source="#Sea__SeaWaterBasic_va-mesh-weight" offset="1" />
          <vcount>1 1 1 1 1 1 1 1 1 1 1 1 1 1 1 1 1 1 1 1 1 1 1 1 1 1 1 1 1 1 1 1 1 1 1 1 </vcount>
          <v>0 0 0 0 0 0 0 0 0 0 0 0 0 0 0 0 0 0 0 0 0 0 0 0 0 0 0 0 0 0 0 0 0 0 0 0 0 0 0 0 0 0 0 0 0 0 0 0 0 0 0 0 0 0 0 0 0 0 0 0 0 0 0 0 0 0 0 0 0 0 0 0 </v>
        </vertex_weights>
      </skin>
    </controller>
  </library_controllers>
  <library_visual_scenes>
    <visual_scene id="Scene" name="Scene">
      <node id="Armature" name="Armature" type="NODE">
        <matrix sid="transform">1 0 0 0 0 1 0 0 0 0 1 0 0 0 0 1</matrix>
        <node id="Armature_Fld_Tuzura00_DV_Sea" name="Fld_Tuzura00_DV_Sea" sid="Fld_Tuzura00_DV_Sea" type="JOINT">
          <matrix sid="transform">1 0 0 0 0 1 0 0 0 0 1 0 0 0 0 1</matrix>
        </node>
      </node>
      <node id="Sea__SeaWaterBasic" name="Sea__SeaWaterBasic" type="NODE">
        <instance_controller url="#Armature_Sea__SeaWaterBasic-mesh">
          <skeleton>#Armature_Fld_Tuzura00_DV_Sea</skeleton>
          <bind_material>
            <technique_common>
              <instance_material symbol="SeaWaterBasic" target="#SeaWaterBasic" />
              <bind_vertex_input semantic="CHANNEL0" input_semantic="TEXCOORD" input_set="0" />
              <bind_vertex_input semantic="CHANNEL1" input_semantic="TEXCOORD" input_set="1" />
              <bind_vertex_input semantic="CHANNEL2" input_semantic="TEXCOORD" input_set="2" />
            </technique_common>
          </bind_material>
        </instance_controller>
      </node>
      <node id="Sea__SeaWaterBasic_va" name="Sea__SeaWaterBasic_va" type="NODE">
        <instance_controller url="#Armature_Sea__SeaWaterBasic_va-mesh">
          <skeleton>#Armature_Fld_Tuzura00_DV_Sea</skeleton>
          <bind_material>
            <technique_common>
              <instance_material symbol="SeaWaterBasic_va" target="#SeaWaterBasic_va" />
              <bind_vertex_input semantic="CHANNEL0" input_semantic="TEXCOORD" input_set="0" />
              <bind_vertex_input semantic="CHANNEL1" input_semantic="TEXCOORD" input_set="1" />
              <bind_vertex_input semantic="CHANNEL2" input_semantic="TEXCOORD" input_set="2" />
            </technique_common>
          </bind_material>
        </instance_controller>
      </node>
    </visual_scene>
  </library_visual_scenes>
  <scene>
    <instance_visual_scene url="#Scene" />
  </scene>
</COLLADA>