<?xml version="1.0" encoding="utf-8"?>
<COLLADA xmlns="http://www.collada.org/2005/11/COLLADASchema" version="1.4.1" xmlns:xsi="http://www.w3.org/2001/XMLSchema-instance">
  <asset>
    <contributor>
      <author>Centrixe</author>
      <authoring_tool>OpenCOLLADA for 3ds Max;  Version: 1.6;  Revision: 68</authoring_tool>
    </contributor>
    <created>2022-09-24T11:22:02</created>
    <modified>2022-09-24T11:22:02</modified>
    <unit name="inch" meter="0.0254"/>
    <up_axis>Z_UP</up_axis>
  </asset>
  <library_effects>
    <effect id="M_Flag">
      <profile_COMMON>
        <newparam sid="M_Flag_Alb_png-surface">
          <surface type="2D">
            <init_from>M_Flag_Alb_png</init_from>
          </surface>
        </newparam>
        <newparam sid="M_Flag_Alb_png-sampler">
          <sampler2D>
            <source>M_Flag_Alb_png-surface</source>
          </sampler2D>
        </newparam>
        <technique sid="common">
          <blinn>
            <emission>
              <color>0 0 0 1</color>
            </emission>
            <ambient>
              <color>0.588 0.588 0.588 1</color>
            </ambient>
            <diffuse>
              <texture texture="M_Flag_Alb_png-sampler" texcoord="CHANNEL1"/>
            </diffuse>
            <specular>
              <color>0 0 0 1</color>
            </specular>
            <shininess>
              <float>10</float>
            </shininess>
            <reflective>
              <color>0 0 0 1</color>
            </reflective>
            <transparent opaque="A_ONE">
              <texture texture="M_Flag_Alb_png-sampler" texcoord="CHANNEL1"/>
            </transparent>
            <transparency>
              <float>1</float>
            </transparency>
          </blinn>
        </technique>
      </profile_COMMON>
      <extra>
        <technique profile="OpenCOLLADA3dsMax">
          <extended_shader>
            <opacity_type sid="opacity_type" type="int">0</opacity_type>
            <falloff_type sid="falloff_type" type="int">0</falloff_type>
            <falloff sid="falloff" type="float">0</falloff>
            <index_of_refraction sid="index_of_refraction" type="float">1.5</index_of_refraction>
            <wire_size sid="wire_size" type="float">1</wire_size>
            <wire_units sid="wire_units" type="int">0</wire_units>
            <apply_reflection_dimming sid="apply_reflection_dimming" type="bool">0</apply_reflection_dimming>
            <dim_level sid="dim_level" type="float">0</dim_level>
            <reflection_level sid="reflection_level" type="float">3</reflection_level>
          </extended_shader>
          <shader>
            <ambient_diffuse_texture_lock sid="ambient_diffuse_texture_lock" type="bool">1</ambient_diffuse_texture_lock>
            <ambient_diffuse_lock sid="ambient_diffuse_lock" type="bool">1</ambient_diffuse_lock>
            <diffuse_specular_lock sid="diffuse_specular_lock" type="bool">0</diffuse_specular_lock>
            <use_self_illum_color sid="use_self_illum_color" type="bool">0</use_self_illum_color>
            <self_illumination sid="self_illumination" type="float">0</self_illumination>
            <specular_level sid="specular_level" type="float">0</specular_level>
            <soften sid="soften" type="float">0.1</soften>
          </shader>
        </technique>
      </extra>
    </effect>
  </library_effects>
  <library_materials>
    <material id="M_Flag-material" name="M_Flag">
      <instance_effect url="#M_Flag"/>
    </material>
  </library_materials>
  <library_geometries>
    <geometry id="geom-Npc_Judge_Flag__M_Flag" name="Npc_Judge_Flag__M_Flag">
      <mesh>
        <source id="geom-Npc_Judge_Flag__M_Flag-positions">
          <float_array id="geom-Npc_Judge_Flag__M_Flag-positions-array" count="1008">0.4519043 -0.4538574 -0.0227356 0.4519043 -0.4538574 -0.02360535 0.4519043 -0.1318359 -0.0227356 0.4519043 -0.1318359 -0.02360535 0.3981934 -0.4538574 -0.02360535 0.4519043 -0.4538574 -0.02360535 0.4519043 -0.4538574 -0.0227356 0.3981934 -0.4538574 -0.0227356 0.3476563 -0.4538575 -0.02360535 0.3476563 -0.4538575 -0.0227356 0.2971191 -0.4538575 -0.02360535 0.2971191 -0.4538575 -0.0227356 0.2436524 -0.4538575 -0.02360535 0.2436524 -0.4538575 -0.0227356 0.1912842 -0.4538575 -0.02360535 0.1912842 -0.4538575 -0.0227356 0.1408691 -0.4538574 -0.02360535 0.1408691 -0.4538574 -0.0227356 0.09020997 -0.4538575 -0.02363587 0.09020997 -0.4538575 -0.02270508 0.05923462 -0.4538575 -0.02378845 0.05923462 -0.4538575 -0.02255249 0.04251099 -0.4538574 -0.02397156 0.04251099 -0.4538574 -0.02236938 0.03121948 -0.4538574 -0.02227783 0.03121948 -0.4538574 -0.02407837 0.3981934 -0.1318359 -0.0227356 0.4519043 -0.1318359 -0.0227356 0.4519043 -0.1318359 -0.02360535 0.3981934 -0.1318359 -0.02360535 0.3476563 -0.1318359 -0.0227356 0.3476563 -0.1318359 -0.02360535 0.2971191 -0.1318359 -0.0227356 0.2971191 -0.1318359 -0.02360535 0.2436524 -0.1318359 -0.0227356 0.2436524 -0.1318359 -0.02360535 0.1912842 -0.1318359 -0.0227356 0.1912842 -0.1318359 -0.02360535 0.1408691 -0.1318359 -0.0227356 0.1408691 -0.1318359 -0.02360535 0.09020997 -0.131836 -0.02270508 0.09020997 -0.131836 -0.02363587 0.05923462 -0.1318359 -0.02255249 0.05923462 -0.1318359 -0.02378845 0.04251099 -0.1318359 -0.02236939 0.04251099 -0.1318359 -0.02397156 0.03121948 -0.131836 -0.02407837 0.03121949 -0.131836 -0.02227783 0.3981934 -0.1318359 -0.02360535 0.4519043 -0.1318359 -0.02360535 0.4519043 -0.4538574 -0.02360535 0.3981934 -0.4538574 -0.02360535 0.3476563 -0.1318359 -0.02360535 0.3476563 -0.4538575 -0.02360535 0.2971191 -0.1318359 -0.02360535 0.2971191 -0.4538575 -0.02360535 0.2436524 -0.1318359 -0.02360535 0.2436524 -0.4538575 -0.02360535 0.1912842 -0.1318359 -0.02360535 0.1912842 -0.4538575 -0.02360535 0.1408691 -0.1318359 -0.02360535 0.1408691 -0.4538574 -0.02360535 0.09020997 -0.131836 -0.02363587 0.09020997 -0.4538575 -0.02363587 0.05923462 -0.1318359 -0.02378845 0.05923462 -0.4538575 -0.02378845 0.04251099 -0.1318359 -0.02397156 0.04251099 -0.4538574 -0.02397156 0.03121948 -0.4538574 -0.02407837 0.03121948 -0.131836 -0.02407837 0.3981934 -0.4538574 -0.0227356 0.4519043 -0.4538574 -0.0227356 0.4519043 -0.1318359 -0.0227356 0.3981934 -0.1318359 -0.0227356 0.3476563 -0.4538575 -0.0227356 0.3476563 -0.1318359 -0.0227356 0.2971191 -0.4538575 -0.0227356 0.2971191 -0.1318359 -0.0227356 0.2436524 -0.4538575 -0.0227356 0.2436524 -0.1318359 -0.0227356 0.1912842 -0.4538575 -0.0227356 0.1912842 -0.1318359 -0.0227356 0.1408691 -0.4538574 -0.0227356 0.1408691 -0.1318359 -0.0227356 0.09020997 -0.4538575 -0.02270508 0.09020997 -0.131836 -0.02270508 0.05923462 -0.4538575 -0.02255249 0.05923462 -0.1318359 -0.02255249 0.04251099 -0.4538574 -0.02236938 0.04251099 -0.1318359 -0.02236939 0.03121949 -0.131836 -0.02227783 0.03121948 -0.4538574 -0.02227783 0.0244751 -0.4538574 -0.009506226 0.0244751 -0.1318359 -0.009506226 0.008758545 -0.1318359 -0.009506226 0.008758545 -0.4538574 -0.009506226 8.955e-4 -0.1318359 -0.02313232 8.955e-4 -0.4538574 -0.02313232 0.008758545 -0.1318359 -0.03674316 0.008758545 -0.4538574 -0.03674316 0.0244751 -0.1318359 -0.03674316 0.0244751 -0.4538574 -0.03674316 0.03121948 -0.4538574 -0.02407837 0.03121948 -0.131836 -0.02407837 0.02252197 0.07366943 -0.03317261 0.01094055 0.07366943 -0.03317261 0.005142212 0.07366943 -0.02313232 0.02832031 0.07366943 -0.02313232 0.02252197 0.07366943 -0.01308441 0.01094055 0.07366943 -0.01308441 0.0244751 -0.4538574 -0.009506226 0.008758545 -0.4538574 -0.009506226 8.955e-4 -0.4538574 -0.02313232 0.03121948 -0.4538574 -0.02227783 0.03121948 -0.4538574 -0.02407837 0.0244751 -0.4538574 -0.03674316 0.008758545 -0.4538574 -0.03674316 0.0244751 -0.1318359 -0.03674316 0.008758545 -0.1318359 -0.03674316 8.955e-4 -0.1318359 -0.02313232 0.03121948 -0.131836 -0.02407837 0.03121949 -0.131836 -0.02227783 0.0244751 -0.1318359 -0.009506226 0.008758545 -0.1318359 -0.009506226 0.02832031 0.07366943 -0.02313232 0.02252197 0.07366943 -0.01308441 0.02348328 0.07220459 -0.01143646 0.03022766 -0.4541016 -0.02313232 0.02348328 -0.4541016 -0.01143646 0.03022766 0.07220459 -0.02313232 0.02252197 0.07366943 -0.03317261 0.02348328 -0.4541016 -0.03482056 0.02348328 0.07220459 -0.03482056 0.01094055 0.07366943 -0.03317261 0.009986877 -0.4541016 -0.03482056 0.009986877 0.07220459 -0.03482056 0.005142212 0.07366943 -0.02313232 0.003236771 -0.4541016 -0.02313232 0.003236771 0.07220459 -0.02313232 0.01094055 0.07366943 -0.01308441 0.009986877 -0.4541016 -0.01143646 0.009986877 0.07220459 -0.01143646 0.02252197 0.07366943 -0.01308441 0.02348328 -0.4541016 -0.01143646 0.02348328 0.07220459 -0.01143646 0.03022766 -0.4541016 -0.02313232 0.01672363 -0.4541016 -0.02313232 0.02348328 -0.4541016 -0.03482056 0.02348328 -0.4541016 -0.01143646 0.009986877 -0.4541016 -0.03482056 0.009986877 -0.4541016 -0.01143646 0.003236771 -0.4541016 -0.02313232 0.03170777 -0.1312256 -0.02145386 0.05923462 -0.1314697 -0.022995 0.03121948 -0.131836 -0.02413941 0.02403259 -0.4555664 -0.0104599 0.002098083 -0.4555664 -0.02311707 0.02404785 -0.4555664 -0.03579712 0.3476563 -0.4538575 -0.0227356 0.3476563 -0.4538575 -0.02360535 0.3981934 -0.4543457 -0.02316284 0.2971191 -0.4543457 -0.0231781 0.2436524 -0.4538575 -0.0227356 0.2436524 -0.4538575 -0.02360535 0.2971191 -0.4543457 -0.0231781 0.1912842 -0.4543457 -0.02316284 0.1408691 -0.4538574 -0.0227356 0.1408691 -0.4538574 -0.02360535 0.1912842 -0.4543457 -0.02316284 0.09020997 -0.4543457 -0.02320862 0.05923462 -0.4541016 -0.02259827 0.05923462 -0.4538575 -0.02384949 0.09020997 -0.4543457 -0.02320862 0.03125 -0.4543457 -0.02261353 0.3981934 -0.1318359 -0.02360535 0.3981934 -0.1318359 -0.0227356 0.4521484 -0.1315918 -0.02304077 0.3476563 -0.1313477 -0.0231781 0.2971191 -0.1318359 -0.02360535 0.2971191 -0.1318359 -0.0227356 0.3476563 -0.1313477 -0.0231781 0.2436524 -0.1313477 -0.0231781 0.1912842 -0.1318359 -0.02360535 0.1912842 -0.1318359 -0.0227356 0.2436524 -0.1313477 -0.0231781 0.1408691 -0.1313477 -0.0231781 0.09020997 -0.131836 -0.02363587 0.09020997 -0.131836 -0.02270508 0.1408691 -0.1313477 -0.0231781 0.05923462 -0.1314697 -0.022995 0.03082275 0.07287598 -0.02406311 0.009437561 0.07348633 -0.03573608 0.02348328 0.07220459 -0.01143646 0.008857727 0.07287598 -0.01139069 0.3981934 -0.1318359 -0.02360535 0.4521484 -0.1315918 -0.02304077 0.4521484 -0.4541016 -0.02330017 0.3981934 -0.4543457 -0.02316284 0.3476563 -0.1313477 -0.0231781 0.3476563 -0.4538575 -0.02360535 0.2971191 -0.1318359 -0.02360535 0.2971191 -0.4543457 -0.0231781 0.2436524 -0.1313477 -0.0231781 0.2436524 -0.4538575 -0.02360535 0.1912842 -0.1318359 -0.02360535 0.1912842 -0.4543457 -0.02316284 0.1408691 -0.1313477 -0.0231781 0.1408691 -0.4538574 -0.02360535 0.09020997 -0.131836 -0.02363587 0.09020997 -0.4543457 -0.02320862 0.05923462 -0.1314697 -0.022995 0.05923462 -0.4538575 -0.02384949 0.03121948 -0.131836 -0.02413941 0.03125 -0.4543457 -0.02261353 0.3981934 -0.4543457 -0.02316284 0.4521484 -0.4541016 -0.02330017 0.4521484 -0.1315918 -0.02304077 0.3981934 -0.1318359 -0.0227356 0.3476563 -0.4538575 -0.0227356 0.3476563 -0.1313477 -0.0231781 0.2971191 -0.4543457 -0.0231781 0.2971191 -0.1318359 -0.0227356 0.2436524 -0.4538575 -0.0227356 0.2436524 -0.1313477 -0.0231781 0.1912842 -0.4543457 -0.02316284 0.1912842 -0.1318359 -0.0227356 0.1408691 -0.4538574 -0.0227356 0.1408691 -0.1313477 -0.0231781 0.09020997 -0.4543457 -0.02320862 0.09020997 -0.131836 -0.02270508 0.05923462 -0.4541016 -0.02259827 0.05923462 -0.1314697 -0.022995 0.03125 -0.4543457 -0.02261353 0.03170777 -0.1312256 -0.02145386 0.03170777 -0.1312256 -0.02145386 0.02449036 -0.4538574 -0.009483337 0.03125 -0.4543457 -0.02261353 0.009208679 -0.1312256 -0.008750916 0.008758545 -0.4538574 -0.009506226 8.955e-4 -0.1318359 -0.02313232 8.955e-4 -0.4538574 -0.02313232 0.008758545 -0.1318359 -0.03674316 0.008758545 -0.4538574 -0.03674316 0.0244751 -0.1318359 -0.03674316 0.02449036 -0.4538574 -0.03674316 0.03125 -0.4543457 -0.02261353 0.03121948 -0.131836 -0.02413941 0.03082275 0.07287598 -0.02406311 0.02348328 0.07220459 -0.01143646 0.02403259 -0.4555664 -0.0104599 0.02404785 -0.4555664 -0.03579712 0.009437561 0.07348633 -0.03573608 0.002098083 -0.4555664 -0.02311707 0.008857727 0.07287598 -0.01139069 0.02403259 -0.4555664 -0.0104599 0.02348328 0.07220459 -0.01143646 0.02449036 -0.4538574 -0.009483337 0.008758545 -0.4538574 -0.009506226 8.955e-4 -0.4538574 -0.02313232 0.03125 -0.4543457 -0.02261353 0.02449036 -0.4538574 -0.03674316 0.03125 -0.4543457 -0.02261353 0.008758545 -0.4538574 -0.03674316 0.0244751 -0.1318359 -0.03674316 0.008758545 -0.1318359 -0.03674316 8.955e-4 -0.1318359 -0.02313232 0.03121948 -0.131836 -0.02413941 0.03170777 -0.1312256 -0.02145386 0.009208679 -0.1312256 -0.008750916 0.3476563 -0.1314697 -0.02311707 0.4521484 -0.1315918 -0.02301025 0.3981934 -0.1318359 -0.02360535 0.1409912 -0.1314697 -0.02305603 0.2436524 -0.1315918 -0.02310181 0.1912842 -0.1318359 -0.02360535 -0.001440048 -0.1248779 -0.02302551 0.05871582 -0.131958 -0.02328491 0.03079224 -0.4714355 -0.02311707 0.05871582 -0.131958 -0.02328491 -0.001440048 -0.1248779 -0.02302551 0.03079224 -0.4714355 -0.02311707 0.03102112 0.07550049 -0.01835632 0.0226593 0.07293701 -0.03662109 0.002397537 0.07653809 -0.01951599 0.02433777 -0.4558105 -0.009773254 0.00148201 -0.4560547 -0.0231781 0.02433777 -0.4560547 -0.03631592 0.090271 -0.4543457 -0.02326966 0.1912842 -0.4543457 -0.02325439 0.1408691 -0.4538574 -0.02275085 0.2436524 -0.4538575 -0.02360535 0.2436524 -0.4538575 -0.0227356 0.2971191 -0.4543457 -0.0231781 0.3981934 -0.4543457 -0.02316284 0.4521484 -0.4543457 -0.02320862 0.4521484 -0.1315918 -0.02301025 0.3476563 -0.4543457 -0.0231781 0.4521484 -0.1315918 -0.02301025 0.3476563 -0.1314697 -0.02311707 0.1912842 -0.4543457 -0.02325439 0.2436524 -0.1315918 -0.02310181 0.1408691 -0.4538574 -0.02275085 0.1409912 -0.1314697 -0.02305603 0.090271 -0.4543457 -0.02326966 0.03079224 -0.4714355 -0.02311707 0.05871582 -0.131958 -0.02328491 0.03102112 0.07550049 -0.01835632 0.02433777 -0.4558105 -0.009773254 0.02433777 -0.4560547 -0.03631592 0.0226593 0.07293701 -0.03662109 0.00148201 -0.4560547 -0.0231781 0.002397537 0.07653809 -0.01951599 0.02433777 -0.4558105 -0.009773254 0.03102112 0.07550049 -0.01835632 0.3981934 -0.1318359 -0.02360535 0.4521484 -0.1315918 -0.02301025 0.4521484 -0.4543457 -0.02320862 0.3981934 -0.4543457 -0.02316284 0.3476563 -0.1314697 -0.02311707 0.3476563 -0.4543457 -0.0231781 0.2436524 -0.1315918 -0.02310181 0.3476563 -0.1314697 -0.02311707 0.2971191 -0.4543457 -0.0231781 0.2436524 -0.4538575 -0.02360535 0.1912842 -0.1318359 -0.02360535 0.1912842 -0.4543457 -0.02325439 0.1409912 -0.1314697 -0.02305603 0.05871582 -0.131958 -0.02328491 0.090271 -0.4543457 -0.02326966 0.03079224 -0.4714355 -0.02311707 0.3476563 -0.4543457 -0.0231781 0.3476563 -0.1314697 -0.02311707 0.2971191 -0.4543457 -0.0231781 0.2436524 -0.4538575 -0.0227356 0.2436524 -0.1315918 -0.02310181 0.1912842 -0.4543457 -0.02325439</float_array>
          <technique_common>
            <accessor source="#geom-Npc_Judge_Flag__M_Flag-positions-array" count="336" stride="3">
              <param name="X" type="float"/>
              <param name="Y" type="float"/>
              <param name="Z" type="float"/>
            </accessor>
          </technique_common>
        </source>
        <source id="geom-Npc_Judge_Flag__M_Flag-normals">
          <float_array id="geom-Npc_Judge_Flag__M_Flag-normals-array" count="456">0.01565218 -0.001960993 0.9998755 0.01565219 -0.001960994 -0.9998757 0.01565218 0.001955033 0.9998757 0.01565219 0.001955033 -0.9998755 0 -0.001960993 -0.9999982 0.01565219 -0.001960994 -0.9998755 0.01565218 -0.001960993 0.9998757 0 -0.001960993 0.9999982 0 -0.001955032 -0.9999982 0 -0.001955033 0.9999982 0 -0.001955032 -0.9999982 0 -0.001958013 0.9999982 0 -0.001958012 -0.9999981 0 -0.001955032 0.9999981 0 -0.001958013 -0.9999982 0 -0.001958013 0.9999982 0 -0.001960992 -0.9999981 0 -0.001960993 0.9999982 0.001958012 -0.003916025 -0.9999904 0.001958012 -0.003916025 0.9999904 0.007827207 -0.003913044 -0.9999617 0.007827209 -0.003913046 0.9999617 0.009784101 -0.003916025 -0.9999445 0.009784103 -0.003913045 0.9999446 0.5808648 -0.02542435 0.8136029 0.5773412 -0.02544223 -0.8161065 0 0.001955032 0.9999982 0.01565218 0.001955032 0.9998755 0.01565219 0.001955033 -0.9998757 0 0.001955032 -0.9999982 0 0.001955033 0.9999982 0 0.001955032 -0.9999982 0 0.001955033 0.9999982 0 0.001956522 -0.9999982 0 0.001955032 0.9999982 0 0.001955032 -0.9999981 0 0.001955033 0.9999982 0 0.001955032 -0.9999982 0 0.001955032 0.9999982 0 0.001956522 -0.9999981 0.001958012 0.003914535 0.9999904 0.001958012 0.003914535 -0.9999904 0.007827209 0.003913046 0.9999617 0.007827207 0.003913044 -0.9999617 0.009784474 0.003911554 0.9999445 0.009784101 0.003913044 -0.9999445 0.5773414 0.02544372 -0.8161063 0.5808651 0.02542585 0.8136027 0 0.001955032 -0.9999982 0.01565219 0.001955033 -0.9998755 0.01565219 -0.001960994 -0.9998757 0 -0.001960993 -0.9999982 0 0.001955032 -0.9999982 0 -0.001955032 -0.9999982 0 0.001956522 -0.9999982 0 -0.001955032 -0.9999982 0 0.001955032 -0.9999981 0 -0.001958012 -0.9999981 0 0.001955032 -0.9999982 0 -0.001958013 -0.9999982 0 0.001956522 -0.9999981 0 -0.001960992 -0.9999981 0.001958012 0.003914535 -0.9999904 0.001958012 -0.003916025 -0.9999904 0.007827207 0.003913044 -0.9999617 0.007827207 -0.003913044 -0.9999617 0.009784101 0.003913044 -0.9999445 0.009784101 -0.003916025 -0.9999445 0.5773412 -0.02544223 -0.8161065 0.5773414 0.02544372 -0.8161063 0 -0.001960993 0.9999982 0.01565218 -0.001960993 0.9998755 0.01565218 0.001955033 0.9998757 0 0.001955032 0.9999982 0 -0.001955033 0.9999982 0 0.001955033 0.9999982 0 -0.001958013 0.9999982 0 0.001955033 0.9999982 0 -0.001955032 0.9999981 0 0.001955032 0.9999982 0 -0.001958013 0.9999982 0 0.001955033 0.9999982 0 -0.001960993 0.9999982 0 0.001955032 0.9999982 0.001958012 -0.003916025 0.9999904 0.001958012 0.003914535 0.9999904 0.007827209 -0.003913046 0.9999617 0.007827209 0.003913046 0.9999617 0.009784103 -0.003913045 0.9999446 0.009784474 0.003911554 0.9999445 0.5808651 0.02542585 0.8136027 0.5808648 -0.02542435 0.8136029 0.4948986 -0.02738532 0.8685191 0.4948993 0.02738536 0.8685188 -0.499661 0.01567602 0.8660792 -0.499661 -0.01567602 0.8660792 -0.9997684 0.02152174 0 -0.9997684 -0.02152026 0 -0.499661 0.01567602 -0.8660792 -0.499661 -0.01567602 -0.8660792 0.4910986 0.02739131 -0.8706732 0.4910992 -0.02739432 -0.8706728 0.5773412 -0.02544223 -0.8161065 0.5773414 0.02544372 -0.8161063 0.1036881 0.978189 -0.1799867 -0.1466236 0.9559866 -0.2541478 -0.2291485 0.9733916 0 0.1878314 0.9822013 0 0.1036881 0.978189 0.1799867 -0.1466237 0.9559867 0.2541474 0.4948986 -0.02738532 0.8685191 -0.499661 -0.01567602 0.8660792 -0.9997684 -0.02152026 0 0.5808648 -0.02542435 0.8136029 0.5773412 -0.02544223 -0.8161065 0.4910992 -0.02739432 -0.8706728 -0.499661 -0.01567602 -0.8660792 0.4910986 0.02739131 -0.8706732 -0.499661 0.01567602 -0.8660792 -0.9997684 0.02152175 0 0.5773414 0.02544372 -0.8161063 0.5808651 0.02542585 0.8136027 0.4948993 0.02738536 0.8685188 -0.499661 0.01567602 0.8660792 0.1878314 0.9822013 0 0.1036881 0.978189 0.1799867 0.4988744 0.001956522 0.8666722 0.9999694 -0.007826091 0 0.4988595 -0.007826081 0.8666475 0.9999981 0.001957267 0 0.1036881 0.978189 -0.1799867 0.4988608 -0.0078261 -0.8666468 0.4988745 0.001956522 -0.866672 -0.1466236 0.9559867 -0.2541478 -0.4988608 -0.0078261 -0.8666468 -0.4988744 0.001956522 -0.866672 -0.2291485 0.9733916 0 -0.9999694 -0.007826091 0 -0.9999982 0.001957268 0 -0.1466237 0.9559867 0.2541475 -0.4988595 -0.007826081 0.8666475 -0.4988743 0.001956522 0.8666722 0.1036881 0.978189 0.1799867 0.4988596 -0.007826081 0.8666476 0.4988744 0.001956522 0.8666722 0.9999694 -0.007826091 0 0 -1 0 0.4988609 -0.007826101 -0.8666468 0.4988596 -0.007826081 0.8666476 -0.4988609 -0.007826101 -0.8666468 -0.4988596 -0.007826081 0.8666476 -0.9999694 -0.00782609 0</float_array>
          <technique_common>
            <accessor source="#geom-Npc_Judge_Flag__M_Flag-normals-array" count="152" stride="3">
              <param name="X" type="float"/>
              <param name="Y" type="float"/>
              <param name="Z" type="float"/>
            </accessor>
          </technique_common>
        </source>
        <source id="geom-Npc_Judge_Flag__M_Flag-map-2">
          <float_array id="geom-Npc_Judge_Flag__M_Flag-map-2-array" count="1008">1 1 1 1 1 1 1 1 1 1 1 1 1 1 1 1 1 1 1 1 1 1 1 1 1 1 1 1 1 1 1 1 1 1 1 1 1 1 1 1 1 1 1 1 1 1 1 1 1 1 1 1 1 1 1 1 1 1 1 1 1 1 1 1 1 1 1 1 1 1 1 1 1 1 1 1 1 1 1 1 1 1 1 1 1 1 1 1 1 1 1 1 1 1 1 1 1 1 1 1 1 1 1 1 1 1 1 1 1 1 1 1 1 1 1 1 1 1 1 1 1 1 1 1 1 1 1 1 1 1 1 1 1 1 1 1 1 1 1 1 1 1 1 1 1 1 1 1 1 1 1 1 1 1 1 1 1 1 1 1 1 1 1 1 1 1 1 1 1 1 1 1 1 1 1 1 1 1 1 1 1 1 1 1 1 1 1 1 1 1 1 1 1 1 1 1 1 1 1 1 1 1 1 1 1 1 1 1 1 1 1 1 1 1 1 1 1 1 1 1 1 1 1 1 1 1 1 1 1 1 1 1 1 1 1 1 1 1 1 1 1 1 1 1 1 1 1 1 1 1 1 1 1 1 1 1 1 1 1 1 1 1 1 1 1 1 1 1 1 1 1 1 1 1 1 1 1 1 1 1 1 1 1 1 1 1 1 1 1 1 1 1 1 1 1 1 1 1 1 1 1 1 1 1 1 1 1 1 1 1 1 1 1 1 1 1 1 1 1 1 1 1 1 1 1 1 1 1 1 1 1 1 1 1 1 1 1 1 1 1 1 1 1 1 1 1 1 1 1 1 1 1 1 1 1 1 1 1 1 1 1 1 1 1 1 1 1 1 1 1 1 1 1 1 1 1 1 1 1 1 1 1 1 1 1 1 1 1 1 1 1 1 1 1 1 1 1 1 1 1 1 1 1 1 1 1 1 1 1 1 1 1 1 1 1 1 1 1 1 1 1 1 1 1 1 1 1 1 1 1 1 1 1 1 1 1 1 1 1 1 1 1 1 1 1 1 1 1 1 1 1 1 1 1 1 1 1 1 1 1 1 1 1 1 1 1 1 1 1 1 1 1 1 1 1 1 1 1 1 1 1 1 1 1 1 1 1 1 1 1 1 1 1 1 1 1 1 1 1 1 1 1 1 1 1 1 1 1 1 1 1 1 1 1 1 1 1 1 1 1 1 1 1 1 1 1 1 1 1 1 1 1 1 1 1 1 1 1 1 1 1 1 1 1 1 1 1 1 1 1 1 1 1 1 1 1 1 1 1 1 1 1 1 1 1 1 1 1 1 1 1 1 1 1 1 1 1 1 1 1 1 1 1 1 1 1 1 1 1 1 1 1 1 1 1 1 1 1 1 1 1 1 1 1 1 1 1 1 1 1 1 1 1 1 1 1 1 1 1 1 1 1 1 1 1 1 1 1 1 1 1 1 1 1 1 1 1 1 1 1 1 1 1 1 1 1 1 1 1 1 1 1 1 1 1 1 1 1 1 1 1 1 1 1 1 1 1 1 1 1 1 1 1 1 1 1 1 1 1 1 1 1 1 1 1 1 1 1 1 1 1 1 1 1 1 1 1 1 1 1 1 1 1 1 1 1 1 1 1 1 1 1 1 1 1 1 1 1 1 1 1 1 1 1 1 1 1 1 1 1 1 1 1 1 1 1 1 1 1 1 1 1 1 1 1 1 1 1 1 1 1 1 1 1 1 1 1 1 1 1 1 1 1 1 1 1 1 1 1 1 1 1 1 1 1 1 1 1 1 1 1 1 1 1 1 1 1 1 1 1 1 1 1 1 1 1 1 1 1 1 1 1 1 1 1 1 1 1 1 1 1 1 1 1 1 1 1 1 1 1 1 1 1 1 1 1 1 1 1 1 1 1 1 1 1 1 1 1 1 1 1 1 1 1 1 1 1 1 1 1 1 1 1 1 1 1 1 1 1 1 1 1 1 1 1 1 1 1 1 1 1 1 1 1 1 1 1 1 1 1 1 1 1 1 1 1 1 1 1 1 1 1 1 1 1 1 1 1 1 1 1 1 1 1 1 1 1 1 1 1 1 1 1 1 1 1 1 1 1 1 1 1 1 1 1 1 1 1 1 1 1 1 1 1 1 1 1 1 1 1 1 1 1 1 1 1 1 1 1 1 1 1 1 1 1 1 1 1 1 1 1 1 1 1 1 1 1 1 1 1 1 1 1 1 1 1 1 1 1 1 1 1 1 1 1 1 1 1 1 1 1 1 1 1 1 1 1 1 1 1 1 1 1 1 1 1 1 1</float_array>
          <technique_common>
            <accessor source="#geom-Npc_Judge_Flag__M_Flag-map-2-array" count="336" stride="3">
              <param name="R" type="float"/>
              <param name="G" type="float"/>
              <param name="B" type="float"/>
            </accessor>
          </technique_common>
        </source>
        <source id="geom-Npc_Judge_Flag__M_Flag-map0">
          <float_array id="geom-Npc_Judge_Flag__M_Flag-map0-array" count="1008">1 1 1 1 1 1 1 1 1 1 1 1 1 1 1 1 1 1 1 1 1 1 1 1 1 1 1 1 1 1 1 1 1 1 1 1 1 1 1 1 1 1 1 1 1 1 1 1 1 1 1 1 1 1 1 1 1 1 1 1 1 1 1 1 1 1 1 1 1 1 1 1 1 1 1 1 1 1 1 1 1 1 1 1 1 1 1 1 1 1 1 1 1 1 1 1 1 1 1 1 1 1 1 1 1 1 1 1 1 1 1 1 1 1 1 1 1 1 1 1 1 1 1 1 1 1 1 1 1 1 1 1 1 1 1 1 1 1 1 1 1 1 1 1 1 1 1 1 1 1 1 1 1 1 1 1 1 1 1 1 1 1 1 1 1 1 1 1 1 1 1 1 1 1 1 1 1 1 1 1 1 1 1 1 1 1 1 1 1 1 1 1 1 1 1 1 1 1 1 1 1 1 1 1 1 1 1 1 1 1 1 1 1 1 1 1 1 1 1 1 1 1 1 1 1 1 1 1 1 1 1 1 1 1 1 1 1 1 1 1 1 1 1 1 1 1 1 1 1 1 1 1 1 1 1 1 1 1 1 1 1 1 1 1 1 1 1 1 1 1 1 1 1 1 1 1 1 1 1 1 1 1 1 1 1 1 1 1 1 1 1 1 1 1 1 1 1 1 1 1 1 1 1 1 1 1 1 1 1 1 1 1 1 1 1 1 1 1 1 1 1 1 1 1 1 1 1 1 1 1 1 1 1 1 1 1 1 1 1 1 1 1 1 1 1 1 1 1 1 1 1 1 1 1 1 1 1 1 1 1 1 1 1 1 1 1 1 1 1 1 1 1 1 1 1 1 1 1 1 1 1 1 1 1 1 1 1 1 1 1 1 1 1 1 1 1 1 1 1 1 1 1 1 1 1 1 1 1 1 1 1 1 1 1 1 1 1 1 1 1 1 1 1 1 1 1 1 1 1 1 1 1 1 1 1 1 1 1 1 1 1 1 1 1 1 1 1 1 1 1 1 1 1 1 1 1 1 1 1 1 1 1 1 1 1 1 1 1 1 1 1 1 1 1 1 1 1 1 1 1 1 1 1 1 1 1 1 1 1 1 1 1 1 1 1 1 1 1 1 1 1 1 1 1 1 1 1 1 1 1 1 1 1 1 1 1 1 1 1 1 1 1 1 1 1 1 1 1 1 1 1 1 1 1 1 1 1 1 1 1 1 1 1 1 1 1 1 1 1 1 1 1 1 1 1 1 1 1 1 1 1 1 1 1 1 1 1 1 1 1 1 1 1 1 1 1 1 1 1 1 1 1 1 1 1 1 1 1 1 1 1 1 1 1 1 1 1 1 1 1 1 1 1 1 1 1 1 1 1 1 1 1 1 1 1 1 1 1 1 1 1 1 1 1 1 1 1 1 1 1 1 1 1 1 1 1 1 1 1 1 1 1 1 1 1 1 1 1 1 1 1 1 1 1 1 1 1 1 1 1 1 1 1 1 1 1 1 1 1 1 1 1 1 1 1 1 1 1 1 1 1 1 1 1 1 1 1 1 1 1 1 1 1 1 1 1 1 1 1 1 1 1 1 1 1 1 1 1 1 1 1 1 1 1 1 1 1 1 1 1 1 1 1 1 1 1 1 1 1 1 1 1 1 1 1 1 1 1 1 1 1 1 1 1 1 1 1 1 1 1 1 1 1 1 1 1 1 1 1 1 1 1 1 1 1 1 1 1 1 1 1 1 1 1 1 1 1 1 1 1 1 1 1 1 1 1 1 1 1 1 1 1 1 1 1 1 1 1 1 1 1 1 1 1 1 1 1 1 1 1 1 1 1 1 1 1 1 1 1 1 1 1 1 1 1 1 1 1 1 1 1 1 1 1 1 1 1 1 1 1 1 1 1 1 1 1 1 1 1 1 1 1 1 1 1 1 1 1 1 1 1 1 1 1 1 1 1 1 1 1 1 1 1 1 1 1 1 1 1 1 1 1 1 1 1 1 1 1 1 1 1 1 1 1 1 1 1 1 1 1 1 1 1 1 1 1 1 1 1 1 1 1 1 1 1 1 1 1 1 1 1 1 1 1 1 1 1 1 1 1 1 1 1 1 1 1 1 1 1 1 1 1 1 1 1 1 1 1 1 1 1 1 1 1 1 1 1 1 1 1 1 1 1 1 1 1 1 1 1 1 1 1 1 1 1 1 1 1 1 1 1 1 1 1 1 1 1 1 1 1 1 1 1 1 1 1 1 1 1 1 1 1 1 1 1 1 1 1</float_array>
          <technique_common>
            <accessor source="#geom-Npc_Judge_Flag__M_Flag-map0-array" count="336" stride="3">
              <param name="R" type="float"/>
              <param name="G" type="float"/>
              <param name="B" type="float"/>
            </accessor>
          </technique_common>
        </source>
        <source id="geom-Npc_Judge_Flag__M_Flag-map1">
          <float_array id="geom-Npc_Judge_Flag__M_Flag-map1-array" count="1008">0.5705806 0.925597 0 0.5705806 0.9210498 0 0.9258869 0.925597 0 0.9258869 0.9210498 0 0.8741894 0.8791943 0 0.9196612 0.8791943 0 0.9196612 0.8864271 0 0.8741894 0.8864271 0 0.831281 0.8791943 0 0.831281 0.8864271 0 0.7883726 0.8791943 0 0.7883726 0.8864271 0 0.7429007 0.8791943 0 0.7429007 0.8864271 0 0.6984512 0.8791943 0 0.6984512 0.8864271 0 0.6555886 0.8791943 0 0.6555886 0.8864271 0 0.6125582 0.8788891 0 0.6125582 0.8867323 0 0.5862669 0.8776227 0 0.5862669 0.8879988 0 0.5720607 0.8760967 0 0.5720607 0.8895247 0 0.5635614 0.8902876 0 0.5635614 0.8751812 0 0.8741894 0.8864271 0 0.9196612 0.8864271 0 0.9196612 0.8791943 0 0.8741894 0.8791943 0 0.831281 0.8864271 0 0.831281 0.8791943 0 0.7883726 0.8864271 0 0.7883726 0.8791943 0 0.7429007 0.8864271 0 0.7429007 0.8791943 0 0.6984512 0.8864271 0 0.6984512 0.8791943 0 0.6555886 0.8864271 0 0.6555886 0.8791943 0 0.6125582 0.8867323 0 0.6125582 0.8788891 0 0.5862669 0.8879988 0 0.5862669 0.8776227 0 0.5720607 0.8895247 0 0.5720607 0.8760967 0 0.5635614 0.8751812 0 0.5635614 0.8902876 0 0.1129625 0.03193712 0 0.01393149 0.03193712 0 0.01393149 0.6886244 0 0.1129778 0.6886244 0 0.2064393 0.03193712 0 0.2064546 0.6886244 0 0.2999161 0.03193712 0 0.2999161 0.6886244 0 0.3989624 0.03193712 0 0.3989624 0.6886244 0 0.4957961 0.03193712 0 0.4957961 0.6886244 0 0.5891508 0.03193712 0 0.5891508 0.6886244 0 0.682887 0.03193712 0 0.6829023 0.6886244 0 0.7401693 0.03193712 0 0.7401846 0.6886244 0 0.7710994 0.03193712 0 0.7710994 0.6886244 0 0.7896239 0.6886244 0 0.7896086 0.03193712 0 0.1131304 0.6896772 0 0.01391623 0.6896772 0 0.01393149 0.03193712 0 0.1131304 0.03193712 0 0.2067445 0.6896772 0 0.2067445 0.03193712 0 0.3003739 0.6896772 0 0.3003739 0.03193712 0 0.3995728 0.6896772 0 0.3995728 0.03193712 0 0.4965591 0.6896772 0 0.4965591 0.03193712 0 0.5900664 0.6896772 0 0.5900664 0.03193712 0 0.6839551 0.6896772 0 0.6839704 0.03193712 0 0.7413291 0.6896772 0 0.7413443 0.03193712 0 0.7723049 0.6896772 0 0.7723049 0.03195238 0 0.7908598 0.03195238 0 0.7908598 0.6896772 0 0.8203555 0.6896772 0 0.8203555 0.03195238 0 0.8524605 0.03195238 0 0.8524605 0.6896772 0 0.8845807 0.03195238 0 0.8845655 0.6896772 0 0.9166858 0.03195238 0 0.9166858 0.6896772 0 0.948806 0.03195238 0 0.9487907 0.6896772 0 0.978088 0.6896772 0 0.978088 0.03195238 0 0.08570993 0.879118 0 0.1292134 0.879118 0 0.1509575 0.9167926 0 0.06396582 0.9167926 0 0.08570993 0.9544671 0 0.1292134 0.9544671 0 0.3928893 0.9508659 0 0.3511559 0.9549096 0 0.3267719 0.9207904 0 0.4074922 0.9152209 0 0.4070191 0.9104295 0 0.3858702 0.8785535 0 0.3441367 0.8826123 0 0.422385 0.9270161 0 0.4353094 0.8871137 0 0.4763256 0.8783703 0 0.4489662 0.9545281 0 0.4535286 0.9560083 0 0.4914778 0.9494163 0 0.5044022 0.909514 0 0.06456092 0.7582208 0 0.06012055 0.7459678 0 0.06337072 0.7440146 0 0.9448234 0.7528496 0 0.9445335 0.7389944 0 0.06803998 0.757641 0 0.06564431 0.7717861 0 0.9451286 0.7667658 0 0.06941329 0.7714657 0 0.06634623 0.784741 0 0.9453727 0.7806973 0 0.07002365 0.7848936 0 0.06645304 0.7986114 0 0.9455711 0.7946289 0 0.06999313 0.7987792 0 0.06501869 0.8119936 0 0.9457237 0.8085756 0 0.06860456 0.8125734 0 0.06118868 0.8242924 0 0.9458152 0.8224918 0 0.06442359 0.8261387 0 0.2696574 0.913817 0 0.2158389 0.9140612 0 0.2419928 0.866804 0 0.2426337 0.9604791 0 0.1871977 0.8684672 0 0.1902647 0.9607843 0 0.1625391 0.9162432 0 0.5635614 0.8902876 0 0.5862669 0.8879988 0 0.5635614 0.8751812 0 0.2426337 0.9604791 0 0.1625391 0.9162432 0 0.2419928 0.866804 0 0.831281 0.8864271 0 0.831281 0.8791943 0 0.8741894 0.8791943 0 0.7883726 0.8864271 0 0.7429007 0.8864271 0 0.7429007 0.8791943 0 0.7883726 0.8864271 0 0.6984512 0.8791943 0 0.6555886 0.8864271 0 0.6555886 0.8791943 0 0.6984512 0.8791943 0 0.6125582 0.8788891 0 0.5862669 0.8879988 0 0.5862669 0.8776227 0 0.6125582 0.8788891 0 0.5720607 0.8760967 0 0.8741894 0.8791943 0 0.8741894 0.8864271 0 0.9196612 0.8864271 0 0.831281 0.8864271 0 0.7883726 0.8791943 0 0.7883726 0.8864271 0 0.831281 0.8864271 0 0.7429007 0.8864271 0 0.6984512 0.8791943 0 0.6984512 0.8864271 0 0.7429007 0.8864271 0 0.6555886 0.8864271 0 0.6125582 0.8788891 0 0.6125582 0.8867323 0 0.6555886 0.8864271 0 0.5862669 0.8879988 0 0.06396582 0.9167926 0 0.1292134 0.879118 0 0.08570993 0.9544671 0 0.1292134 0.9544671 0 0.1129625 0.03193712 0 0.01393149 0.03193712 0 0.01393149 0.6886244 0 0.1129778 0.6886244 0 0.2064393 0.03193712 0 0.2064546 0.6886244 0 0.2999161 0.03193712 0 0.2999161 0.6886244 0 0.3989624 0.03193712 0 0.3989624 0.6886244 0 0.4957961 0.03193712 0 0.4957961 0.6886244 0 0.5891508 0.03193712 0 0.5891508 0.6886244 0 0.682887 0.03193712 0 0.6829023 0.6886244 0 0.7401693 0.03193712 0 0.7401846 0.6886244 0 0.7896086 0.03193712 0 0.7896239 0.6886244 0 0.1131304 0.6896772 0 0.01391623 0.6896772 0 0.01393149 0.03193712 0 0.1131304 0.03193712 0 0.2067445 0.6896772 0 0.2067445 0.03193712 0 0.3003739 0.6896772 0 0.3003739 0.03193712 0 0.3995728 0.6896772 0 0.3995728 0.03193712 0 0.4965591 0.6896772 0 0.4965591 0.03193712 0 0.5900664 0.6896772 0 0.5900664 0.03193712 0 0.6839551 0.6896772 0 0.6839704 0.03193712 0 0.7413291 0.6896772 0 0.7413443 0.03193712 0 0.7908598 0.6896772 0 0.7908598 0.03195238 0 0.7908598 0.03195238 0 0.8203555 0.6896772 0 0.7908598 0.6896772 0 0.8524605 0.03195238 0 0.8524605 0.6896772 0 0.8845807 0.03195238 0 0.8845655 0.6896772 0 0.9166858 0.03195238 0 0.9166858 0.6896772 0 0.948806 0.03195238 0 0.9487907 0.6896772 0 0.978088 0.6896772 0 0.978088 0.03195238 0 0.06803998 0.757641 0 0.06337072 0.7440146 0 0.9445335 0.7389944 0 0.9451286 0.7667658 0 0.07002365 0.7848936 0 0.9455711 0.7946289 0 0.06860456 0.8125734 0 0.9458152 0.8224918 0 0.06442359 0.8261387 0 0.3928893 0.9508659 0 0.3511559 0.9549096 0 0.3267719 0.9207904 0 0.4074922 0.9152209 0 0.3858702 0.8785535 0 0.4074922 0.9152209 0 0.3441367 0.8826123 0 0.422385 0.9270161 0 0.4353094 0.8871137 0 0.4763256 0.8783703 0 0.4489662 0.9545281 0 0.4535286 0.9560083 0 0.5044022 0.909514 0 0.831281 0.8864271 0 0.9196612 0.8864271 0 0.8741894 0.8791943 0 0.6555886 0.8864271 0 0.7429007 0.8864271 0 0.6984512 0.8791943 0 0.7896086 0.03193712 0 0.7401693 0.03193712 0 0.7896239 0.6886244 0 0.7413443 0.03193712 0 0.8845807 0.03195238 0 0.8845655 0.6896772 0 0.06396582 0.9167926 0 0.08570993 0.879118 0 0.1509575 0.9167926 0 0.2426337 0.9604791 0 0.1625391 0.9162432 0 0.2419928 0.866804 0 0.6125582 0.8788891 0 0.6984512 0.8791943 0 0.6555886 0.8864271 0 0.7429007 0.8791943 0 0.7429007 0.8864271 0 0.7883726 0.8864271 0 0.1131304 0.6896772 0 0.01391623 0.6896772 0 0.01393149 0.03193712 0 0.2067445 0.6896772 0 0.01393149 0.03193712 0 0.2067445 0.03193712 0 0.4965591 0.6896772 0 0.3995728 0.03193712 0 0.5900664 0.6896772 0 0.5900664 0.03193712 0 0.6839551 0.6896772 0 0.8845655 0.6896772 0 0.7413443 0.03193712 0 0.06803998 0.757641 0 0.9445335 0.7389944 0 0.9451286 0.7667658 0 0.06941329 0.7714657 0 0.9455711 0.7946289 0 0.06999313 0.7987792 0 0.9458152 0.8224918 0 0.06442359 0.8261387 0 0.1129625 0.03193712 0 0.01393149 0.03193712 0 0.01393149 0.6886244 0 0.1129778 0.6886244 0 0.2064393 0.03193712 0 0.2064546 0.6886244 0 0.3989624 0.03193712 0 0.2064393 0.03193712 0 0.2999161 0.6886244 0 0.3989624 0.6886244 0 0.4957961 0.03193712 0 0.4957961 0.6886244 0 0.5891508 0.03193712 0 0.7401693 0.03193712 0 0.6829023 0.6886244 0 0.7896239 0.6886244 0 0.2067445 0.6896772 0 0.2067445 0.03193712 0 0.3003739 0.6896772 0 0.3995728 0.6896772 0 0.3995728 0.03193712 0 0.4965591 0.6896772 0</float_array>
          <technique_common>
            <accessor source="#geom-Npc_Judge_Flag__M_Flag-map1-array" count="336" stride="3">
              <param name="S" type="float"/>
              <param name="T" type="float"/>
              <param name="P" type="float"/>
            </accessor>
          </technique_common>
        </source>
        <vertices id="geom-Npc_Judge_Flag__M_Flag-vertices">
          <input semantic="POSITION" source="#geom-Npc_Judge_Flag__M_Flag-positions"/>
        </vertices>
        <triangles material="M_Flag" count="138">
          <input semantic="VERTEX" source="#geom-Npc_Judge_Flag__M_Flag-vertices" offset="0"/>
          <input semantic="NORMAL" source="#geom-Npc_Judge_Flag__M_Flag-normals" offset="1"/>
          <input semantic="COLOR" source="#geom-Npc_Judge_Flag__M_Flag-map0" offset="2" set="0"/>
          <input semantic="TEXCOORD" source="#geom-Npc_Judge_Flag__M_Flag-map1" offset="3" set="0"/>
          <p>0 0 0 0 1 1 1 1 2 2 2 2 1 1 1 1 3 3 3 3 2 2 2 2 4 4 4 4 5 5 5 5 6 6 6 6 7 7 7 7 4 4 4 4 6 6 6 6 8 8 8 8 4 4 4 4 7 7 7 7 9 9 9 9 8 8 8 8 7 7 7 7 10 10 10 10 8 8 8 8 9 9 9 9 11 11 11 11 10 10 10 10 9 9 9 9 12 12 12 12 10 10 10 10 11 11 11 11 13 13 13 13 12 12 12 12 11 11 11 11 14 14 14 14 12 12 12 12 13 13 13 13 15 15 15 15 14 14 14 14 13 13 13 13 16 16 16 16 14 14 14 14 15 15 15 15 17 17 17 17 16 16 16 16 15 15 15 15 18 18 18 18 16 16 16 16 17 17 17 17 19 19 19 19 18 18 18 18 17 17 17 17 20 20 20 20 18 18 18 18 19 19 19 19 21 21 21 21 20 20 20 20 19 19 19 19 22 22 22 22 20 20 20 20 21 21 21 21 22 22 22 22 21 21 21 21 23 23 23 23 24 24 24 24 22 22 22 22 23 23 23 23 24 24 24 24 25 25 25 25 22 22 22 22 26 26 26 26 27 27 27 27 28 28 28 28 29 29 29 29 26 26 26 26 28 28 28 28 30 30 30 30 26 26 26 26 29 29 29 29 31 31 31 31 30 30 30 30 29 29 29 29 32 32 32 32 30 30 30 30 31 31 31 31 33 33 33 33 32 32 32 32 31 31 31 31 34 34 34 34 32 32 32 32 33 33 33 33 35 35 35 35 34 34 34 34 33 33 33 33 36 36 36 36 34 34 34 34 35 35 35 35 37 37 37 37 36 36 36 36 35 35 35 35 38 38 38 38 36 36 36 36 37 37 37 37 39 39 39 39 38 38 38 38 37 37 37 37 40 40 40 40 38 38 38 38 39 39 39 39 41 41 41 41 40 40 40 40 39 39 39 39 42 42 42 42 40 40 40 40 41 41 41 41 43 43 43 43 42 42 42 42 41 41 41 41 44 44 44 44 42 42 42 42 43 43 43 43 44 44 44 44 43 43 43 43 45 45 45 45 44 44 44 44 45 45 45 45 46 46 46 46 47 47 47 47 44 44 44 44 46 46 46 46 48 48 48 48 49 49 49 49 50 50 50 50 51 51 51 51 48 48 48 48 50 50 50 50 52 52 52 52 48 48 48 48 51 51 51 51 53 53 53 53 52 52 52 52 51 51 51 51 54 54 54 54 52 52 52 52 53 53 53 53 55 55 55 55 54 54 54 54 53 53 53 53 56 56 56 56 54 54 54 54 55 55 55 55 57 57 57 57 56 56 56 56 55 55 55 55 58 58 58 58 56 56 56 56 57 57 57 57 59 59 59 59 58 58 58 58 57 57 57 57 60 60 60 60 58 58 58 58 59 59 59 59 61 61 61 61 60 60 60 60 59 59 59 59 62 62 62 62 60 60 60 60 61 61 61 61 63 63 63 63 62 62 62 62 61 61 61 61 64 64 64 64 62 62 62 62 63 63 63 63 65 65 65 65 64 64 64 64 63 63 63 63 66 66 66 66 64 64 64 64 65 65 65 65 66 66 66 66 65 65 65 65 67 67 67 67 68 68 68 68 66 66 66 66 67 67 67 67 68 68 68 68 69 69 69 69 66 66 66 66 70 70 70 70 71 71 71 71 72 72 72 72 73 73 73 73 70 70 70 70 72 72 72 72 74 74 74 74 70 70 70 70 73 73 73 73 74 74 74 74 73 73 73 73 75 75 75 75 74 74 74 74 75 75 75 75 76 76 76 76 75 75 75 75 77 77 77 77 76 76 76 76 76 76 76 76 77 77 77 77 78 78 78 78 77 77 77 77 79 79 79 79 78 78 78 78 78 78 78 78 79 79 79 79 80 80 80 80 79 79 79 79 81 81 81 81 80 80 80 80 80 80 80 80 81 81 81 81 82 82 82 82 81 81 81 81 83 83 83 83 82 82 82 82 82 82 82 82 83 83 83 83 84 84 84 84 83 83 83 83 85 85 85 85 84 84 84 84 84 84 84 84 85 85 85 85 86 86 86 86 85 85 85 85 87 87 87 87 86 86 86 86 86 86 86 86 87 87 87 87 88 88 88 88 87 87 87 87 89 89 89 89 88 88 88 88 88 88 88 88 89 89 89 89 90 90 90 90 88 88 88 88 90 90 90 90 91 91 91 91 90 90 90 90 92 92 92 92 91 91 91 91 90 90 90 90 93 93 93 93 92 92 92 92 93 93 93 93 94 94 94 94 92 92 92 92 92 92 92 92 94 94 94 94 95 95 95 95 94 94 94 94 96 96 96 96 95 95 95 95 95 95 95 95 96 96 96 96 97 97 97 97 96 96 96 96 98 98 98 98 97 97 97 97 97 97 97 97 98 98 98 98 99 99 99 99 98 98 98 98 100 100 100 100 99 99 99 99 99 99 99 99 100 100 100 100 101 101 101 101 100 100 100 100 102 102 102 102 101 101 101 101 100 100 100 100 103 103 103 103 102 102 102 102 104 104 104 104 105 105 105 105 106 106 106 106 107 107 107 107 104 104 104 104 106 106 106 106 107 107 107 107 106 106 106 106 108 108 108 108 106 106 106 106 109 109 109 109 108 108 108 108 110 110 110 110 111 111 111 111 112 112 112 112 113 113 113 113 110 110 110 110 112 112 112 112 113 113 113 113 112 112 112 112 114 114 114 114 112 112 112 112 115 115 115 115 114 114 114 114 112 112 112 112 116 116 116 116 115 115 115 115 117 117 117 117 118 118 118 118 119 119 119 119 120 120 120 120 117 117 117 117 119 119 119 119 120 120 120 120 119 119 119 119 121 121 121 121 119 119 119 119 122 122 122 122 121 121 121 121 119 119 119 119 123 123 123 123 122 122 122 122 124 124 124 124 125 125 125 125 126 126 126 126 127 127 127 127 126 126 126 126 128 128 128 128 129 129 129 129 124 124 124 124 126 126 126 126 129 129 129 129 126 126 126 126 127 127 127 127 130 130 130 130 124 124 124 124 129 129 129 129 129 129 129 129 127 127 127 127 131 131 131 131 130 130 130 130 129 129 129 129 132 132 132 132 132 132 132 132 129 129 129 129 131 131 131 131 130 130 130 130 132 132 132 132 133 133 133 133 132 132 132 132 131 131 131 131 134 134 134 134 132 132 132 132 135 135 135 135 133 133 133 133 132 132 132 132 134 134 134 134 135 135 135 135 133 133 133 133 135 135 135 135 136 136 136 136 134 134 134 134 137 137 137 137 135 135 135 135 135 135 135 135 138 138 138 138 136 136 136 136 135 135 135 135 137 137 137 137 138 138 138 138 136 136 136 136 138 138 138 138 139 139 139 139 137 137 137 137 140 140 140 140 138 138 138 138 138 138 138 138 141 141 141 141 139 139 139 139 138 138 138 138 140 140 140 140 141 141 141 141 139 139 139 139 141 141 141 141 142 142 142 142 140 140 140 140 143 143 143 143 141 141 141 141 141 141 141 141 144 144 144 144 142 142 142 142 141 141 141 141 143 143 143 143 144 144 144 144 145 145 145 145 146 146 146 146 147 147 147 147 145 145 145 145 148 148 148 148 146 146 146 146 146 146 146 146 149 149 149 149 147 147 147 147 146 146 146 146 148 148 148 148 150 150 150 150 146 146 146 146 151 151 151 151 149 149 149 149 146 146 146 146 150 150 150 150 151 151 151 151</p>
        </triangles>
      </mesh>
    </geometry>
  </library_geometries>
  <library_controllers>
    <controller id="geom-Npc_Judge_Flag__M_Flag-skin1">
      <skin source="#geom-Npc_Judge_Flag__M_Flag">
        <bind_shape_matrix>1 0 0 0 0 1 0 0 0 0 1 0 0 0 0 1</bind_shape_matrix>
        <source id="geom-Npc_Judge_Flag__M_Flag-skin1-joints">
          <Name_array id="geom-Npc_Judge_Flag__M_Flag-skin1-joints-array" count="5">joint0 joint1 joint2 joint3 joint4</Name_array>
          <technique_common>
            <accessor source="#geom-Npc_Judge_Flag__M_Flag-skin1-joints-array" count="5" stride="1">
              <param name="JOINT" type="name"/>
            </accessor>
          </technique_common>
        </source>
        <source id="geom-Npc_Judge_Flag__M_Flag-skin1-bind_poses">
          <float_array id="geom-Npc_Judge_Flag__M_Flag-skin1-bind_poses-array" count="80">1 0 0 0 0 0 1 0 0 -1 0 0 0 0 0 1 1 0 0 -0.01684636 0 0 1 0.02313246 0 -1 0 0 0 0 0 1 1 0 0 -0.03429932 0 0 1 0.02313246 0 -1 0 -0.3 0 0 0 1 1 0 0 -0.1762119 0 0 1 0.02313246 0 -1 0 -0.3 0 0 0 1 1 0 0 -0.3168611 0 0 1 0.02313246 0 -1 0 -0.3 0 0 0 1</float_array>
          <technique_common>
            <accessor source="#geom-Npc_Judge_Flag__M_Flag-skin1-bind_poses-array" count="5" stride="16">
              <param name="TRANSFORM" type="float4x4"/>
            </accessor>
          </technique_common>
        </source>
        <source id="geom-Npc_Judge_Flag__M_Flag-skin1-weights">
          <float_array id="geom-Npc_Judge_Flag__M_Flag-skin1-weights-array" count="584">1 0.7490196 0.2509804 0.7490196 0.2509804 0.7490196 0.2509804 0.7490196 0.2509804 0.7490196 0.2509804 0.7490196 0.2509804 0.7490196 0.2509804 0.7490196 0.2509804 0.7490196 0.0509804 0.2 0.7490196 0.0509804 0.2 0.7450981 0.01176471 0.1019608 0.1411765 0.7490196 0.1019608 0.1490196 0.7490196 0.09019608 0.1607843 0.7529413 0.07843138 0.1686275 0.7490196 0.1019608 0.1490196 0.7490196 0.1019608 0.1490196 0.7490196 0.1294118 0.1215686 0.7490196 0.1294118 0.1215686 0.7529413 0.1882353 0.05882353 0.7529413 0.1882353 0.05882353 0.3019608 0.6470588 0.0509804 0.3019608 0.6470588 0.0509804 0.6705883 0.3294118 0.6588235 0.3411765 0.7490196 0.2509804 0.7490196 0.2509804 0.7490196 0.2509804 0.7490196 0.2509804 0.7490196 0.0509804 0.2 0.7490196 0.0509804 0.2 0.7490196 0.1019608 0.1490196 0.7450981 0.01176471 0.1019608 0.1411765 0.7490196 0.09019608 0.1607843 0.7490196 0.09019608 0.1607843 0.7490196 0.1019608 0.1490196 0.7490196 0.1098039 0.1411765 0.7490196 0.1215686 0.1294118 0.7490196 0.1294118 0.1215686 0.7529413 0.1882353 0.05882353 0.7529413 0.1882353 0.05882353 0.3019608 0.6470588 0.0509804 0.3019608 0.6470588 0.0509804 0.5686275 0.4313726 0.6392157 0.3607843 0.8392158 0.1607843 0.8196079 0.1803922 0.7490196 0.2509804 0.7490196 0.2509804 0.7490196 0.2509804 0.7490196 0.2509804 0.7490196 0.0509804 0.2 0.7490196 0.0509804 0.2 0.7450981 0.01176471 0.1019608 0.1411765 0.7450981 0.01176471 0.1019608 0.1411765 0.7490196 0.09019608 0.1607843 0.7490196 0.09019608 0.1607843 0.7490196 0.1098039 0.1411765 0.7490196 0.1019608 0.1490196 0.7490196 0.1294118 0.1215686 0.7490196 0.1294118 0.1215686 0.7529413 0.1882353 0.05882353 0.7529413 0.1882353 0.05882353 0.3019608 0.6470588 0.0509804 0.3019608 0.6470588 0.0509804 0.6392157 0.3607843 0.6705883 0.3294118 0.8392158 0.1607843 0.7490196 0.2509804 0.7490196 0.2509804 0.7490196 0.2509804 0.7490196 0.2509804 0.7490196 0.0509804 0.2 0.7490196 0.0509804 0.2 0.7490196 0.1019608 0.1490196 0.7490196 0.1019608 0.1490196 0.7529413 0.07843138 0.1686275 0.7490196 0.09019608 0.1607843 0.7490196 0.1019608 0.1490196 0.7490196 0.1019608 0.1490196 0.7490196 0.1294118 0.1215686 0.7490196 0.1215686 0.1294118 0.7529413 0.1882353 0.05882353 0.7529413 0.1882353 0.05882353 0.3019608 0.6470588 0.0509804 0.3019608 0.6470588 0.0509804 0.6588235 0.3411765 0.5686275 0.4313726 0.8196079 0.1803922 0.8392158 0.1607843 0.8392158 0.1607843 0.8196079 0.1803922 0.8196079 0.1803922 0.3019608 0.6470588 0.0509804 0.8392158 0.1607843 0.7490196 0.0509804 0.2 0.7490196 0.0509804 0.2 0.7490196 0.2509804 0.7490196 0.1019608 0.1490196 0.7529413 0.07843138 0.1686275 0.7490196 0.09019608 0.1607843 0.7490196 0.1019608 0.1490196 0.7490196 0.1019608 0.1490196 0.7490196 0.1294118 0.1215686 0.7490196 0.1294118 0.1215686 0.7490196 0.1019608 0.1490196 0.7529413 0.1882353 0.05882353 0.3019608 0.6470588 0.0509804 0.3019608 0.6470588 0.0509804 0.7529413 0.1882353 0.05882353 0.7490196 0.2509804 0.7490196 0.2509804 0.7490196 0.2509804 0.7490196 0.0509804 0.2 0.7450981 0.01176471 0.1019608 0.1411765 0.7490196 0.1019608 0.1490196 0.7490196 0.0509804 0.2 0.7490196 0.09019608 0.1607843 0.7490196 0.1098039 0.1411765 0.7490196 0.1019608 0.1490196 0.7490196 0.09019608 0.1607843 0.7490196 0.1215686 0.1294118 0.7529413 0.1882353 0.05882353 0.7529413 0.1882353 0.05882353 0.7490196 0.1215686 0.1294118 0.3019608 0.6470588 0.0509804 0.7490196 0.2509804 0.7490196 0.2509804 0.7490196 0.2509804 0.7490196 0.2509804 0.7490196 0.0509804 0.2 0.7490196 0.0509804 0.2 0.7450981 0.01176471 0.1019608 0.1411765 0.7490196 0.1019608 0.1490196 0.7490196 0.09019608 0.1607843 0.7490196 0.09019608 0.1607843 0.7490196 0.1098039 0.1411765 0.7490196 0.1019608 0.1490196 0.7490196 0.1215686 0.1294118 0.7490196 0.1294118 0.1215686 0.7529413 0.1882353 0.05882353 0.7529413 0.1882353 0.05882353 0.3019608 0.6470588 0.0509804 0.3019608 0.6470588 0.0509804 0.8392158 0.1607843 0.7490196 0.2509804 0.7490196 0.2509804 0.7490196 0.2509804 0.7490196 0.2509804 0.7490196 0.0509804 0.2 0.7490196 0.0509804 0.2 0.7490196 0.1019608 0.1490196 0.7490196 0.1019608 0.1490196 0.7529413 0.07843138 0.1686275 0.7490196 0.09019608 0.1607843 0.7490196 0.1019608 0.1490196 0.7490196 0.1019608 0.1490196 0.7490196 0.1294118 0.1215686 0.7490196 0.1215686 0.1294118 0.7529413 0.1882353 0.05882353 0.7529413 0.1882353 0.05882353 0.3019608 0.6470588 0.0509804 0.3019608 0.6470588 0.0509804 0.8196079 0.1803922 0.8196079 0.1803922 0.8392158 0.1607843 0.8392158 0.1607843 0.8196079 0.1803922 0.7490196 0.0509804 0.2 0.7490196 0.2509804 0.7490196 0.2509804 0.7490196 0.1215686 0.1294118 0.7490196 0.09019608 0.1607843 0.7490196 0.1098039 0.1411765 0.3019608 0.6470588 0.0509804 0.3019608 0.6470588 0.0509804 0.7529413 0.1882353 0.05882353 0.7490196 0.1019608 0.1490196 0.7490196 0.1294118 0.1215686 0.7490196 0.09019608 0.1607843 0.7529413 0.07843138 0.1686275 0.7490196 0.1019608 0.1490196 0.7490196 0.2509804 0.7490196 0.2509804 0.7490196 0.2509804 0.7490196 0.0509804 0.2 0.7490196 0.2509804 0.7490196 0.0509804 0.2 0.7490196 0.1019608 0.1490196 0.7490196 0.09019608 0.1607843 0.7490196 0.1294118 0.1215686 0.7490196 0.1215686 0.1294118 0.7529413 0.1882353 0.05882353 0.3019608 0.6470588 0.0509804 0.7490196 0.2509804 0.7490196 0.2509804 0.7490196 0.2509804 0.7490196 0.2509804 0.7490196 0.0509804 0.2 0.7490196 0.0509804 0.2 0.7490196 0.09019608 0.1607843 0.7490196 0.0509804 0.2 0.7490196 0.1019608 0.1490196 0.7490196 0.09019608 0.1607843 0.7490196 0.1098039 0.1411765 0.7490196 0.1019608 0.1490196 0.7490196 0.1215686 0.1294118 0.3019608 0.6470588 0.0509804 0.7529413 0.1882353 0.05882353 0.7490196 0.0509804 0.2 0.7490196 0.0509804 0.2 0.7490196 0.1019608 0.1490196 0.7529413 0.07843138 0.1686275 0.7490196 0.09019608 0.1607843 0.7490196 0.1019608 0.1490196</float_array>
          <technique_common>
            <accessor source="#geom-Npc_Judge_Flag__M_Flag-skin1-weights-array" count="584" stride="1">
              <param name="WEIGHT" type="float"/>
            </accessor>
          </technique_common>
        </source>
        <joints>
          <input semantic="JOINT" source="#geom-Npc_Judge_Flag__M_Flag-skin1-joints"/>
          <input semantic="INV_BIND_MATRIX" source="#geom-Npc_Judge_Flag__M_Flag-skin1-bind_poses"/>
        </joints>
        <vertex_weights count="336">
          <input semantic="JOINT" source="#geom-Npc_Judge_Flag__M_Flag-skin1-joints" offset="0"/>
          <input semantic="WEIGHT" source="#geom-Npc_Judge_Flag__M_Flag-skin1-weights" offset="1"/>
          <vcount>2 2 2 2 2 2 2 2 3 3 4 3 3 3 3 3 3 3 3 3 3 3 2 2 1 1 2 2 2 2 3 3 3 4 3 3 3 3 3 3 3 3 3 3 2 2 2 2 2 2 2 2 3 3 4 4 3 3 3 3 3 3 3 3 3 3 2 2 1 2 2 2 2 2 3 3 3 3 3 3 3 3 3 3 3 3 3 3 2 2 2 1 1 1 1 1 1 1 1 1 1 1 1 2 1 1 1 1 1 1 1 1 1 1 1 1 1 1 1 1 2 2 1 1 1 1 1 1 1 1 1 1 1 1 1 1 1 1 1 1 1 1 1 1 1 1 1 1 1 1 1 1 2 3 2 1 1 1 3 3 2 3 3 3 3 3 3 3 3 3 3 3 3 1 2 2 2 3 4 3 3 3 3 3 3 3 3 3 3 3 1 1 1 1 2 2 2 2 3 3 4 3 3 3 3 3 3 3 3 3 3 3 2 1 2 2 2 2 3 3 3 3 3 3 3 3 3 3 3 3 3 3 1 2 2 1 1 1 1 1 1 1 1 1 1 1 2 1 1 1 1 1 1 1 1 1 1 1 1 1 1 1 1 1 1 1 2 2 1 3 2 2 3 3 3 1 3 1 3 1 1 1 1 1 1 1 1 3 3 3 3 3 3 2 2 2 3 2 3 3 3 3 3 3 1 3 1 1 1 1 1 1 1 1 2 2 2 2 3 3 3 3 3 3 3 3 3 3 3 1 3 3 3 3 3 3</vcount>
          <v>1 1 4 2 1 3 4 4 1 5 4 6 1 7 4 8 1 9 4 10 1 11 4 12 1 13 4 14 1 15 4 16 1 17 3 18 4 19 1 20 3 21 4 22 1 23 2 24 3 25 4 26 1 27 3 28 4 29 1 30 2 31 3 32 1 33 2 34 3 35 1 36 2 37 3 38 1 39 2 40 3 41 1 42 2 43 3 44 1 45 2 46 3 47 1 48 2 49 3 50 1 51 2 52 3 53 1 54 2 55 3 56 1 57 2 58 3 59 1 60 2 61 1 62 2 63 1 0 1 0 1 64 4 65 1 66 4 67 1 68 4 69 1 70 4 71 1 72 3 73 4 74 1 75 3 76 4 77 1 78 3 79 4 80 1 81 2 82 3 83 4 84 1 85 2 86 3 87 1 88 2 89 3 90 1 91 2 92 3 93 1 94 2 95 3 96 1 97 2 98 3 99 1 100 2 101 3 102 1 103 2 104 3 105 1 106 2 107 3 108 1 109 2 110 3 111 1 112 2 113 3 114 1 115 2 116 1 117 2 118 1 119 2 120 1 121 2 122 1 123 4 124 1 125 4 126 1 127 4 128 1 129 4 130 1 131 3 132 4 133 1 134 3 135 4 136 1 137 2 138 3 139 4 140 1 141 2 142 3 143 4 144 1 145 2 146 3 147 1 148 2 149 3 150 1 151 2 152 3 153 1 154 2 155 3 156 1 157 2 158 3 159 1 160 2 161 3 162 1 163 2 164 3 165 1 166 2 167 3 168 1 169 2 170 3 171 1 172 2 173 3 174 1 175 2 176 1 177 2 178 1 0 1 179 2 180 1 181 4 182 1 183 4 184 1 185 4 186 1 187 4 188 1 189 3 190 4 191 1 192 3 193 4 194 1 195 3 196 4 197 1 198 3 199 4 200 1 201 2 202 3 203 1 204 2 205 3 206 1 207 2 208 3 209 1 210 2 211 3 212 1 213 2 214 3 215 1 216 2 217 3 218 1 219 2 220 3 221 1 222 2 223 3 224 1 225 2 226 3 227 1 228 2 229 3 230 1 231 2 232 1 233 2 234 1 235 2 236 1 0 1 0 1 0 1 0 1 0 1 0 1 0 1 0 1 0 1 0 1 0 1 0 1 237 2 238 1 0 1 0 1 0 1 0 1 0 1 0 1 0 1 0 1 0 1 0 1 0 1 0 1 0 1 0 1 0 1 0 1 239 2 240 1 241 2 242 1 0 1 0 1 0 1 0 1 0 1 0 1 0 1 0 1 0 1 0 1 0 1 0 1 0 1 0 1 0 1 0 1 0 1 0 1 0 1 0 1 0 1 0 1 0 1 0 1 0 1 0 1 0 1 0 1 0 1 0 1 243 2 244 1 245 2 246 3 247 1 248 2 249 1 0 1 0 1 0 1 250 3 251 4 252 1 253 3 254 4 255 1 256 4 257 1 258 3 259 4 260 1 261 2 262 3 263 1 264 2 265 3 266 1 267 3 268 4 269 1 270 2 271 3 272 1 273 2 274 3 275 1 276 2 277 3 278 1 279 2 280 3 281 1 282 2 283 3 284 1 285 2 286 3 287 1 288 2 289 3 290 1 291 2 292 3 293 1 0 1 294 4 295 1 296 4 297 1 298 4 299 1 300 3 301 4 302 1 303 2 304 3 305 4 306 1 307 3 308 4 309 1 310 3 311 4 312 1 313 2 314 3 315 1 316 2 317 3 318 1 319 2 320 3 321 1 322 2 323 3 324 1 325 2 326 3 327 1 328 2 329 3 330 1 331 2 332 3 333 1 334 2 335 3 336 1 337 2 338 3 339 1 0 1 0 1 0 1 0 1 340 4 341 1 342 4 343 1 344 4 345 1 346 4 347 1 348 3 349 4 350 1 351 3 352 4 353 1 354 2 355 3 356 4 357 1 358 3 359 4 360 1 361 2 362 3 363 1 364 2 365 3 366 1 367 2 368 3 369 1 370 2 371 3 372 1 373 2 374 3 375 1 376 2 377 3 378 1 379 2 380 3 381 1 382 2 383 3 384 1 385 2 386 3 387 1 388 2 389 3 390 1 391 2 392 1 0 1 393 4 394 1 395 4 396 1 397 4 398 1 399 4 400 1 401 3 402 4 403 1 404 3 405 4 406 1 407 3 408 4 409 1 410 3 411 4 412 1 413 2 414 3 415 1 416 2 417 3 418 1 419 2 420 3 421 1 422 2 423 3 424 1 425 2 426 3 427 1 428 2 429 3 430 1 431 2 432 3 433 1 434 2 435 3 436 1 437 2 438 3 439 1 440 2 441 3 442 1 0 1 443 2 444 1 445 2 446 1 0 1 0 1 0 1 0 1 0 1 0 1 0 1 0 1 0 1 0 1 0 1 447 2 448 1 0 1 0 1 0 1 0 1 0 1 0 1 0 1 0 1 0 1 0 1 0 1 0 1 0 1 0 1 0 1 0 1 0 1 0 1 0 1 449 2 450 1 451 2 452 1 0 1 453 3 454 4 455 1 456 4 457 1 458 4 459 1 460 2 461 3 462 1 463 2 464 3 465 1 466 2 467 3 468 1 0 1 469 2 470 3 471 1 0 1 472 2 473 3 474 1 0 1 0 1 0 1 0 1 0 1 0 1 0 1 0 1 475 2 476 3 477 1 478 2 479 3 480 1 481 2 482 3 483 1 484 2 485 3 486 1 487 2 488 3 489 1 490 3 491 4 492 1 493 4 494 1 495 4 496 1 497 4 498 1 499 3 500 4 501 1 502 4 503 1 504 3 505 4 506 1 507 2 508 3 509 1 510 2 511 3 512 1 513 2 514 3 515 1 516 2 517 3 518 1 519 2 520 3 521 1 0 1 522 2 523 3 524 1 0 1 0 1 0 1 0 1 0 1 0 1 0 1 0 1 525 4 526 1 527 4 528 1 529 4 530 1 531 4 532 1 533 3 534 4 535 1 536 3 537 4 538 1 539 2 540 3 541 1 542 3 543 4 544 1 545 3 546 4 547 1 548 2 549 3 550 1 551 2 552 3 553 1 554 2 555 3 556 1 557 2 558 3 559 1 560 2 561 3 562 1 563 2 564 3 565 1 0 1 566 3 567 4 568 1 569 3 570 4 571 1 572 3 573 4 574 1 575 2 576 3 577 1 578 2 579 3 580 1 581 2 582 3 583</v>
        </vertex_weights>
      </skin>
    </controller>
  </library_controllers>
  <library_lights>
    <light id="EnvironmentAmbientLight" name="EnvironmentAmbientLight">
      <technique_common>
        <ambient>
          <color>0 0 0</color>
        </ambient>
      </technique_common>
    </light>
  </library_lights>
  <library_images>
    <image id="M_Flag_Alb_png">
      <init_from>./M_Flag_Alb.png</init_from>
    </image>
  </library_images>
  <library_visual_scenes>
    <visual_scene id="MaxScene">
      <node name="EnvironmentAmbientLight">
        <instance_light url="#EnvironmentAmbientLight"/>
      </node>
      <node id="node-root" name="root" sid="joint0" type="JOINT">
        <rotate>-1 0 0 -90</rotate>
        <node id="node-skl_root" name="skl_root" sid="joint1" type="JOINT">
          <translate>0.01684636 -0.02313246 0</translate>
          <node id="node-flag1" name="flag1" sid="joint2" type="JOINT">
            <translate>0.01745296 0 0.3</translate>
            <node id="node-flag2" name="flag2" sid="joint3" type="JOINT">
              <translate>0.1419126 0 0</translate>
              <node id="node-flag3" name="flag3" sid="joint4" type="JOINT">
                <translate>0.1406491 0 0</translate>
                <extra>
                  <technique profile="OpenCOLLADA">
                    <cast_shadows sid="cast_shadows" type="bool">1</cast_shadows>
                    <receive_shadows sid="receive_shadows" type="bool">1</receive_shadows>
                    <primary_visibility sid="primary_visibility" type="bool">1</primary_visibility>
                    <secondary_visibility sid="secondary_visibility" type="bool">1</secondary_visibility>
                  </technique>
                </extra>
              </node>
              <extra>
                <technique profile="OpenCOLLADA">
                  <cast_shadows sid="cast_shadows" type="bool">1</cast_shadows>
                  <receive_shadows sid="receive_shadows" type="bool">1</receive_shadows>
                  <primary_visibility sid="primary_visibility" type="bool">1</primary_visibility>
                  <secondary_visibility sid="secondary_visibility" type="bool">1</secondary_visibility>
                </technique>
              </extra>
            </node>
            <extra>
              <technique profile="OpenCOLLADA">
                <cast_shadows sid="cast_shadows" type="bool">1</cast_shadows>
                <receive_shadows sid="receive_shadows" type="bool">1</receive_shadows>
                <primary_visibility sid="primary_visibility" type="bool">1</primary_visibility>
                <secondary_visibility sid="secondary_visibility" type="bool">1</secondary_visibility>
              </technique>
            </extra>
          </node>
          <extra>
            <technique profile="OpenCOLLADA">
              <cast_shadows sid="cast_shadows" type="bool">1</cast_shadows>
              <receive_shadows sid="receive_shadows" type="bool">1</receive_shadows>
              <primary_visibility sid="primary_visibility" type="bool">1</primary_visibility>
              <secondary_visibility sid="secondary_visibility" type="bool">1</secondary_visibility>
            </technique>
          </extra>
        </node>
        <extra>
          <technique profile="OpenCOLLADA">
            <cast_shadows sid="cast_shadows" type="bool">1</cast_shadows>
            <receive_shadows sid="receive_shadows" type="bool">1</receive_shadows>
            <primary_visibility sid="primary_visibility" type="bool">1</primary_visibility>
            <secondary_visibility sid="secondary_visibility" type="bool">1</secondary_visibility>
          </technique>
        </extra>
      </node>
      <node id="node-Npc_Judge_Flag__M_Flag" name="Npc_Judge_Flag__M_Flag">
        <instance_controller url="#geom-Npc_Judge_Flag__M_Flag-skin1">
          <skeleton>#node-root</skeleton>
          <bind_material>
            <technique_common>
              <instance_material symbol="M_Flag" target="#M_Flag-material">
                <bind_vertex_input semantic="CHANNEL1" input_semantic="TEXCOORD" input_set="0"/>
                <bind_vertex_input semantic="CHANNEL1" input_semantic="TEXCOORD" input_set="0"/>
              </instance_material>
            </technique_common>
          </bind_material>
        </instance_controller>
        <extra>
          <technique profile="OpenCOLLADA">
            <cast_shadows sid="cast_shadows" type="bool">1</cast_shadows>
            <receive_shadows sid="receive_shadows" type="bool">1</receive_shadows>
            <primary_visibility sid="primary_visibility" type="bool">1</primary_visibility>
            <secondary_visibility sid="secondary_visibility" type="bool">1</secondary_visibility>
          </technique>
        </extra>
      </node>
    </visual_scene>
  </library_visual_scenes>
  <scene>
    <instance_visual_scene url="#MaxScene"/>
  </scene>
</COLLADA>