<?xml version="1.0" encoding="utf-8"?>
<COLLADA xmlns="http://www.collada.org/2005/11/COLLADASchema" version="1.4.1" xmlns:xsi="http://www.w3.org/2001/XMLSchema-instance">
  <asset>
    <contributor>
      <author>Centrixe</author>
      <authoring_tool>OpenCOLLADA for 3ds Max;  Version: 1.6;  Revision: 68</authoring_tool>
    </contributor>
    <created>2022-09-24T11:25:20</created>
    <modified>2022-09-24T11:25:20</modified>
    <unit name="inch" meter="0.0254"/>
    <up_axis>Z_UP</up_axis>
  </asset>
  <library_effects>
    <effect id="M_Flag">
      <profile_COMMON>
        <newparam sid="M_FlagJr_Alb_png-surface">
          <surface type="2D">
            <init_from>M_FlagJr_Alb_png</init_from>
          </surface>
        </newparam>
        <newparam sid="M_FlagJr_Alb_png-sampler">
          <sampler2D>
            <source>M_FlagJr_Alb_png-surface</source>
          </sampler2D>
        </newparam>
        <technique sid="common">
          <blinn>
            <emission>
              <color>0 0 0 1</color>
            </emission>
            <ambient>
              <color>0.588 0.588 0.588 1</color>
            </ambient>
            <diffuse>
              <texture texture="M_FlagJr_Alb_png-sampler" texcoord="CHANNEL1"/>
            </diffuse>
            <specular>
              <color>0 0 0 1</color>
            </specular>
            <shininess>
              <float>10</float>
            </shininess>
            <reflective>
              <color>0 0 0 1</color>
            </reflective>
            <transparent opaque="A_ONE">
              <texture texture="M_FlagJr_Alb_png-sampler" texcoord="CHANNEL1"/>
            </transparent>
            <transparency>
              <float>1</float>
            </transparency>
          </blinn>
        </technique>
      </profile_COMMON>
      <extra>
        <technique profile="OpenCOLLADA3dsMax">
          <extended_shader>
            <opacity_type sid="opacity_type" type="int">0</opacity_type>
            <falloff_type sid="falloff_type" type="int">0</falloff_type>
            <falloff sid="falloff" type="float">0</falloff>
            <index_of_refraction sid="index_of_refraction" type="float">1.5</index_of_refraction>
            <wire_size sid="wire_size" type="float">1</wire_size>
            <wire_units sid="wire_units" type="int">0</wire_units>
            <apply_reflection_dimming sid="apply_reflection_dimming" type="bool">0</apply_reflection_dimming>
            <dim_level sid="dim_level" type="float">0</dim_level>
            <reflection_level sid="reflection_level" type="float">3</reflection_level>
          </extended_shader>
          <shader>
            <ambient_diffuse_texture_lock sid="ambient_diffuse_texture_lock" type="bool">1</ambient_diffuse_texture_lock>
            <ambient_diffuse_lock sid="ambient_diffuse_lock" type="bool">1</ambient_diffuse_lock>
            <diffuse_specular_lock sid="diffuse_specular_lock" type="bool">0</diffuse_specular_lock>
            <use_self_illum_color sid="use_self_illum_color" type="bool">0</use_self_illum_color>
            <self_illumination sid="self_illumination" type="float">0</self_illumination>
            <specular_level sid="specular_level" type="float">0</specular_level>
            <soften sid="soften" type="float">0.1</soften>
          </shader>
        </technique>
      </extra>
    </effect>
  </library_effects>
  <library_materials>
    <material id="M_Flag-material" name="M_Flag">
      <instance_effect url="#M_Flag"/>
    </material>
  </library_materials>
  <library_geometries>
    <geometry id="geom-Npc_Judge_Flag__M_Flag" name="Npc_Judge_Flag__M_Flag">
      <mesh>
        <source id="geom-Npc_Judge_Flag__M_Flag-positions">
          <float_array id="geom-Npc_Judge_Flag__M_Flag-positions-array" count="999">0.4519043 -0.1318359 -0.02360535 0.4519043 -0.1318359 -0.0227356 0.4519043 -0.4538574 -0.02360535 0.4519043 -0.4538574 -0.0227356 0.3981934 -0.4538574 -0.02360535 0.4519043 -0.4538574 -0.02360535 0.4519043 -0.4538574 -0.0227356 0.3981934 -0.4538574 -0.0227356 0.3476563 -0.4538575 -0.02360535 0.3476563 -0.4538575 -0.0227356 0.2971191 -0.4538575 -0.02360535 0.2971191 -0.4538575 -0.0227356 0.2436524 -0.4538575 -0.02360535 0.2436524 -0.4538575 -0.0227356 0.1912842 -0.4538575 -0.02360535 0.1912842 -0.4538575 -0.0227356 0.1408691 -0.4538574 -0.02360535 0.1408691 -0.4538574 -0.0227356 0.09020997 -0.4538575 -0.02363587 0.09020997 -0.4538575 -0.02270508 0.05923462 -0.4538575 -0.02378845 0.05923462 -0.4538575 -0.02255249 0.04251099 -0.4538574 -0.02397156 0.04251099 -0.4538574 -0.02236938 0.03121948 -0.4538574 -0.02227783 0.03121948 -0.4538574 -0.02407837 0.3981934 -0.4538574 -0.0227356 0.4519043 -0.4538574 -0.0227356 0.4519043 -0.1318359 -0.0227356 0.3981934 -0.1318359 -0.0227356 0.3476563 -0.4538575 -0.0227356 0.3476563 -0.1318359 -0.0227356 0.2971191 -0.4538575 -0.0227356 0.2971191 -0.1318359 -0.0227356 0.2436524 -0.4538575 -0.0227356 0.2436524 -0.1318359 -0.0227356 0.1912842 -0.4538575 -0.0227356 0.1912842 -0.1318359 -0.0227356 0.1408691 -0.4538574 -0.0227356 0.1408691 -0.1318359 -0.0227356 0.09020997 -0.4538575 -0.02270508 0.09020997 -0.131836 -0.02270508 0.05923462 -0.4538575 -0.02255249 0.05923462 -0.1318359 -0.02255249 0.04251099 -0.4538574 -0.02236938 0.04251099 -0.1318359 -0.02236939 0.03121949 -0.131836 -0.02227783 0.03121948 -0.4538574 -0.02227783 0.0244751 -0.4538574 -0.009506226 0.0244751 -0.1318359 -0.009506226 0.008758545 -0.1318359 -0.009506226 0.008758545 -0.4538574 -0.009506226 8.955e-4 -0.1318359 -0.02313232 8.955e-4 -0.4538574 -0.02313232 0.008758545 -0.1318359 -0.03674316 0.008758545 -0.4538574 -0.03674316 0.0244751 -0.1318359 -0.03674316 0.0244751 -0.4538574 -0.03674316 0.03121948 -0.4538574 -0.02407837 0.03121948 -0.131836 -0.02407837 0.3981934 -0.1318359 -0.0227356 0.4519043 -0.1318359 -0.0227356 0.4519043 -0.1318359 -0.02360535 0.3981934 -0.1318359 -0.02360535 0.3476563 -0.1318359 -0.0227356 0.3476563 -0.1318359 -0.02360535 0.2971191 -0.1318359 -0.0227356 0.2971191 -0.1318359 -0.02360535 0.2436524 -0.1318359 -0.0227356 0.2436524 -0.1318359 -0.02360535 0.1912842 -0.1318359 -0.0227356 0.1912842 -0.1318359 -0.02360535 0.1408691 -0.1318359 -0.0227356 0.1408691 -0.1318359 -0.02360535 0.09020997 -0.131836 -0.02270508 0.09020997 -0.131836 -0.02363587 0.05923462 -0.1318359 -0.02255249 0.05923462 -0.1318359 -0.02378845 0.04251099 -0.1318359 -0.02236939 0.04251099 -0.1318359 -0.02397156 0.03121948 -0.131836 -0.02407837 0.03121949 -0.131836 -0.02227783 0.3981934 -0.1318359 -0.02360535 0.4519043 -0.1318359 -0.02360535 0.4519043 -0.4538574 -0.02360535 0.3981934 -0.4538574 -0.02360535 0.3476563 -0.1318359 -0.02360535 0.3476563 -0.4538575 -0.02360535 0.2971191 -0.1318359 -0.02360535 0.2971191 -0.4538575 -0.02360535 0.2436524 -0.1318359 -0.02360535 0.2436524 -0.4538575 -0.02360535 0.1912842 -0.1318359 -0.02360535 0.1912842 -0.4538575 -0.02360535 0.1408691 -0.1318359 -0.02360535 0.1408691 -0.4538574 -0.02360535 0.09020997 -0.131836 -0.02363587 0.09020997 -0.4538575 -0.02363587 0.05923462 -0.1318359 -0.02378845 0.05923462 -0.4538575 -0.02378845 0.04251099 -0.1318359 -0.02397156 0.04251099 -0.4538574 -0.02397156 0.03121948 -0.4538574 -0.02407837 0.03121948 -0.131836 -0.02407837 0.01094055 0.07366943 -0.01308441 0.02252197 0.07366943 -0.01308441 0.005142212 0.07366943 -0.02313232 0.02832031 0.07366943 -0.02313232 0.02252197 0.07366943 -0.03317261 0.01094055 0.07366943 -0.03317261 0.008758545 -0.1318359 -0.009506226 0.0244751 -0.1318359 -0.009506226 8.955e-4 -0.1318359 -0.02313232 0.03121949 -0.131836 -0.02227783 0.03121948 -0.131836 -0.02407837 0.0244751 -0.1318359 -0.03674316 0.008758545 -0.1318359 -0.03674316 0.0244751 -0.4538574 -0.009506226 0.008758545 -0.4538574 -0.009506226 8.955e-4 -0.4538574 -0.02313232 0.03121948 -0.4538574 -0.02227783 0.03121948 -0.4538574 -0.02407837 0.0244751 -0.4538574 -0.03674316 0.008758545 -0.4538574 -0.03674316 0.02348328 0.07220459 -0.01143646 0.02348328 -0.4541016 -0.01143646 0.03022766 -0.4541016 -0.02313232 0.02252197 0.07366943 -0.01308441 0.02832031 0.07366943 -0.02313232 0.03022766 0.07220459 -0.02313232 0.02348328 -0.4541016 -0.03482056 0.02252197 0.07366943 -0.03317261 0.02348328 0.07220459 -0.03482056 0.009986877 -0.4541016 -0.03482056 0.01094055 0.07366943 -0.03317261 0.009986877 0.07220459 -0.03482056 0.003236771 -0.4541016 -0.02313232 0.005142212 0.07366943 -0.02313232 0.003236771 0.07220459 -0.02313232 0.009986877 -0.4541016 -0.01143646 0.01094055 0.07366943 -0.01308441 0.009986877 0.07220459 -0.01143646 0.02348328 -0.4541016 -0.01143646 0.02252197 0.07366943 -0.01308441 0.02348328 0.07220459 -0.01143646 0.02348328 -0.4541016 -0.01143646 0.009986877 -0.4541016 -0.01143646 0.01672363 -0.4541016 -0.02313232 0.03022766 -0.4541016 -0.02313232 0.003236771 -0.4541016 -0.02313232 0.02348328 -0.4541016 -0.03482056 0.009986877 -0.4541016 -0.03482056 0.03121948 -0.131836 -0.02415466 0.03121949 -0.131836 -0.02226258 0.05923462 -0.1313477 -0.02308655 0.02426147 -0.4558105 -0.01007843 0.001655579 -0.4558105 -0.02311707 0.02426147 -0.4558105 -0.03616333 0.3981934 -0.4538574 -0.0227356 0.3981934 -0.4538574 -0.02360535 0.4521484 -0.4543457 -0.02323914 0.3476563 -0.4543457 -0.02314758 0.1408691 -0.4538574 -0.0227356 0.1408691 -0.4538574 -0.02360535 0.1912842 -0.4543457 -0.02320862 0.09020997 -0.4543457 -0.02316284 0.05923462 -0.4541016 -0.02261353 0.05923462 -0.4538575 -0.02386475 0.09020997 -0.4543457 -0.02316284 0.03128052 -0.4543457 -0.0227356 0.3476563 -0.1318359 -0.02360535 0.3476563 -0.1318359 -0.0227356 0.3981934 -0.1313477 -0.02319336 0.2971191 -0.1313477 -0.02314758 0.1912842 -0.1318359 -0.02360535 0.1912842 -0.1318359 -0.0227356 0.2436524 -0.1313477 -0.02319336 0.1408691 -0.1313477 -0.02319336 0.09020997 -0.131836 -0.02363587 0.09020997 -0.131836 -0.02270508 0.1408691 -0.1313477 -0.02319336 0.05923462 -0.1313477 -0.02308655 0.00843811 0.07305908 -0.01134491 0.02348328 0.07220459 -0.01142883 0.009262085 0.07391357 -0.03604126 0.03108215 0.07305908 -0.0243988 0.03121949 -0.131836 -0.02226258 0.03128052 -0.4543457 -0.0227356 0.05923462 -0.1313477 -0.02308655 0.05923462 -0.4541016 -0.02261353 0.09020997 -0.131836 -0.02270508 0.09020997 -0.4543457 -0.02316284 0.1408691 -0.1313477 -0.02319336 0.1408691 -0.4538574 -0.0227356 0.1912842 -0.1318359 -0.0227356 0.1912842 -0.4543457 -0.02320862 0.2436524 -0.1313477 -0.02319336 0.2436524 -0.4538575 -0.0227356 0.2971191 -0.1313477 -0.02314758 0.2971191 -0.4538575 -0.0227356 0.3476563 -0.1318359 -0.0227356 0.3476563 -0.4543457 -0.02314758 0.3981934 -0.1313477 -0.02319336 0.3981934 -0.4538574 -0.0227356 0.4521484 -0.1314697 -0.02311707 0.4521484 -0.4543457 -0.02323914 0.03128052 -0.4543457 -0.0227356 0.03121948 -0.131836 -0.02415466 0.05923462 -0.4538575 -0.02386475 0.05923462 -0.1313477 -0.02308655 0.09020997 -0.4543457 -0.02316284 0.09020997 -0.131836 -0.02363587 0.1408691 -0.4538574 -0.02360535 0.1408691 -0.1313477 -0.02319336 0.1912842 -0.4543457 -0.02320862 0.1912842 -0.1318359 -0.02360535 0.2971191 -0.4538575 -0.02366638 0.2436524 -0.1313477 -0.02319336 0.2971191 -0.1313477 -0.02314758 0.3476563 -0.4543457 -0.02314758 0.3476563 -0.1318359 -0.02360535 0.3981934 -0.4538574 -0.02360535 0.3981934 -0.1313477 -0.02319336 0.4521484 -0.4543457 -0.02323914 0.4521484 -0.1314697 -0.02311707 0.2971191 -0.4538575 -0.0227356 0.2971191 -0.4538575 -0.02366638 0.3476563 -0.4543457 -0.02314758 0.2436524 -0.4538575 -0.0227356 0.1912842 -0.4543457 -0.02320862 0.03108215 0.07305908 -0.0243988 0.02348328 0.07220459 -0.01142883 0.02426147 -0.4558105 -0.01007843 0.02426147 -0.4558105 -0.03616333 0.009262085 0.07391357 -0.03604126 0.001655579 -0.4558105 -0.02311707 0.00843811 0.07305908 -0.01134491 0.02426147 -0.4558105 -0.01007843 0.02348328 0.07220459 -0.01142883 0.0244751 -0.4538574 -0.009506226 0.03128052 -0.4543457 -0.0227356 0.03121949 -0.131836 -0.02226258 0.0244751 -0.1318359 -0.009506226 0.008758545 -0.1318359 -0.009506226 0.008758545 -0.4538574 -0.009506226 8.955e-4 -0.1318359 -0.02313232 8.955e-4 -0.4538574 -0.02313232 0.008758545 -0.1318359 -0.03674316 0.008758545 -0.4538574 -0.03674316 0.0244751 -0.1318359 -0.03674316 0.02449036 -0.4538574 -0.03674316 0.03128052 -0.4543457 -0.0227356 0.03121948 -0.131836 -0.02415466 0.0244751 -0.4538574 -0.009506226 0.008758545 -0.4538574 -0.009506226 8.955e-4 -0.4538574 -0.02313232 0.03128052 -0.4543457 -0.0227356 0.02449036 -0.4538574 -0.03674316 0.03128052 -0.4543457 -0.0227356 0.008758545 -0.4538574 -0.03674316 0.008758545 -0.1318359 -0.009506226 0.0244751 -0.1318359 -0.009506226 8.955e-4 -0.1318359 -0.02313232 0.03121949 -0.131836 -0.02226258 0.03121948 -0.131836 -0.02415466 0.0244751 -0.1318359 -0.03674316 0.008758545 -0.1318359 -0.03674316 0.1914062 -0.4541016 -0.02331543 0.3476563 -0.4541016 -0.02326965 0.2436524 -0.4538575 -0.02264405 0.3981934 -0.1313477 -0.0231781 0.4523926 -0.1313477 -0.02316284 0.4521484 -0.4543457 -0.02314758 0.03140259 0.07598877 -0.01725769 0.0223999 0.07293701 -0.03765869 0.002153397 0.07702637 -0.01919556 -4.28438e-4 -0.1262207 -0.016922 0.05935669 -0.1314697 -0.02236939 0.02334595 -0.1315918 -0.04040527 0.02470398 -0.4562988 -0.009132385 7.45773e-4 -0.4562988 -0.02319336 0.02470398 -0.4562988 -0.03695679 0.059021 -0.4533691 -0.02253723 0.05914307 -0.4536133 -0.02388 0.09020997 -0.4543457 -0.02314759 0.03262329 -0.458252 -0.02320862 0.05935669 -0.1314697 -0.02236939 4.86135e-4 -0.4606934 -0.02258301 0.03262329 -0.458252 -0.02320862 -4.28438e-4 -0.1262207 -0.016922 0.02334595 -0.1315918 -0.04040527 4.86135e-4 -0.4606934 -0.02258301 0.03262329 -0.458252 -0.02320862 0.3476563 -0.1318359 -0.02360535 0.3476563 -0.1318359 -0.0227356 0.3981934 -0.1313477 -0.0231781 0.2971191 -0.1314697 -0.02314758 0.03262329 -0.458252 -0.02320862 0.02334595 -0.1315918 -0.04040527 0.05914307 -0.4536133 -0.02388 0.05935669 -0.1314697 -0.02236939 0.09020997 -0.4543457 -0.02314759 0.1914062 -0.4541016 -0.02331543 0.1408691 -0.1314697 -0.02326965 0.3476563 -0.4541016 -0.02326965 0.2971191 -0.1314697 -0.02314758 0.2971191 -0.1314697 -0.02314758 0.3476563 -0.1318359 -0.02360535 0.4521484 -0.4543457 -0.02314758 0.3981934 -0.1313477 -0.0231781 0.03140259 0.07598877 -0.01725769 0.02470398 -0.4562988 -0.009132385 0.02470398 -0.4562988 -0.03695679 0.0223999 0.07293701 -0.03765869 7.45773e-4 -0.4562988 -0.02319336 0.002153397 0.07702637 -0.01919556 0.02470398 -0.4562988 -0.009132385 0.03140259 0.07598877 -0.01725769 0.1914062 -0.4541016 -0.02331543 0.2436524 -0.4538575 -0.02264405 0.2971191 -0.1314697 -0.02314758 0.3476563 -0.1318359 -0.0227356 0.3476563 -0.4541016 -0.02326965 0.3981934 -0.1313477 -0.0231781 0.4523926 -0.1313477 -0.02316284 0.4521484 -0.4543457 -0.02314758 0.09020997 -0.4543457 -0.02314759 0.1914062 -0.4541016 -0.02331543 0.2971191 -0.1314697 -0.02314758 0.1408691 -0.1314697 -0.02326965 0.059021 -0.4533691 -0.02253723 0.05935669 -0.1314697 -0.02236939 0.03262329 -0.458252 -0.02320862</float_array>
          <technique_common>
            <accessor source="#geom-Npc_Judge_Flag__M_Flag-positions-array" count="333" stride="3">
              <param name="X" type="float"/>
              <param name="Y" type="float"/>
              <param name="Z" type="float"/>
            </accessor>
          </technique_common>
        </source>
        <source id="geom-Npc_Judge_Flag__M_Flag-normals">
          <float_array id="geom-Npc_Judge_Flag__M_Flag-normals-array" count="456">0.01565219 0.001955033 -0.9998755 0.01565218 0.001955033 0.9998757 0.01565219 -0.001960994 -0.9998757 0.01565218 -0.001960993 0.9998755 0 -0.001960993 -0.9999982 0.01565219 -0.001960994 -0.9998755 0.01565218 -0.001960993 0.9998757 0 -0.001960993 0.9999982 0 -0.001955032 -0.9999982 0 -0.001955033 0.9999982 0 -0.001955032 -0.9999982 0 -0.001958013 0.9999982 0 -0.001958012 -0.9999981 0 -0.001955032 0.9999981 0 -0.001958013 -0.9999982 0 -0.001958013 0.9999982 0 -0.001960992 -0.9999981 0 -0.001960993 0.9999982 0.001958012 -0.003916025 -0.9999904 0.001958012 -0.003916025 0.9999904 0.007827207 -0.003913044 -0.9999617 0.007827209 -0.003913046 0.9999617 0.009784101 -0.003916025 -0.9999445 0.009784103 -0.003913045 0.9999446 0.5808648 -0.02542435 0.8136029 0.5773412 -0.02544223 -0.8161065 0 -0.001960993 0.9999982 0.01565218 -0.001960993 0.9998755 0.01565218 0.001955033 0.9998757 0 0.001955032 0.9999982 0 -0.001955033 0.9999982 0 0.001955033 0.9999982 0 -0.001958013 0.9999982 0 0.001955033 0.9999982 0 -0.001955032 0.9999981 0 0.001955032 0.9999982 0 -0.001958013 0.9999982 0 0.001955033 0.9999982 0 -0.001960993 0.9999982 0 0.001955032 0.9999982 0.001958012 -0.003916025 0.9999904 0.001958012 0.003914535 0.9999904 0.007827209 -0.003913046 0.9999617 0.007827209 0.003913046 0.9999617 0.009784103 -0.003913045 0.9999446 0.009784474 0.003911554 0.9999445 0.5808651 0.02542585 0.8136027 0.5808648 -0.02542435 0.8136029 0.4948986 -0.02738532 0.8685191 0.4948993 0.02738536 0.8685188 -0.499661 0.01567602 0.8660792 -0.499661 -0.01567602 0.8660792 -0.9997684 0.02152174 0 -0.9997684 -0.02152026 0 -0.499661 0.01567602 -0.8660792 -0.499661 -0.01567602 -0.8660792 0.4910986 0.02739131 -0.8706732 0.4910992 -0.02739432 -0.8706728 0.5773412 -0.02544223 -0.8161065 0.5773414 0.02544372 -0.8161063 0 0.001955032 0.9999982 0.01565218 0.001955032 0.9998755 0.01565219 0.001955033 -0.9998757 0 0.001955032 -0.9999982 0 0.001955033 0.9999982 0 0.001955032 -0.9999982 0 0.001955033 0.9999982 0 0.001956522 -0.9999982 0 0.001955032 0.9999982 0 0.001955032 -0.9999981 0 0.001955033 0.9999982 0 0.001955032 -0.9999982 0 0.001955032 0.9999982 0 0.001956522 -0.9999981 0.001958012 0.003914535 0.9999904 0.001958012 0.003914535 -0.9999904 0.007827209 0.003913046 0.9999617 0.007827207 0.003913044 -0.9999617 0.009784474 0.003911554 0.9999445 0.009784101 0.003913044 -0.9999445 0.5773414 0.02544372 -0.8161063 0.5808651 0.02542585 0.8136027 0 0.001955032 -0.9999982 0.01565219 0.001955033 -0.9998755 0.01565219 -0.001960994 -0.9998757 0 -0.001960993 -0.9999982 0 0.001955032 -0.9999982 0 -0.001955032 -0.9999982 0 0.001956522 -0.9999982 0 -0.001955032 -0.9999982 0 0.001955032 -0.9999981 0 -0.001958012 -0.9999981 0 0.001955032 -0.9999982 0 -0.001958013 -0.9999982 0 0.001956522 -0.9999981 0 -0.001960992 -0.9999981 0.001958012 0.003914535 -0.9999904 0.001958012 -0.003916025 -0.9999904 0.007827207 0.003913044 -0.9999617 0.007827207 -0.003913044 -0.9999617 0.009784101 0.003913044 -0.9999445 0.009784101 -0.003916025 -0.9999445 0.5773412 -0.02544223 -0.8161065 0.5773414 0.02544372 -0.8161063 -0.1466237 0.9559867 0.2541474 0.1036881 0.978189 0.1799867 -0.2291485 0.9733916 0 0.1878314 0.9822013 0 0.1036881 0.978189 -0.1799867 -0.1466236 0.9559866 -0.2541478 -0.499661 0.01567602 0.8660792 0.4948993 0.02738536 0.8685188 -0.9997684 0.02152175 0 0.5808651 0.02542585 0.8136027 0.5773414 0.02544372 -0.8161063 0.4910986 0.02739131 -0.8706732 -0.499661 0.01567602 -0.8660792 0.4948986 -0.02738532 0.8685191 -0.499661 -0.01567602 0.8660792 -0.9997684 -0.02152026 0 0.5808648 -0.02542435 0.8136029 0.5773412 -0.02544223 -0.8161065 0.4910992 -0.02739432 -0.8706728 -0.499661 -0.01567602 -0.8660792 0.4988744 0.001956522 0.8666722 0.4988595 -0.007826081 0.8666475 0.9999694 -0.007826091 0 0.1036881 0.978189 0.1799867 0.1878314 0.9822013 0 0.9999981 0.001957267 0 0.4988608 -0.0078261 -0.8666468 0.1036881 0.978189 -0.1799867 0.4988745 0.001956522 -0.866672 -0.4988608 -0.0078261 -0.8666468 -0.1466236 0.9559867 -0.2541478 -0.4988744 0.001956522 -0.866672 -0.9999694 -0.007826091 0 -0.2291485 0.9733916 0 -0.9999982 0.001957268 0 -0.4988595 -0.007826081 0.8666475 -0.1466237 0.9559867 0.2541475 -0.4988743 0.001956522 0.8666722 0.4988596 -0.007826081 0.8666476 0.1036881 0.978189 0.1799867 0.4988744 0.001956522 0.8666722 0.4988596 -0.007826081 0.8666476 -0.4988596 -0.007826081 0.8666476 0 -1 0 0.9999694 -0.007826091 0 -0.9999694 -0.00782609 0 0.4988609 -0.007826101 -0.8666468 -0.4988609 -0.007826101 -0.8666468</float_array>
          <technique_common>
            <accessor source="#geom-Npc_Judge_Flag__M_Flag-normals-array" count="152" stride="3">
              <param name="X" type="float"/>
              <param name="Y" type="float"/>
              <param name="Z" type="float"/>
            </accessor>
          </technique_common>
        </source>
        <source id="geom-Npc_Judge_Flag__M_Flag-map-2">
          <float_array id="geom-Npc_Judge_Flag__M_Flag-map-2-array" count="999">1 1 1 1 1 1 1 1 1 1 1 1 1 1 1 1 1 1 1 1 1 1 1 1 1 1 1 1 1 1 1 1 1 1 1 1 1 1 1 1 1 1 1 1 1 1 1 1 1 1 1 1 1 1 1 1 1 1 1 1 1 1 1 1 1 1 1 1 1 1 1 1 1 1 1 1 1 1 1 1 1 1 1 1 1 1 1 1 1 1 1 1 1 1 1 1 1 1 1 1 1 1 1 1 1 1 1 1 1 1 1 1 1 1 1 1 1 1 1 1 1 1 1 1 1 1 1 1 1 1 1 1 1 1 1 1 1 1 1 1 1 1 1 1 1 1 1 1 1 1 1 1 1 1 1 1 1 1 1 1 1 1 1 1 1 1 1 1 1 1 1 1 1 1 1 1 1 1 1 1 1 1 1 1 1 1 1 1 1 1 1 1 1 1 1 1 1 1 1 1 1 1 1 1 1 1 1 1 1 1 1 1 1 1 1 1 1 1 1 1 1 1 1 1 1 1 1 1 1 1 1 1 1 1 1 1 1 1 1 1 1 1 1 1 1 1 1 1 1 1 1 1 1 1 1 1 1 1 1 1 1 1 1 1 1 1 1 1 1 1 1 1 1 1 1 1 1 1 1 1 1 1 1 1 1 1 1 1 1 1 1 1 1 1 1 1 1 1 1 1 1 1 1 1 1 1 1 1 1 1 1 1 1 1 1 1 1 1 1 1 1 1 1 1 1 1 1 1 1 1 1 1 1 1 1 1 1 1 1 1 1 1 1 1 1 1 1 1 1 1 1 1 1 1 1 1 1 1 1 1 1 1 1 1 1 1 1 1 1 1 1 1 1 1 1 1 1 1 1 1 1 1 1 1 1 1 1 1 1 1 1 1 1 1 1 1 1 1 1 1 1 1 1 1 1 1 1 1 1 1 1 1 1 1 1 1 1 1 1 1 1 1 1 1 1 1 1 1 1 1 1 1 1 1 1 1 1 1 1 1 1 1 1 1 1 1 1 1 1 1 1 1 1 1 1 1 1 1 1 1 1 1 1 1 1 1 1 1 1 1 1 1 1 1 1 1 1 1 1 1 1 1 1 1 1 1 1 1 1 1 1 1 1 1 1 1 1 1 1 1 1 1 1 1 1 1 1 1 1 1 1 1 1 1 1 1 1 1 1 1 1 1 1 1 1 1 1 1 1 1 1 1 1 1 1 1 1 1 1 1 1 1 1 1 1 1 1 1 1 1 1 1 1 1 1 1 1 1 1 1 1 1 1 1 1 1 1 1 1 1 1 1 1 1 1 1 1 1 1 1 1 1 1 1 1 1 1 1 1 1 1 1 1 1 1 1 1 1 1 1 1 1 1 1 1 1 1 1 1 1 1 1 1 1 1 1 1 1 1 1 1 1 1 1 1 1 1 1 1 1 1 1 1 1 1 1 1 1 1 1 1 1 1 1 1 1 1 1 1 1 1 1 1 1 1 1 1 1 1 1 1 1 1 1 1 1 1 1 1 1 1 1 1 1 1 1 1 1 1 1 1 1 1 1 1 1 1 1 1 1 1 1 1 1 1 1 1 1 1 1 1 1 1 1 1 1 1 1 1 1 1 1 1 1 1 1 1 1 1 1 1 1 1 1 1 1 1 1 1 1 1 1 1 1 1 1 1 1 1 1 1 1 1 1 1 1 1 1 1 1 1 1 1 1 1 1 1 1 1 1 1 1 1 1 1 1 1 1 1 1 1 1 1 1 1 1 1 1 1 1 1 1 1 1 1 1 1 1 1 1 1 1 1 1 1 1 1 1 1 1 1 1 1 1 1 1 1 1 1 1 1 1 1 1 1 1 1 1 1 1 1 1 1 1 1 1 1 1 1 1 1 1 1 1 1 1 1 1 1 1 1 1 1 1 1 1 1 1 1 1 1 1 1 1 1 1 1 1 1 1 1 1 1 1 1 1 1 1 1 1 1 1 1 1 1 1 1 1 1 1 1 1 1 1 1 1 1 1 1 1 1 1 1 1 1 1 1 1 1 1 1 1 1 1 1 1 1 1 1 1 1 1 1 1 1 1 1 1 1 1 1 1 1 1 1 1 1 1 1 1 1 1 1 1 1 1 1 1 1 1 1 1 1 1 1 1 1 1 1 1 1 1 1 1 1 1 1 1 1 1 1 1 1 1 1 1 1 1 1 1 1 1 1 1 1 1 1 1 1 1 1 1 1 1 1 1 1 1 1 1 1 1 1 1 1 1 1 1 1</float_array>
          <technique_common>
            <accessor source="#geom-Npc_Judge_Flag__M_Flag-map-2-array" count="333" stride="3">
              <param name="R" type="float"/>
              <param name="G" type="float"/>
              <param name="B" type="float"/>
            </accessor>
          </technique_common>
        </source>
        <source id="geom-Npc_Judge_Flag__M_Flag-map0">
          <float_array id="geom-Npc_Judge_Flag__M_Flag-map0-array" count="999">1 1 1 1 1 1 1 1 1 1 1 1 1 1 1 1 1 1 1 1 1 1 1 1 1 1 1 1 1 1 1 1 1 1 1 1 1 1 1 1 1 1 1 1 1 1 1 1 1 1 1 1 1 1 1 1 1 1 1 1 1 1 1 1 1 1 1 1 1 1 1 1 1 1 1 1 1 1 1 1 1 1 1 1 1 1 1 1 1 1 1 1 1 1 1 1 1 1 1 1 1 1 1 1 1 1 1 1 1 1 1 1 1 1 1 1 1 1 1 1 1 1 1 1 1 1 1 1 1 1 1 1 1 1 1 1 1 1 1 1 1 1 1 1 1 1 1 1 1 1 1 1 1 1 1 1 1 1 1 1 1 1 1 1 1 1 1 1 1 1 1 1 1 1 1 1 1 1 1 1 1 1 1 1 1 1 1 1 1 1 1 1 1 1 1 1 1 1 1 1 1 1 1 1 1 1 1 1 1 1 1 1 1 1 1 1 1 1 1 1 1 1 1 1 1 1 1 1 1 1 1 1 1 1 1 1 1 1 1 1 1 1 1 1 1 1 1 1 1 1 1 1 1 1 1 1 1 1 1 1 1 1 1 1 1 1 1 1 1 1 1 1 1 1 1 1 1 1 1 1 1 1 1 1 1 1 1 1 1 1 1 1 1 1 1 1 1 1 1 1 1 1 1 1 1 1 1 1 1 1 1 1 1 1 1 1 1 1 1 1 1 1 1 1 1 1 1 1 1 1 1 1 1 1 1 1 1 1 1 1 1 1 1 1 1 1 1 1 1 1 1 1 1 1 1 1 1 1 1 1 1 1 1 1 1 1 1 1 1 1 1 1 1 1 1 1 1 1 1 1 1 1 1 1 1 1 1 1 1 1 1 1 1 1 1 1 1 1 1 1 1 1 1 1 1 1 1 1 1 1 1 1 1 1 1 1 1 1 1 1 1 1 1 1 1 1 1 1 1 1 1 1 1 1 1 1 1 1 1 1 1 1 1 1 1 1 1 1 1 1 1 1 1 1 1 1 1 1 1 1 1 1 1 1 1 1 1 1 1 1 1 1 1 1 1 1 1 1 1 1 1 1 1 1 1 1 1 1 1 1 1 1 1 1 1 1 1 1 1 1 1 1 1 1 1 1 1 1 1 1 1 1 1 1 1 1 1 1 1 1 1 1 1 1 1 1 1 1 1 1 1 1 1 1 1 1 1 1 1 1 1 1 1 1 1 1 1 1 1 1 1 1 1 1 1 1 1 1 1 1 1 1 1 1 1 1 1 1 1 1 1 1 1 1 1 1 1 1 1 1 1 1 1 1 1 1 1 1 1 1 1 1 1 1 1 1 1 1 1 1 1 1 1 1 1 1 1 1 1 1 1 1 1 1 1 1 1 1 1 1 1 1 1 1 1 1 1 1 1 1 1 1 1 1 1 1 1 1 1 1 1 1 1 1 1 1 1 1 1 1 1 1 1 1 1 1 1 1 1 1 1 1 1 1 1 1 1 1 1 1 1 1 1 1 1 1 1 1 1 1 1 1 1 1 1 1 1 1 1 1 1 1 1 1 1 1 1 1 1 1 1 1 1 1 1 1 1 1 1 1 1 1 1 1 1 1 1 1 1 1 1 1 1 1 1 1 1 1 1 1 1 1 1 1 1 1 1 1 1 1 1 1 1 1 1 1 1 1 1 1 1 1 1 1 1 1 1 1 1 1 1 1 1 1 1 1 1 1 1 1 1 1 1 1 1 1 1 1 1 1 1 1 1 1 1 1 1 1 1 1 1 1 1 1 1 1 1 1 1 1 1 1 1 1 1 1 1 1 1 1 1 1 1 1 1 1 1 1 1 1 1 1 1 1 1 1 1 1 1 1 1 1 1 1 1 1 1 1 1 1 1 1 1 1 1 1 1 1 1 1 1 1 1 1 1 1 1 1 1 1 1 1 1 1 1 1 1 1 1 1 1 1 1 1 1 1 1 1 1 1 1 1 1 1 1 1 1 1 1 1 1 1 1 1 1 1 1 1 1 1 1 1 1 1 1 1 1 1 1 1 1 1 1 1 1 1 1 1 1 1 1 1 1 1 1 1 1 1 1 1 1 1 1 1 1 1 1 1 1 1 1 1 1 1 1 1 1 1 1 1 1 1 1 1 1 1 1 1 1 1 1 1 1 1 1 1 1 1 1 1 1 1 1 1 1 1 1 1 1 1 1 1 1 1 1 1 1 1 1 1 1 1 1 1 1 1 1 1 1</float_array>
          <technique_common>
            <accessor source="#geom-Npc_Judge_Flag__M_Flag-map0-array" count="333" stride="3">
              <param name="R" type="float"/>
              <param name="G" type="float"/>
              <param name="B" type="float"/>
            </accessor>
          </technique_common>
        </source>
        <source id="geom-Npc_Judge_Flag__M_Flag-map1">
          <float_array id="geom-Npc_Judge_Flag__M_Flag-map1-array" count="999">0.9258869 0.9210498 0 0.9258869 0.925597 0 0.5705806 0.9210498 0 0.5705806 0.925597 0 0.8741894 0.8791943 0 0.9196612 0.8791943 0 0.9196612 0.8864271 0 0.8741894 0.8864271 0 0.831281 0.8791943 0 0.831281 0.8864271 0 0.7883726 0.8791943 0 0.7883726 0.8864271 0 0.7429007 0.8791943 0 0.7429007 0.8864271 0 0.6984512 0.8791943 0 0.6984512 0.8864271 0 0.6555886 0.8791943 0 0.6555886 0.8864271 0 0.6125582 0.8788891 0 0.6125582 0.8867323 0 0.5862669 0.8776227 0 0.5862669 0.8879988 0 0.5720607 0.8760967 0 0.5720607 0.8895247 0 0.5635614 0.8902876 0 0.5635614 0.8751812 0 0.1131304 0.6896772 0 0.01391623 0.6896772 0 0.01393149 0.03193712 0 0.1131304 0.03193712 0 0.2067445 0.6896772 0 0.2067445 0.03193712 0 0.3003739 0.6896772 0 0.3003739 0.03193712 0 0.3995728 0.6896772 0 0.3995728 0.03193712 0 0.4965591 0.6896772 0 0.4965591 0.03193712 0 0.5900664 0.6896772 0 0.5900664 0.03193712 0 0.6839551 0.6896772 0 0.6839704 0.03193712 0 0.7413291 0.6896772 0 0.7413443 0.03193712 0 0.7723049 0.6896772 0 0.7723049 0.03195238 0 0.7908598 0.03195238 0 0.7908598 0.6896772 0 0.8203555 0.6896772 0 0.8203555 0.03195238 0 0.8524605 0.03195238 0 0.8524605 0.6896772 0 0.8845807 0.03195238 0 0.8845655 0.6896772 0 0.9166858 0.03195238 0 0.9166858 0.6896772 0 0.948806 0.03195238 0 0.9487907 0.6896772 0 0.978088 0.6896772 0 0.978088 0.03195238 0 0.8741894 0.8864271 0 0.9196612 0.8864271 0 0.9196612 0.8791943 0 0.8741894 0.8791943 0 0.831281 0.8864271 0 0.831281 0.8791943 0 0.7883726 0.8864271 0 0.7883726 0.8791943 0 0.7429007 0.8864271 0 0.7429007 0.8791943 0 0.6984512 0.8864271 0 0.6984512 0.8791943 0 0.6555886 0.8864271 0 0.6555886 0.8791943 0 0.6125582 0.8867323 0 0.6125582 0.8788891 0 0.5862669 0.8879988 0 0.5862669 0.8776227 0 0.5720607 0.8895247 0 0.5720607 0.8760967 0 0.5635614 0.8751812 0 0.5635614 0.8902876 0 0.1129625 0.03193712 0 0.01393149 0.03193712 0 0.01393149 0.6886244 0 0.1129778 0.6886244 0 0.2064393 0.03193712 0 0.2064546 0.6886244 0 0.2999161 0.03193712 0 0.2999161 0.6886244 0 0.3989624 0.03193712 0 0.3989624 0.6886244 0 0.4957961 0.03193712 0 0.4957961 0.6886244 0 0.5891508 0.03193712 0 0.5891508 0.6886244 0 0.682887 0.03193712 0 0.6829023 0.6886244 0 0.7401693 0.03193712 0 0.7401846 0.6886244 0 0.7710994 0.03193712 0 0.7710994 0.6886244 0 0.7896239 0.6886244 0 0.7896086 0.03193712 0 0.1292134 0.9544671 0 0.08570993 0.9544671 0 0.1509575 0.9167926 0 0.06396582 0.9167926 0 0.08570993 0.879118 0 0.1292134 0.879118 0 0.5044022 0.909514 0 0.4914778 0.9494163 0 0.4763256 0.8783703 0 0.4535286 0.9560083 0 0.4489662 0.9545281 0 0.422385 0.9270161 0 0.4353094 0.8871137 0 0.3928893 0.9508659 0 0.3511559 0.9549096 0 0.3267719 0.9207904 0 0.4074922 0.9152209 0 0.4070191 0.9104295 0 0.3858702 0.8785535 0 0.3441367 0.8826123 0 0.06337072 0.7440146 0 0.9445335 0.7389944 0 0.9448234 0.7528496 0 0.06012055 0.7459678 0 0.06456092 0.7582208 0 0.06803998 0.757641 0 0.9451286 0.7667658 0 0.06564431 0.7717861 0 0.06941329 0.7714657 0 0.9453727 0.7806973 0 0.06634623 0.784741 0 0.07002365 0.7848936 0 0.9455711 0.7946289 0 0.06645304 0.7986114 0 0.06999313 0.7987792 0 0.9457237 0.8085756 0 0.06501869 0.8119936 0 0.06860456 0.8125734 0 0.9458152 0.8224918 0 0.06118868 0.8242924 0 0.06442359 0.8261387 0 0.2426337 0.9604791 0 0.1902647 0.9607843 0 0.2158389 0.9140612 0 0.2696574 0.913817 0 0.1625391 0.9162432 0 0.2419928 0.866804 0 0.1871977 0.8684672 0 0.5635614 0.8751812 0 0.5635614 0.8902876 0 0.5862669 0.8879988 0 0.2426337 0.9604791 0 0.1625391 0.9162432 0 0.2419928 0.866804 0 0.8741894 0.8864271 0 0.8741894 0.8791943 0 0.9196612 0.8791943 0 0.831281 0.8791943 0 0.6555886 0.8864271 0 0.6555886 0.8791943 0 0.6984512 0.8791943 0 0.6125582 0.8788891 0 0.5862669 0.8879988 0 0.5862669 0.8776227 0 0.6125582 0.8788891 0 0.5720607 0.8760967 0 0.831281 0.8791943 0 0.831281 0.8864271 0 0.8741894 0.8864271 0 0.7883726 0.8791943 0 0.6984512 0.8791943 0 0.6984512 0.8864271 0 0.7429007 0.8864271 0 0.6555886 0.8864271 0 0.6125582 0.8788891 0 0.6125582 0.8867323 0 0.6555886 0.8864271 0 0.5862669 0.8879988 0 0.1292134 0.9544671 0 0.08570993 0.9544671 0 0.1292134 0.879118 0 0.06396582 0.9167926 0 0.7908598 0.03195238 0 0.7908598 0.6896772 0 0.7413443 0.03193712 0 0.7413291 0.6896772 0 0.6839704 0.03193712 0 0.6839551 0.6896772 0 0.5900664 0.03193712 0 0.5900664 0.6896772 0 0.4965591 0.03193712 0 0.4965591 0.6896772 0 0.3995728 0.03193712 0 0.3995728 0.6896772 0 0.3003739 0.03193712 0 0.3003739 0.6896772 0 0.2067445 0.03193712 0 0.2067445 0.6896772 0 0.1131304 0.03193712 0 0.1131304 0.6896772 0 0.01393149 0.03193712 0 0.01391623 0.6896772 0 0.7896239 0.6886244 0 0.7896086 0.03193712 0 0.7401846 0.6886244 0 0.7401693 0.03193712 0 0.6829023 0.6886244 0 0.682887 0.03193712 0 0.5891508 0.6886244 0 0.5891508 0.03193712 0 0.4957961 0.6886244 0 0.4957961 0.03193712 0 0.2999161 0.6886244 0 0.3989624 0.03193712 0 0.2999161 0.03193712 0 0.2064546 0.6886244 0 0.2064393 0.03193712 0 0.1129778 0.6886244 0 0.1129625 0.03193712 0 0.01393149 0.6886244 0 0.01393149 0.03193712 0 0.7883726 0.8864271 0 0.7883726 0.8791943 0 0.831281 0.8791943 0 0.7429007 0.8864271 0 0.6984512 0.8791943 0 0.06803998 0.757641 0 0.06337072 0.7440146 0 0.9445335 0.7389944 0 0.9451286 0.7667658 0 0.07002365 0.7848936 0 0.9455711 0.7946289 0 0.06860456 0.8125734 0 0.9458152 0.8224918 0 0.06442359 0.8261387 0 0.8203555 0.6896772 0 0.7908598 0.6896772 0 0.7908598 0.03195238 0 0.8203555 0.03195238 0 0.8524605 0.03195238 0 0.8524605 0.6896772 0 0.8845807 0.03195238 0 0.8845655 0.6896772 0 0.9166858 0.03195238 0 0.9166858 0.6896772 0 0.948806 0.03195238 0 0.9487907 0.6896772 0 0.978088 0.6896772 0 0.978088 0.03195238 0 0.3928893 0.9508659 0 0.3511559 0.9549096 0 0.3267719 0.9207904 0 0.4074922 0.9152209 0 0.3858702 0.8785535 0 0.4074922 0.9152209 0 0.3441367 0.8826123 0 0.5044022 0.909514 0 0.4914778 0.9494163 0 0.4763256 0.8783703 0 0.4535286 0.9560083 0 0.4489662 0.9545281 0 0.422385 0.9270161 0 0.4353094 0.8871137 0 0.6984512 0.8791943 0 0.831281 0.8791943 0 0.7429007 0.8864271 0 0.1129625 0.03193712 0 0.01393149 0.03193712 0 0.01393149 0.6886244 0 0.06396582 0.9167926 0 0.08570993 0.879118 0 0.1509575 0.9167926 0 0.4763256 0.8783703 0 0.4535286 0.9560083 0 0.422385 0.9270161 0 0.2426337 0.9604791 0 0.1625391 0.9162432 0 0.2419928 0.866804 0 0.5862669 0.8879988 0 0.5862669 0.8776227 0 0.6125582 0.8788891 0 0.5720607 0.8760967 0 0.7413443 0.03193712 0 0.8845655 0.6896772 0 0.7908598 0.6896772 0 0.8845807 0.03195238 0 0.948806 0.03195238 0 0.8845655 0.6896772 0 0.978088 0.6896772 0 0.831281 0.8791943 0 0.831281 0.8864271 0 0.8741894 0.8864271 0 0.7883726 0.8791943 0 0.7896239 0.6886244 0 0.7896086 0.03193712 0 0.7401846 0.6886244 0 0.7401693 0.03193712 0 0.6829023 0.6886244 0 0.4957961 0.6886244 0 0.5891508 0.03193712 0 0.2064546 0.6886244 0 0.3003739 0.03193712 0 0.2999161 0.03193712 0 0.2064393 0.03193712 0 0.01393149 0.6886244 0 0.1129625 0.03193712 0 0.06803998 0.757641 0 0.9445335 0.7389944 0 0.9451286 0.7667658 0 0.06941329 0.7714657 0 0.9455711 0.7946289 0 0.06999313 0.7987792 0 0.9458152 0.8224918 0 0.06442359 0.8261387 0 0.4965591 0.6896772 0 0.3995728 0.6896772 0 0.3003739 0.03193712 0 0.2067445 0.03193712 0 0.2067445 0.6896772 0 0.1131304 0.03193712 0 0.01393149 0.03193712 0 0.01391623 0.6896772 0 0.6839551 0.6896772 0 0.4965591 0.6896772 0 0.3003739 0.03193712 0 0.5900664 0.03193712 0 0.7413291 0.6896772 0 0.7413443 0.03193712 0 0.7908598 0.6896772 0</float_array>
          <technique_common>
            <accessor source="#geom-Npc_Judge_Flag__M_Flag-map1-array" count="333" stride="3">
              <param name="S" type="float"/>
              <param name="T" type="float"/>
              <param name="P" type="float"/>
            </accessor>
          </technique_common>
        </source>
        <vertices id="geom-Npc_Judge_Flag__M_Flag-vertices">
          <input semantic="POSITION" source="#geom-Npc_Judge_Flag__M_Flag-positions"/>
        </vertices>
        <triangles material="M_Flag" count="138">
          <input semantic="VERTEX" source="#geom-Npc_Judge_Flag__M_Flag-vertices" offset="0"/>
          <input semantic="NORMAL" source="#geom-Npc_Judge_Flag__M_Flag-normals" offset="1"/>
          <input semantic="COLOR" source="#geom-Npc_Judge_Flag__M_Flag-map0" offset="2" set="0"/>
          <input semantic="TEXCOORD" source="#geom-Npc_Judge_Flag__M_Flag-map1" offset="3" set="0"/>
          <p>0 0 0 0 1 1 1 1 2 2 2 2 1 1 1 1 3 3 3 3 2 2 2 2 4 4 4 4 5 5 5 5 6 6 6 6 7 7 7 7 4 4 4 4 6 6 6 6 8 8 8 8 4 4 4 4 7 7 7 7 9 9 9 9 8 8 8 8 7 7 7 7 10 10 10 10 8 8 8 8 9 9 9 9 11 11 11 11 10 10 10 10 9 9 9 9 12 12 12 12 10 10 10 10 11 11 11 11 13 13 13 13 12 12 12 12 11 11 11 11 14 14 14 14 12 12 12 12 13 13 13 13 15 15 15 15 14 14 14 14 13 13 13 13 16 16 16 16 14 14 14 14 15 15 15 15 17 17 17 17 16 16 16 16 15 15 15 15 18 18 18 18 16 16 16 16 17 17 17 17 19 19 19 19 18 18 18 18 17 17 17 17 20 20 20 20 18 18 18 18 19 19 19 19 21 21 21 21 20 20 20 20 19 19 19 19 22 22 22 22 20 20 20 20 21 21 21 21 23 23 23 23 22 22 22 22 21 21 21 21 22 22 22 22 23 23 23 23 24 24 24 24 25 25 25 25 22 22 22 22 24 24 24 24 26 26 26 26 27 27 27 27 28 28 28 28 29 29 29 29 26 26 26 26 28 28 28 28 30 30 30 30 26 26 26 26 29 29 29 29 31 31 31 31 30 30 30 30 29 29 29 29 32 32 32 32 30 30 30 30 31 31 31 31 33 33 33 33 32 32 32 32 31 31 31 31 34 34 34 34 32 32 32 32 33 33 33 33 35 35 35 35 34 34 34 34 33 33 33 33 36 36 36 36 34 34 34 34 35 35 35 35 37 37 37 37 36 36 36 36 35 35 35 35 38 38 38 38 36 36 36 36 37 37 37 37 39 39 39 39 38 38 38 38 37 37 37 37 40 40 40 40 38 38 38 38 39 39 39 39 41 41 41 41 40 40 40 40 39 39 39 39 42 42 42 42 40 40 40 40 41 41 41 41 43 43 43 43 42 42 42 42 41 41 41 41 44 44 44 44 42 42 42 42 43 43 43 43 45 45 45 45 44 44 44 44 43 43 43 43 45 45 45 45 46 46 46 46 44 44 44 44 46 46 46 46 47 47 47 47 44 44 44 44 48 48 48 48 47 47 47 47 46 46 46 46 49 49 49 49 48 48 48 48 46 46 46 46 49 49 49 49 50 50 50 50 48 48 48 48 50 50 50 50 51 51 51 51 48 48 48 48 50 50 50 50 52 52 52 52 51 51 51 51 52 52 52 52 53 53 53 53 51 51 51 51 52 52 52 52 54 54 54 54 53 53 53 53 54 54 54 54 55 55 55 55 53 53 53 53 54 54 54 54 56 56 56 56 55 55 55 55 56 56 56 56 57 57 57 57 55 55 55 55 57 57 57 57 56 56 56 56 58 58 58 58 56 56 56 56 59 59 59 59 58 58 58 58 60 60 60 60 61 61 61 61 62 62 62 62 63 63 63 63 60 60 60 60 62 62 62 62 64 64 64 64 60 60 60 60 63 63 63 63 65 65 65 65 64 64 64 64 63 63 63 63 66 66 66 66 64 64 64 64 65 65 65 65 67 67 67 67 66 66 66 66 65 65 65 65 68 68 68 68 66 66 66 66 67 67 67 67 69 69 69 69 68 68 68 68 67 67 67 67 70 70 70 70 68 68 68 68 69 69 69 69 71 71 71 71 70 70 70 70 69 69 69 69 72 72 72 72 70 70 70 70 71 71 71 71 73 73 73 73 72 72 72 72 71 71 71 71 74 74 74 74 72 72 72 72 73 73 73 73 75 75 75 75 74 74 74 74 73 73 73 73 76 76 76 76 74 74 74 74 75 75 75 75 77 77 77 77 76 76 76 76 75 75 75 75 78 78 78 78 76 76 76 76 77 77 77 77 79 79 79 79 78 78 78 78 77 77 77 77 79 79 79 79 80 80 80 80 78 78 78 78 80 80 80 80 81 81 81 81 78 78 78 78 82 82 82 82 83 83 83 83 84 84 84 84 85 85 85 85 82 82 82 82 84 84 84 84 86 86 86 86 82 82 82 82 85 85 85 85 87 87 87 87 86 86 86 86 85 85 85 85 88 88 88 88 86 86 86 86 87 87 87 87 89 89 89 89 88 88 88 88 87 87 87 87 90 90 90 90 88 88 88 88 89 89 89 89 91 91 91 91 90 90 90 90 89 89 89 89 92 92 92 92 90 90 90 90 91 91 91 91 93 93 93 93 92 92 92 92 91 91 91 91 94 94 94 94 92 92 92 92 93 93 93 93 95 95 95 95 94 94 94 94 93 93 93 93 96 96 96 96 94 94 94 94 95 95 95 95 97 97 97 97 96 96 96 96 95 95 95 95 98 98 98 98 96 96 96 96 97 97 97 97 99 99 99 99 98 98 98 98 97 97 97 97 100 100 100 100 98 98 98 98 99 99 99 99 101 101 101 101 100 100 100 100 99 99 99 99 100 100 100 100 101 101 101 101 102 102 102 102 103 103 103 103 100 100 100 100 102 102 102 102 104 104 104 104 105 105 105 105 106 106 106 106 105 105 105 105 107 107 107 107 106 106 106 106 107 107 107 107 108 108 108 108 106 106 106 106 108 108 108 108 109 109 109 109 106 106 106 106 110 110 110 110 111 111 111 111 112 112 112 112 112 112 112 112 111 111 111 111 113 113 113 113 112 112 112 112 113 113 113 113 114 114 114 114 115 115 115 115 112 112 112 112 114 114 114 114 115 115 115 115 116 116 116 116 112 112 112 112 117 117 117 117 118 118 118 118 119 119 119 119 117 117 117 117 119 119 119 119 120 120 120 120 119 119 119 119 121 121 121 121 120 120 120 120 119 119 119 119 122 122 122 122 121 121 121 121 123 123 123 123 122 122 122 122 119 119 119 119 124 124 124 124 125 125 125 125 126 126 126 126 127 127 127 127 124 124 124 124 128 128 128 128 129 129 129 129 124 124 124 124 126 126 126 126 124 124 124 124 129 129 129 129 128 128 128 128 129 129 129 129 126 126 126 126 130 130 130 130 131 131 131 131 128 128 128 128 129 129 129 129 132 132 132 132 129 129 129 129 130 130 130 130 132 132 132 132 131 131 131 131 129 129 129 129 132 132 132 132 130 130 130 130 133 133 133 133 134 134 134 134 131 131 131 131 132 132 132 132 135 135 135 135 132 132 132 132 133 133 133 133 135 135 135 135 134 134 134 134 132 132 132 132 135 135 135 135 133 133 133 133 136 136 136 136 137 137 137 137 134 134 134 134 135 135 135 135 138 138 138 138 135 135 135 135 136 136 136 136 138 138 138 138 137 137 137 137 135 135 135 135 138 138 138 138 136 136 136 136 139 139 139 139 140 140 140 140 137 137 137 137 138 138 138 138 141 141 141 141 138 138 138 138 139 139 139 139 141 141 141 141 140 140 140 140 138 138 138 138 141 141 141 141 139 139 139 139 142 142 142 142 143 143 143 143 140 140 140 140 141 141 141 141 144 144 144 144 141 141 141 141 142 142 142 142 144 144 144 144 143 143 143 143 141 141 141 141 145 145 145 145 146 146 146 146 147 147 147 147 148 148 148 148 145 145 145 145 147 147 147 147 146 146 146 146 149 149 149 149 147 147 147 147 150 150 150 150 148 148 148 148 147 147 147 147 149 149 149 149 151 151 151 151 147 147 147 147 151 151 151 151 150 150 150 150 147 147 147 147</p>
        </triangles>
      </mesh>
    </geometry>
  </library_geometries>
  <library_controllers>
    <controller id="geom-Npc_Judge_Flag__M_Flag-skin1">
      <skin source="#geom-Npc_Judge_Flag__M_Flag">
        <bind_shape_matrix>1 0 0 0 0 1 0 0 0 0 1 0 0 0 0 1</bind_shape_matrix>
        <source id="geom-Npc_Judge_Flag__M_Flag-skin1-joints">
          <Name_array id="geom-Npc_Judge_Flag__M_Flag-skin1-joints-array" count="5">joint0 joint1 joint2 joint3 joint4</Name_array>
          <technique_common>
            <accessor source="#geom-Npc_Judge_Flag__M_Flag-skin1-joints-array" count="5" stride="1">
              <param name="JOINT" type="name"/>
            </accessor>
          </technique_common>
        </source>
        <source id="geom-Npc_Judge_Flag__M_Flag-skin1-bind_poses">
          <float_array id="geom-Npc_Judge_Flag__M_Flag-skin1-bind_poses-array" count="80">1 0 0 0 0 0 1 0 0 -1 0 0 0 0 0 1 1 0 0 -0.01684636 0 0 1 0.02313246 0 -1 0 0 0 0 0 1 1 0 0 -0.03429932 0 0 1 0.02313246 0 -1 0 -0.3 0 0 0 1 1 0 0 -0.1762119 0 0 1 0.02313246 0 -1 0 -0.3 0 0 0 1 1 0 0 -0.3168611 0 0 1 0.02313246 0 -1 0 -0.3 0 0 0 1</float_array>
          <technique_common>
            <accessor source="#geom-Npc_Judge_Flag__M_Flag-skin1-bind_poses-array" count="5" stride="16">
              <param name="TRANSFORM" type="float4x4"/>
            </accessor>
          </technique_common>
        </source>
        <source id="geom-Npc_Judge_Flag__M_Flag-skin1-weights">
          <float_array id="geom-Npc_Judge_Flag__M_Flag-skin1-weights-array" count="560">1 0.7490196 0.2509804 0.7490196 0.2509804 0.7490196 0.2509804 0.7490196 0.2509804 0.7490196 0.2509804 0.7490196 0.2509804 0.7490196 0.2509804 0.7490196 0.2509804 0.7490196 0.0509804 0.2 0.7490196 0.0509804 0.2 0.7450981 0.01176471 0.1019608 0.1411765 0.7490196 0.1019608 0.1490196 0.7490196 0.09019608 0.1607843 0.7529413 0.07843138 0.1686275 0.7490196 0.1019608 0.1490196 0.7490196 0.1019608 0.1490196 0.7490196 0.1294118 0.1215686 0.7490196 0.1294118 0.1215686 0.7529413 0.1882353 0.05882353 0.7529413 0.1882353 0.05882353 0.3019608 0.6470588 0.0509804 0.3019608 0.6470588 0.0509804 0.6705883 0.3294118 0.6588235 0.3411765 0.7490196 0.2509804 0.7490196 0.2509804 0.7490196 0.2509804 0.7490196 0.2509804 0.7490196 0.0509804 0.2 0.7490196 0.0509804 0.2 0.7490196 0.1019608 0.1490196 0.7490196 0.1019608 0.1490196 0.7529413 0.07843138 0.1686275 0.7490196 0.09019608 0.1607843 0.7490196 0.1019608 0.1490196 0.7490196 0.1019608 0.1490196 0.7490196 0.1294118 0.1215686 0.7490196 0.1215686 0.1294118 0.7529413 0.1882353 0.05882353 0.7529413 0.1882353 0.05882353 0.3019608 0.6470588 0.0509804 0.3019608 0.6470588 0.0509804 0.6588235 0.3411765 0.5686275 0.4313726 0.8196079 0.1803922 0.8392158 0.1607843 0.7490196 0.2509804 0.7490196 0.2509804 0.7490196 0.2509804 0.7490196 0.2509804 0.7490196 0.0509804 0.2 0.7490196 0.0509804 0.2 0.7490196 0.1019608 0.1490196 0.7450981 0.01176471 0.1019608 0.1411765 0.7490196 0.09019608 0.1607843 0.7490196 0.09019608 0.1607843 0.7490196 0.1019608 0.1490196 0.7490196 0.1098039 0.1411765 0.7490196 0.1215686 0.1294118 0.7490196 0.1294118 0.1215686 0.7529413 0.1882353 0.05882353 0.7529413 0.1882353 0.05882353 0.3019608 0.6470588 0.0509804 0.3019608 0.6470588 0.0509804 0.5686275 0.4313726 0.6392157 0.3607843 0.8392158 0.1607843 0.8196079 0.1803922 0.7490196 0.2509804 0.7490196 0.2509804 0.7490196 0.2509804 0.7490196 0.2509804 0.7490196 0.0509804 0.2 0.7490196 0.0509804 0.2 0.7450981 0.01176471 0.1019608 0.1411765 0.7450981 0.01176471 0.1019608 0.1411765 0.7490196 0.09019608 0.1607843 0.7490196 0.09019608 0.1607843 0.7490196 0.1098039 0.1411765 0.7490196 0.1019608 0.1490196 0.7490196 0.1294118 0.1215686 0.7490196 0.1294118 0.1215686 0.7529413 0.1882353 0.05882353 0.7529413 0.1882353 0.05882353 0.3019608 0.6470588 0.0509804 0.3019608 0.6470588 0.0509804 0.6392157 0.3607843 0.6705883 0.3294118 0.8392158 0.1607843 0.8196079 0.1803922 0.8392158 0.1607843 0.8392158 0.1607843 0.8196079 0.1803922 0.3019608 0.6470588 0.0509804 0.7490196 0.2509804 0.7490196 0.2509804 0.7490196 0.2509804 0.7490196 0.0509804 0.2 0.7490196 0.1294118 0.1215686 0.7490196 0.1294118 0.1215686 0.7490196 0.1019608 0.1490196 0.7529413 0.1882353 0.05882353 0.3019608 0.6470588 0.0509804 0.3019608 0.6470588 0.0509804 0.7529413 0.1882353 0.05882353 0.7490196 0.0509804 0.2 0.7490196 0.0509804 0.2 0.7490196 0.2509804 0.7450981 0.01176471 0.1019608 0.1411765 0.7490196 0.1098039 0.1411765 0.7490196 0.1019608 0.1490196 0.7490196 0.09019608 0.1607843 0.7490196 0.1215686 0.1294118 0.7529413 0.1882353 0.05882353 0.7529413 0.1882353 0.05882353 0.7490196 0.1215686 0.1294118 0.3019608 0.6470588 0.0509804 0.8196079 0.1803922 0.3019608 0.6470588 0.0509804 0.3019608 0.6470588 0.0509804 0.7529413 0.1882353 0.05882353 0.7529413 0.1882353 0.05882353 0.7490196 0.1215686 0.1294118 0.7490196 0.1294118 0.1215686 0.7490196 0.1019608 0.1490196 0.7490196 0.1019608 0.1490196 0.7490196 0.09019608 0.1607843 0.7529413 0.07843138 0.1686275 0.7450981 0.01176471 0.1019608 0.1411765 0.7490196 0.1019608 0.1490196 0.7490196 0.0509804 0.2 0.7490196 0.0509804 0.2 0.7490196 0.2509804 0.7490196 0.2509804 0.7490196 0.2509804 0.7490196 0.2509804 0.8392158 0.1607843 0.3019608 0.6470588 0.0509804 0.3019608 0.6470588 0.0509804 0.7529413 0.1882353 0.05882353 0.7529413 0.1882353 0.05882353 0.7490196 0.1294118 0.1215686 0.7490196 0.1215686 0.1294118 0.7490196 0.1019608 0.1490196 0.7490196 0.1098039 0.1411765 0.7450981 0.01176471 0.1019608 0.1411765 0.7490196 0.09019608 0.1607843 0.7450981 0.01176471 0.1019608 0.1411765 0.7490196 0.0509804 0.2 0.7490196 0.0509804 0.2 0.7490196 0.2509804 0.7490196 0.2509804 0.7490196 0.2509804 0.7490196 0.2509804 0.7490196 0.1019608 0.1490196 0.7450981 0.01176471 0.1019608 0.1411765 0.7490196 0.0509804 0.2 0.7529413 0.07843138 0.1686275 0.7490196 0.1019608 0.1490196 0.8196079 0.1803922 0.8392158 0.1607843 0.8196079 0.1803922 0.8392158 0.1607843 0.7490196 0.1019608 0.1490196 0.7490196 0.0509804 0.2 0.7529413 0.07843138 0.1686275 0.7490196 0.2509804 0.7490196 0.2509804 0.7490196 0.2509804 0.3019608 0.6470588 0.0509804 0.3019608 0.6470588 0.0509804 0.3019608 0.6470588 0.0509804 0.7529413 0.1882353 0.05882353 0.3019608 0.6470588 0.0509804 0.7490196 0.0509804 0.2 0.7490196 0.0509804 0.2 0.7490196 0.2509804 0.7450981 0.01176471 0.1019608 0.1411765 0.3019608 0.6470588 0.0509804 0.3019608 0.6470588 0.0509804 0.7529413 0.1882353 0.05882353 0.7490196 0.1019608 0.1490196 0.7490196 0.1215686 0.1294118 0.7490196 0.0509804 0.2 0.7450981 0.01176471 0.1019608 0.1411765 0.7450981 0.01176471 0.1019608 0.1411765 0.7490196 0.0509804 0.2 0.7490196 0.2509804 0.7490196 0.2509804 0.7490196 0.1019608 0.1490196 0.7529413 0.07843138 0.1686275 0.7450981 0.01176471 0.1019608 0.1411765 0.7490196 0.0509804 0.2 0.7490196 0.0509804 0.2 0.7490196 0.2509804 0.7490196 0.2509804 0.7490196 0.2509804 0.7529413 0.1882353 0.05882353 0.7490196 0.1019608 0.1490196 0.7450981 0.01176471 0.1019608 0.1411765 0.7490196 0.1215686 0.1294118 0.3019608 0.6470588 0.0509804 0.3019608 0.6470588 0.0509804</float_array>
          <technique_common>
            <accessor source="#geom-Npc_Judge_Flag__M_Flag-skin1-weights-array" count="560" stride="1">
              <param name="WEIGHT" type="float"/>
            </accessor>
          </technique_common>
        </source>
        <joints>
          <input semantic="JOINT" source="#geom-Npc_Judge_Flag__M_Flag-skin1-joints"/>
          <input semantic="INV_BIND_MATRIX" source="#geom-Npc_Judge_Flag__M_Flag-skin1-bind_poses"/>
        </joints>
        <vertex_weights count="333">
          <input semantic="JOINT" source="#geom-Npc_Judge_Flag__M_Flag-skin1-joints" offset="0"/>
          <input semantic="WEIGHT" source="#geom-Npc_Judge_Flag__M_Flag-skin1-weights" offset="1"/>
          <vcount>2 2 2 2 2 2 2 2 3 3 4 3 3 3 3 3 3 3 3 3 3 3 2 2 1 1 2 2 2 2 3 3 3 3 3 3 3 3 3 3 3 3 3 3 2 2 2 1 1 1 1 1 1 1 1 1 1 1 1 2 2 2 2 2 3 3 3 4 3 3 3 3 3 3 3 3 3 3 2 2 2 2 2 2 2 2 3 3 4 4 3 3 3 3 3 3 3 3 3 3 2 2 1 2 1 1 1 1 1 1 1 1 1 2 2 1 1 1 1 1 1 1 1 1 1 1 1 1 1 1 1 1 1 1 1 1 1 1 1 1 1 1 1 1 1 1 1 1 1 1 1 1 2 2 3 1 1 1 2 2 2 3 3 3 3 3 3 3 3 1 3 3 2 4 3 3 3 3 3 3 3 3 1 1 1 1 2 1 3 3 3 3 3 3 3 3 3 3 4 3 3 3 2 2 2 2 1 2 3 3 3 3 3 3 3 3 4 3 4 3 3 2 2 2 2 3 4 3 3 3 1 1 1 1 1 1 1 1 1 1 1 2 1 1 1 1 1 1 1 1 1 1 2 1 1 1 1 1 1 1 1 1 1 2 2 1 1 3 3 3 2 2 2 1 1 1 1 3 1 1 1 1 3 3 3 1 3 1 1 1 1 1 1 3 3 2 4 1 1 3 3 3 3 3 3 4 4 3 2 2 1 1 1 1 1 1 1 1 3 3 4 3 3 2 2 2 3 3 4 3 3 3 1</vcount>
          <v>1 1 4 2 1 3 4 4 1 5 4 6 1 7 4 8 1 9 4 10 1 11 4 12 1 13 4 14 1 15 4 16 1 17 3 18 4 19 1 20 3 21 4 22 1 23 2 24 3 25 4 26 1 27 3 28 4 29 1 30 2 31 3 32 1 33 2 34 3 35 1 36 2 37 3 38 1 39 2 40 3 41 1 42 2 43 3 44 1 45 2 46 3 47 1 48 2 49 3 50 1 51 2 52 3 53 1 54 2 55 3 56 1 57 2 58 3 59 1 60 2 61 1 62 2 63 1 0 1 0 1 64 4 65 1 66 4 67 1 68 4 69 1 70 4 71 1 72 3 73 4 74 1 75 3 76 4 77 1 78 3 79 4 80 1 81 3 82 4 83 1 84 2 85 3 86 1 87 2 88 3 89 1 90 2 91 3 92 1 93 2 94 3 95 1 96 2 97 3 98 1 99 2 100 3 101 1 102 2 103 3 104 1 105 2 106 3 107 1 108 2 109 3 110 1 111 2 112 3 113 1 114 2 115 1 116 2 117 1 118 2 119 1 0 1 0 1 0 1 0 1 0 1 0 1 0 1 0 1 0 1 0 1 0 1 0 1 120 2 121 1 122 4 123 1 124 4 125 1 126 4 127 1 128 4 129 1 130 3 131 4 132 1 133 3 134 4 135 1 136 3 137 4 138 1 139 2 140 3 141 4 142 1 143 2 144 3 145 1 146 2 147 3 148 1 149 2 150 3 151 1 152 2 153 3 154 1 155 2 156 3 157 1 158 2 159 3 160 1 161 2 162 3 163 1 164 2 165 3 166 1 167 2 168 3 169 1 170 2 171 3 172 1 173 2 174 1 175 2 176 1 177 2 178 1 179 2 180 1 181 4 182 1 183 4 184 1 185 4 186 1 187 4 188 1 189 3 190 4 191 1 192 3 193 4 194 1 195 2 196 3 197 4 198 1 199 2 200 3 201 4 202 1 203 2 204 3 205 1 206 2 207 3 208 1 209 2 210 3 211 1 212 2 213 3 214 1 215 2 216 3 217 1 218 2 219 3 220 1 221 2 222 3 223 1 224 2 225 3 226 1 227 2 228 3 229 1 230 2 231 3 232 1 233 2 234 1 235 2 236 1 0 1 237 2 238 1 0 1 0 1 0 1 0 1 0 1 0 1 0 1 0 1 0 1 239 2 240 1 241 2 242 1 0 1 0 1 0 1 0 1 0 1 0 1 0 1 0 1 0 1 0 1 0 1 0 1 0 1 0 1 0 1 0 1 0 1 0 1 0 1 0 1 0 1 0 1 0 1 0 1 0 1 0 1 0 1 0 1 0 1 0 1 0 1 0 1 0 1 0 1 0 1 0 1 0 1 243 2 244 1 245 2 246 1 247 2 248 3 249 1 0 1 0 1 0 1 250 4 251 1 252 4 253 1 254 4 255 1 256 3 257 4 258 1 259 2 260 3 261 1 262 2 263 3 264 1 265 2 266 3 267 1 268 2 269 3 270 1 271 2 272 3 273 1 274 2 275 3 276 1 277 2 278 3 279 1 0 1 280 3 281 4 282 1 283 3 284 4 285 1 286 4 287 1 288 2 289 3 290 4 291 1 292 2 293 3 294 1 295 2 296 3 297 1 298 2 299 3 300 1 301 2 302 3 303 1 304 2 305 3 306 1 307 2 308 3 309 1 310 2 311 3 312 1 313 2 314 3 315 1 0 1 0 1 0 1 0 1 316 2 317 1 0 1 318 2 319 3 320 1 321 2 322 3 323 1 324 2 325 3 326 1 327 2 328 3 329 1 330 2 331 3 332 1 333 2 334 3 335 1 336 2 337 3 338 1 339 2 340 3 341 1 342 2 343 3 344 1 345 2 346 3 347 1 348 2 349 3 350 4 351 1 352 3 353 4 354 1 355 3 356 4 357 1 358 3 359 4 360 1 361 4 362 1 363 4 364 1 365 4 366 1 367 4 368 1 0 1 369 2 370 1 371 2 372 3 373 1 374 2 375 3 376 1 377 2 378 3 379 1 380 2 381 3 382 1 383 2 384 3 385 1 386 2 387 3 388 1 389 2 390 3 391 1 392 2 393 3 394 1 395 2 396 3 397 4 398 1 399 2 400 3 401 1 402 2 403 3 404 4 405 1 406 3 407 4 408 1 409 3 410 4 411 1 412 4 413 1 414 4 415 1 416 4 417 1 418 4 419 1 420 3 421 4 422 1 423 2 424 3 425 4 426 1 427 3 428 4 429 1 430 2 431 3 432 1 433 2 434 3 435 1 0 1 0 1 0 1 0 1 0 1 0 1 0 1 0 1 0 1 0 1 0 1 436 2 437 1 0 1 0 1 0 1 0 1 0 1 0 1 0 1 0 1 0 1 0 1 438 2 439 1 0 1 0 1 0 1 0 1 0 1 0 1 0 1 0 1 0 1 0 1 440 2 441 1 442 2 443 1 0 1 0 1 444 2 445 3 446 1 447 3 448 4 449 1 450 2 451 3 452 1 453 4 454 1 455 4 456 1 457 4 458 1 0 1 0 1 0 1 0 1 459 2 460 3 461 1 0 1 0 1 0 1 0 1 462 2 463 3 464 1 465 2 466 3 467 1 468 2 469 3 470 1 0 1 471 2 472 3 473 1 0 1 0 1 0 1 0 1 0 1 0 1 474 3 475 4 476 1 477 3 478 4 479 1 480 4 481 1 482 2 483 3 484 4 485 1 0 1 0 1 486 2 487 3 488 1 489 2 490 3 491 1 492 2 493 3 494 1 495 2 496 3 497 1 498 2 499 3 500 1 501 3 502 4 503 1 504 2 505 3 506 4 507 1 508 2 509 3 510 4 511 1 512 3 513 4 514 1 515 4 516 1 517 4 518 1 0 1 0 1 0 1 0 1 0 1 0 1 0 1 0 1 519 2 520 3 521 1 522 2 523 3 524 1 525 2 526 3 527 4 528 1 529 3 530 4 531 1 532 3 533 4 534 1 535 4 536 1 537 4 538 1 539 4 540 1 541 2 542 3 543 1 544 2 545 3 546 1 547 2 548 3 549 4 550 1 551 2 552 3 553 1 554 2 555 3 556 1 557 2 558 3 559 1 0</v>
        </vertex_weights>
      </skin>
    </controller>
  </library_controllers>
  <library_lights>
    <light id="EnvironmentAmbientLight" name="EnvironmentAmbientLight">
      <technique_common>
        <ambient>
          <color>0 0 0</color>
        </ambient>
      </technique_common>
    </light>
  </library_lights>
  <library_images>
    <image id="M_FlagJr_Alb_png">
      <init_from>./M_FlagJr_Alb.png</init_from>
    </image>
  </library_images>
  <library_visual_scenes>
    <visual_scene id="MaxScene">
      <node name="EnvironmentAmbientLight">
        <instance_light url="#EnvironmentAmbientLight"/>
      </node>
      <node id="node-root" name="root" sid="joint0" type="JOINT">
        <rotate>-1 0 0 -90</rotate>
        <node id="node-skl_root" name="skl_root" sid="joint1" type="JOINT">
          <translate>0.01684636 -0.02313246 0</translate>
          <node id="node-flag1" name="flag1" sid="joint2" type="JOINT">
            <translate>0.01745296 0 0.3</translate>
            <node id="node-flag2" name="flag2" sid="joint3" type="JOINT">
              <translate>0.1419126 0 0</translate>
              <node id="node-flag3" name="flag3" sid="joint4" type="JOINT">
                <translate>0.1406491 0 0</translate>
                <extra>
                  <technique profile="OpenCOLLADA">
                    <cast_shadows sid="cast_shadows" type="bool">1</cast_shadows>
                    <receive_shadows sid="receive_shadows" type="bool">1</receive_shadows>
                    <primary_visibility sid="primary_visibility" type="bool">1</primary_visibility>
                    <secondary_visibility sid="secondary_visibility" type="bool">1</secondary_visibility>
                  </technique>
                </extra>
              </node>
              <extra>
                <technique profile="OpenCOLLADA">
                  <cast_shadows sid="cast_shadows" type="bool">1</cast_shadows>
                  <receive_shadows sid="receive_shadows" type="bool">1</receive_shadows>
                  <primary_visibility sid="primary_visibility" type="bool">1</primary_visibility>
                  <secondary_visibility sid="secondary_visibility" type="bool">1</secondary_visibility>
                </technique>
              </extra>
            </node>
            <extra>
              <technique profile="OpenCOLLADA">
                <cast_shadows sid="cast_shadows" type="bool">1</cast_shadows>
                <receive_shadows sid="receive_shadows" type="bool">1</receive_shadows>
                <primary_visibility sid="primary_visibility" type="bool">1</primary_visibility>
                <secondary_visibility sid="secondary_visibility" type="bool">1</secondary_visibility>
              </technique>
            </extra>
          </node>
          <extra>
            <technique profile="OpenCOLLADA">
              <cast_shadows sid="cast_shadows" type="bool">1</cast_shadows>
              <receive_shadows sid="receive_shadows" type="bool">1</receive_shadows>
              <primary_visibility sid="primary_visibility" type="bool">1</primary_visibility>
              <secondary_visibility sid="secondary_visibility" type="bool">1</secondary_visibility>
            </technique>
          </extra>
        </node>
        <extra>
          <technique profile="OpenCOLLADA">
            <cast_shadows sid="cast_shadows" type="bool">1</cast_shadows>
            <receive_shadows sid="receive_shadows" type="bool">1</receive_shadows>
            <primary_visibility sid="primary_visibility" type="bool">1</primary_visibility>
            <secondary_visibility sid="secondary_visibility" type="bool">1</secondary_visibility>
          </technique>
        </extra>
      </node>
      <node id="node-Npc_Judge_Flag__M_Flag" name="Npc_Judge_Flag__M_Flag">
        <instance_controller url="#geom-Npc_Judge_Flag__M_Flag-skin1">
          <skeleton>#node-root</skeleton>
          <bind_material>
            <technique_common>
              <instance_material symbol="M_Flag" target="#M_Flag-material">
                <bind_vertex_input semantic="CHANNEL1" input_semantic="TEXCOORD" input_set="0"/>
                <bind_vertex_input semantic="CHANNEL1" input_semantic="TEXCOORD" input_set="0"/>
              </instance_material>
            </technique_common>
          </bind_material>
        </instance_controller>
        <extra>
          <technique profile="OpenCOLLADA">
            <cast_shadows sid="cast_shadows" type="bool">1</cast_shadows>
            <receive_shadows sid="receive_shadows" type="bool">1</receive_shadows>
            <primary_visibility sid="primary_visibility" type="bool">1</primary_visibility>
            <secondary_visibility sid="secondary_visibility" type="bool">1</secondary_visibility>
          </technique>
        </extra>
      </node>
    </visual_scene>
  </library_visual_scenes>
  <scene>
    <instance_visual_scene url="#MaxScene"/>
  </scene>
</COLLADA>